G75*
%MOIN*%
%OFA0B0*%
%FSLAX25Y25*%
%IPPOS*%
%LPD*%
%AMOC8*
5,1,8,0,0,1.08239X$1,22.5*
%
%ADD10C,0.00000*%
%ADD11C,0.00300*%
%ADD12C,0.00600*%
%ADD13C,0.00200*%
%ADD14C,0.00500*%
%ADD15C,0.00800*%
%ADD16R,0.03937X0.00787*%
%ADD17C,0.00995*%
%ADD18C,0.03200*%
%ADD19C,0.00400*%
D10*
X0012302Y0049630D02*
X0058595Y0035783D01*
X0063045Y0049233D01*
X0101103Y0037846D01*
X0097188Y0024403D01*
X0121450Y0016935D01*
X0140155Y0016935D01*
X0140155Y0032954D01*
X0144035Y0032954D01*
X0144035Y0071690D01*
X0388324Y0071690D01*
X0388324Y0005424D01*
X0388325Y0005424D02*
X0388327Y0005337D01*
X0388333Y0005250D01*
X0388342Y0005163D01*
X0388355Y0005077D01*
X0388372Y0004992D01*
X0388393Y0004907D01*
X0388417Y0004824D01*
X0388445Y0004741D01*
X0388476Y0004660D01*
X0388511Y0004580D01*
X0388550Y0004502D01*
X0388592Y0004426D01*
X0388637Y0004351D01*
X0388685Y0004279D01*
X0388736Y0004208D01*
X0388791Y0004140D01*
X0388848Y0004075D01*
X0388908Y0004012D01*
X0388971Y0003952D01*
X0389036Y0003894D01*
X0389104Y0003840D01*
X0389174Y0003788D01*
X0389246Y0003739D01*
X0389321Y0003694D01*
X0389397Y0003652D01*
X0389475Y0003613D01*
X0389554Y0003578D01*
X0389636Y0003546D01*
X0389718Y0003518D01*
X0389801Y0003494D01*
X0389886Y0003473D01*
X0389971Y0003455D01*
X0390057Y0003442D01*
X0390144Y0003432D01*
X0390231Y0003426D01*
X0390318Y0003424D01*
X0390317Y0003424D02*
X0403473Y0003378D01*
X0403975Y0003312D02*
X0408625Y0002088D01*
X0410221Y0002343D02*
X0417983Y0007370D01*
X0418055Y0007419D01*
X0418125Y0007471D01*
X0418193Y0007526D01*
X0418258Y0007584D01*
X0418321Y0007645D01*
X0418380Y0007709D01*
X0418437Y0007775D01*
X0418492Y0007843D01*
X0418543Y0007914D01*
X0418591Y0007987D01*
X0418635Y0008062D01*
X0418677Y0008138D01*
X0418715Y0008217D01*
X0418749Y0008297D01*
X0418780Y0008379D01*
X0418808Y0008461D01*
X0418832Y0008545D01*
X0418852Y0008630D01*
X0418868Y0008716D01*
X0418881Y0008802D01*
X0418890Y0008889D01*
X0418895Y0008976D01*
X0418896Y0009063D01*
X0418893Y0009150D01*
X0418887Y0009237D01*
X0418877Y0009324D01*
X0418421Y0012607D01*
X0431137Y0017261D01*
X0436537Y0014608D01*
X0498428Y0031413D01*
X0498773Y0032197D01*
X0500524Y0036480D01*
X0504089Y0038115D01*
X0506643Y0039804D01*
X0508209Y0042029D01*
X0508992Y0044172D01*
X0508992Y0047913D01*
X0517365Y0047913D01*
X0520266Y0049924D01*
X0522178Y0051968D01*
X0522816Y0055034D01*
X0522816Y0099617D01*
X0516706Y0099617D01*
X0516706Y0161850D01*
X0518684Y0164734D01*
X0520374Y0167948D01*
X0521074Y0171327D01*
X0521404Y0176231D01*
X0521404Y0178662D01*
X0520374Y0183030D01*
X0518519Y0187398D01*
X0516720Y0189788D01*
X0516720Y0211736D01*
X0512231Y0211736D01*
X0512231Y0227654D01*
X0500899Y0242829D01*
X0462944Y0248835D01*
X0462944Y0257405D01*
X0442876Y0257405D01*
X0441310Y0255222D01*
X0439127Y0253491D01*
X0436242Y0252131D01*
X0433605Y0251472D01*
X0424169Y0251472D01*
X0422191Y0252626D01*
X0420914Y0254315D01*
X0410355Y0283262D01*
X0409376Y0285734D01*
X0407110Y0287640D01*
X0405204Y0288309D01*
X0389597Y0288309D01*
X0389597Y0274967D01*
X0348592Y0274967D01*
X0348592Y0285719D01*
X0337647Y0285719D01*
X0337647Y0269816D01*
X0325092Y0269816D01*
X0325092Y0289122D01*
X0274002Y0289122D01*
X0274002Y0285479D01*
X0182443Y0285479D01*
X0182450Y0276744D01*
X0168204Y0276744D01*
X0168204Y0269986D01*
X0155677Y0269986D01*
X0155677Y0276670D01*
X0143349Y0276670D01*
X0141964Y0277329D01*
X0141371Y0278648D01*
X0141371Y0289076D01*
X0125899Y0289076D01*
X0122932Y0287552D01*
X0120954Y0285286D01*
X0110084Y0254534D01*
X0109106Y0252989D01*
X0107200Y0251649D01*
X0105140Y0251139D01*
X0096476Y0251139D01*
X0095599Y0251424D01*
X0092055Y0253196D01*
X0089377Y0255256D01*
X0088141Y0257523D01*
X0067579Y0257523D01*
X0067579Y0249694D01*
X0029711Y0243613D01*
X0018944Y0228117D01*
X0018944Y0212930D01*
X0021027Y0212561D01*
X0023111Y0211453D01*
X0024588Y0210134D01*
X0024957Y0207919D01*
X0024772Y0206126D01*
X0023586Y0204570D01*
X0022161Y0204005D01*
X0014233Y0204005D01*
X0014233Y0191901D01*
X0014090Y0191551D01*
X0012837Y0188749D01*
X0011123Y0184563D01*
X0009640Y0180640D01*
X0008618Y0172893D01*
X0008288Y0167520D01*
X0009046Y0160136D01*
X0010398Y0153510D01*
X0012112Y0148400D01*
X0014423Y0143884D01*
X0014423Y0101097D01*
X0024176Y0101097D01*
X0024176Y0067634D01*
X0008549Y0067634D01*
X0008549Y0055693D01*
X0008825Y0053944D01*
X0010242Y0051433D01*
X0012302Y0049630D01*
X0011381Y0058065D02*
X0011383Y0058218D01*
X0011389Y0058372D01*
X0011399Y0058525D01*
X0011413Y0058677D01*
X0011431Y0058830D01*
X0011453Y0058981D01*
X0011478Y0059132D01*
X0011508Y0059283D01*
X0011542Y0059433D01*
X0011579Y0059581D01*
X0011620Y0059729D01*
X0011665Y0059875D01*
X0011714Y0060021D01*
X0011767Y0060165D01*
X0011823Y0060307D01*
X0011883Y0060448D01*
X0011947Y0060588D01*
X0012014Y0060726D01*
X0012085Y0060862D01*
X0012160Y0060996D01*
X0012237Y0061128D01*
X0012319Y0061258D01*
X0012403Y0061386D01*
X0012491Y0061512D01*
X0012582Y0061635D01*
X0012676Y0061756D01*
X0012774Y0061874D01*
X0012874Y0061990D01*
X0012978Y0062103D01*
X0013084Y0062214D01*
X0013193Y0062322D01*
X0013305Y0062427D01*
X0013419Y0062528D01*
X0013537Y0062627D01*
X0013656Y0062723D01*
X0013778Y0062816D01*
X0013903Y0062905D01*
X0014030Y0062992D01*
X0014159Y0063074D01*
X0014290Y0063154D01*
X0014423Y0063230D01*
X0014558Y0063303D01*
X0014695Y0063372D01*
X0014834Y0063437D01*
X0014974Y0063499D01*
X0015116Y0063557D01*
X0015259Y0063612D01*
X0015404Y0063663D01*
X0015550Y0063710D01*
X0015697Y0063753D01*
X0015845Y0063792D01*
X0015994Y0063828D01*
X0016144Y0063859D01*
X0016295Y0063887D01*
X0016446Y0063911D01*
X0016599Y0063931D01*
X0016751Y0063947D01*
X0016904Y0063959D01*
X0017057Y0063967D01*
X0017210Y0063971D01*
X0017364Y0063971D01*
X0017517Y0063967D01*
X0017670Y0063959D01*
X0017823Y0063947D01*
X0017975Y0063931D01*
X0018128Y0063911D01*
X0018279Y0063887D01*
X0018430Y0063859D01*
X0018580Y0063828D01*
X0018729Y0063792D01*
X0018877Y0063753D01*
X0019024Y0063710D01*
X0019170Y0063663D01*
X0019315Y0063612D01*
X0019458Y0063557D01*
X0019600Y0063499D01*
X0019740Y0063437D01*
X0019879Y0063372D01*
X0020016Y0063303D01*
X0020151Y0063230D01*
X0020284Y0063154D01*
X0020415Y0063074D01*
X0020544Y0062992D01*
X0020671Y0062905D01*
X0020796Y0062816D01*
X0020918Y0062723D01*
X0021037Y0062627D01*
X0021155Y0062528D01*
X0021269Y0062427D01*
X0021381Y0062322D01*
X0021490Y0062214D01*
X0021596Y0062103D01*
X0021700Y0061990D01*
X0021800Y0061874D01*
X0021898Y0061756D01*
X0021992Y0061635D01*
X0022083Y0061512D01*
X0022171Y0061386D01*
X0022255Y0061258D01*
X0022337Y0061128D01*
X0022414Y0060996D01*
X0022489Y0060862D01*
X0022560Y0060726D01*
X0022627Y0060588D01*
X0022691Y0060448D01*
X0022751Y0060307D01*
X0022807Y0060165D01*
X0022860Y0060021D01*
X0022909Y0059875D01*
X0022954Y0059729D01*
X0022995Y0059581D01*
X0023032Y0059433D01*
X0023066Y0059283D01*
X0023096Y0059132D01*
X0023121Y0058981D01*
X0023143Y0058830D01*
X0023161Y0058677D01*
X0023175Y0058525D01*
X0023185Y0058372D01*
X0023191Y0058218D01*
X0023193Y0058065D01*
X0023191Y0057912D01*
X0023185Y0057758D01*
X0023175Y0057605D01*
X0023161Y0057453D01*
X0023143Y0057300D01*
X0023121Y0057149D01*
X0023096Y0056998D01*
X0023066Y0056847D01*
X0023032Y0056697D01*
X0022995Y0056549D01*
X0022954Y0056401D01*
X0022909Y0056255D01*
X0022860Y0056109D01*
X0022807Y0055965D01*
X0022751Y0055823D01*
X0022691Y0055682D01*
X0022627Y0055542D01*
X0022560Y0055404D01*
X0022489Y0055268D01*
X0022414Y0055134D01*
X0022337Y0055002D01*
X0022255Y0054872D01*
X0022171Y0054744D01*
X0022083Y0054618D01*
X0021992Y0054495D01*
X0021898Y0054374D01*
X0021800Y0054256D01*
X0021700Y0054140D01*
X0021596Y0054027D01*
X0021490Y0053916D01*
X0021381Y0053808D01*
X0021269Y0053703D01*
X0021155Y0053602D01*
X0021037Y0053503D01*
X0020918Y0053407D01*
X0020796Y0053314D01*
X0020671Y0053225D01*
X0020544Y0053138D01*
X0020415Y0053056D01*
X0020284Y0052976D01*
X0020151Y0052900D01*
X0020016Y0052827D01*
X0019879Y0052758D01*
X0019740Y0052693D01*
X0019600Y0052631D01*
X0019458Y0052573D01*
X0019315Y0052518D01*
X0019170Y0052467D01*
X0019024Y0052420D01*
X0018877Y0052377D01*
X0018729Y0052338D01*
X0018580Y0052302D01*
X0018430Y0052271D01*
X0018279Y0052243D01*
X0018128Y0052219D01*
X0017975Y0052199D01*
X0017823Y0052183D01*
X0017670Y0052171D01*
X0017517Y0052163D01*
X0017364Y0052159D01*
X0017210Y0052159D01*
X0017057Y0052163D01*
X0016904Y0052171D01*
X0016751Y0052183D01*
X0016599Y0052199D01*
X0016446Y0052219D01*
X0016295Y0052243D01*
X0016144Y0052271D01*
X0015994Y0052302D01*
X0015845Y0052338D01*
X0015697Y0052377D01*
X0015550Y0052420D01*
X0015404Y0052467D01*
X0015259Y0052518D01*
X0015116Y0052573D01*
X0014974Y0052631D01*
X0014834Y0052693D01*
X0014695Y0052758D01*
X0014558Y0052827D01*
X0014423Y0052900D01*
X0014290Y0052976D01*
X0014159Y0053056D01*
X0014030Y0053138D01*
X0013903Y0053225D01*
X0013778Y0053314D01*
X0013656Y0053407D01*
X0013537Y0053503D01*
X0013419Y0053602D01*
X0013305Y0053703D01*
X0013193Y0053808D01*
X0013084Y0053916D01*
X0012978Y0054027D01*
X0012874Y0054140D01*
X0012774Y0054256D01*
X0012676Y0054374D01*
X0012582Y0054495D01*
X0012491Y0054618D01*
X0012403Y0054744D01*
X0012319Y0054872D01*
X0012237Y0055002D01*
X0012160Y0055134D01*
X0012085Y0055268D01*
X0012014Y0055404D01*
X0011947Y0055542D01*
X0011883Y0055682D01*
X0011823Y0055823D01*
X0011767Y0055965D01*
X0011714Y0056109D01*
X0011665Y0056255D01*
X0011620Y0056401D01*
X0011579Y0056549D01*
X0011542Y0056697D01*
X0011508Y0056847D01*
X0011478Y0056998D01*
X0011453Y0057149D01*
X0011431Y0057300D01*
X0011413Y0057453D01*
X0011399Y0057605D01*
X0011389Y0057758D01*
X0011383Y0057912D01*
X0011381Y0058065D01*
X0066767Y0053998D02*
X0066769Y0054097D01*
X0066775Y0054197D01*
X0066785Y0054296D01*
X0066799Y0054394D01*
X0066816Y0054492D01*
X0066838Y0054589D01*
X0066863Y0054685D01*
X0066892Y0054780D01*
X0066925Y0054874D01*
X0066962Y0054966D01*
X0067002Y0055057D01*
X0067046Y0055146D01*
X0067094Y0055234D01*
X0067145Y0055319D01*
X0067199Y0055402D01*
X0067256Y0055484D01*
X0067317Y0055562D01*
X0067381Y0055639D01*
X0067447Y0055712D01*
X0067517Y0055783D01*
X0067589Y0055851D01*
X0067664Y0055917D01*
X0067742Y0055979D01*
X0067822Y0056038D01*
X0067904Y0056094D01*
X0067988Y0056146D01*
X0068075Y0056195D01*
X0068163Y0056241D01*
X0068253Y0056283D01*
X0068345Y0056322D01*
X0068438Y0056357D01*
X0068532Y0056388D01*
X0068628Y0056415D01*
X0068725Y0056438D01*
X0068822Y0056458D01*
X0068920Y0056474D01*
X0069019Y0056486D01*
X0069118Y0056494D01*
X0069217Y0056498D01*
X0069317Y0056498D01*
X0069416Y0056494D01*
X0069515Y0056486D01*
X0069614Y0056474D01*
X0069712Y0056458D01*
X0069809Y0056438D01*
X0069906Y0056415D01*
X0070002Y0056388D01*
X0070096Y0056357D01*
X0070189Y0056322D01*
X0070281Y0056283D01*
X0070371Y0056241D01*
X0070459Y0056195D01*
X0070546Y0056146D01*
X0070630Y0056094D01*
X0070712Y0056038D01*
X0070792Y0055979D01*
X0070870Y0055917D01*
X0070945Y0055851D01*
X0071017Y0055783D01*
X0071087Y0055712D01*
X0071153Y0055639D01*
X0071217Y0055562D01*
X0071278Y0055484D01*
X0071335Y0055402D01*
X0071389Y0055319D01*
X0071440Y0055234D01*
X0071488Y0055146D01*
X0071532Y0055057D01*
X0071572Y0054966D01*
X0071609Y0054874D01*
X0071642Y0054780D01*
X0071671Y0054685D01*
X0071696Y0054589D01*
X0071718Y0054492D01*
X0071735Y0054394D01*
X0071749Y0054296D01*
X0071759Y0054197D01*
X0071765Y0054097D01*
X0071767Y0053998D01*
X0071765Y0053899D01*
X0071759Y0053799D01*
X0071749Y0053700D01*
X0071735Y0053602D01*
X0071718Y0053504D01*
X0071696Y0053407D01*
X0071671Y0053311D01*
X0071642Y0053216D01*
X0071609Y0053122D01*
X0071572Y0053030D01*
X0071532Y0052939D01*
X0071488Y0052850D01*
X0071440Y0052762D01*
X0071389Y0052677D01*
X0071335Y0052594D01*
X0071278Y0052512D01*
X0071217Y0052434D01*
X0071153Y0052357D01*
X0071087Y0052284D01*
X0071017Y0052213D01*
X0070945Y0052145D01*
X0070870Y0052079D01*
X0070792Y0052017D01*
X0070712Y0051958D01*
X0070630Y0051902D01*
X0070546Y0051850D01*
X0070459Y0051801D01*
X0070371Y0051755D01*
X0070281Y0051713D01*
X0070189Y0051674D01*
X0070096Y0051639D01*
X0070002Y0051608D01*
X0069906Y0051581D01*
X0069809Y0051558D01*
X0069712Y0051538D01*
X0069614Y0051522D01*
X0069515Y0051510D01*
X0069416Y0051502D01*
X0069317Y0051498D01*
X0069217Y0051498D01*
X0069118Y0051502D01*
X0069019Y0051510D01*
X0068920Y0051522D01*
X0068822Y0051538D01*
X0068725Y0051558D01*
X0068628Y0051581D01*
X0068532Y0051608D01*
X0068438Y0051639D01*
X0068345Y0051674D01*
X0068253Y0051713D01*
X0068163Y0051755D01*
X0068075Y0051801D01*
X0067988Y0051850D01*
X0067904Y0051902D01*
X0067822Y0051958D01*
X0067742Y0052017D01*
X0067664Y0052079D01*
X0067589Y0052145D01*
X0067517Y0052213D01*
X0067447Y0052284D01*
X0067381Y0052357D01*
X0067317Y0052434D01*
X0067256Y0052512D01*
X0067199Y0052594D01*
X0067145Y0052677D01*
X0067094Y0052762D01*
X0067046Y0052850D01*
X0067002Y0052939D01*
X0066962Y0053030D01*
X0066925Y0053122D01*
X0066892Y0053216D01*
X0066863Y0053311D01*
X0066838Y0053407D01*
X0066816Y0053504D01*
X0066799Y0053602D01*
X0066785Y0053700D01*
X0066775Y0053799D01*
X0066769Y0053899D01*
X0066767Y0053998D01*
X0095457Y0045227D02*
X0095459Y0045326D01*
X0095465Y0045426D01*
X0095475Y0045525D01*
X0095489Y0045623D01*
X0095506Y0045721D01*
X0095528Y0045818D01*
X0095553Y0045914D01*
X0095582Y0046009D01*
X0095615Y0046103D01*
X0095652Y0046195D01*
X0095692Y0046286D01*
X0095736Y0046375D01*
X0095784Y0046463D01*
X0095835Y0046548D01*
X0095889Y0046631D01*
X0095946Y0046713D01*
X0096007Y0046791D01*
X0096071Y0046868D01*
X0096137Y0046941D01*
X0096207Y0047012D01*
X0096279Y0047080D01*
X0096354Y0047146D01*
X0096432Y0047208D01*
X0096512Y0047267D01*
X0096594Y0047323D01*
X0096678Y0047375D01*
X0096765Y0047424D01*
X0096853Y0047470D01*
X0096943Y0047512D01*
X0097035Y0047551D01*
X0097128Y0047586D01*
X0097222Y0047617D01*
X0097318Y0047644D01*
X0097415Y0047667D01*
X0097512Y0047687D01*
X0097610Y0047703D01*
X0097709Y0047715D01*
X0097808Y0047723D01*
X0097907Y0047727D01*
X0098007Y0047727D01*
X0098106Y0047723D01*
X0098205Y0047715D01*
X0098304Y0047703D01*
X0098402Y0047687D01*
X0098499Y0047667D01*
X0098596Y0047644D01*
X0098692Y0047617D01*
X0098786Y0047586D01*
X0098879Y0047551D01*
X0098971Y0047512D01*
X0099061Y0047470D01*
X0099149Y0047424D01*
X0099236Y0047375D01*
X0099320Y0047323D01*
X0099402Y0047267D01*
X0099482Y0047208D01*
X0099560Y0047146D01*
X0099635Y0047080D01*
X0099707Y0047012D01*
X0099777Y0046941D01*
X0099843Y0046868D01*
X0099907Y0046791D01*
X0099968Y0046713D01*
X0100025Y0046631D01*
X0100079Y0046548D01*
X0100130Y0046463D01*
X0100178Y0046375D01*
X0100222Y0046286D01*
X0100262Y0046195D01*
X0100299Y0046103D01*
X0100332Y0046009D01*
X0100361Y0045914D01*
X0100386Y0045818D01*
X0100408Y0045721D01*
X0100425Y0045623D01*
X0100439Y0045525D01*
X0100449Y0045426D01*
X0100455Y0045326D01*
X0100457Y0045227D01*
X0100455Y0045128D01*
X0100449Y0045028D01*
X0100439Y0044929D01*
X0100425Y0044831D01*
X0100408Y0044733D01*
X0100386Y0044636D01*
X0100361Y0044540D01*
X0100332Y0044445D01*
X0100299Y0044351D01*
X0100262Y0044259D01*
X0100222Y0044168D01*
X0100178Y0044079D01*
X0100130Y0043991D01*
X0100079Y0043906D01*
X0100025Y0043823D01*
X0099968Y0043741D01*
X0099907Y0043663D01*
X0099843Y0043586D01*
X0099777Y0043513D01*
X0099707Y0043442D01*
X0099635Y0043374D01*
X0099560Y0043308D01*
X0099482Y0043246D01*
X0099402Y0043187D01*
X0099320Y0043131D01*
X0099236Y0043079D01*
X0099149Y0043030D01*
X0099061Y0042984D01*
X0098971Y0042942D01*
X0098879Y0042903D01*
X0098786Y0042868D01*
X0098692Y0042837D01*
X0098596Y0042810D01*
X0098499Y0042787D01*
X0098402Y0042767D01*
X0098304Y0042751D01*
X0098205Y0042739D01*
X0098106Y0042731D01*
X0098007Y0042727D01*
X0097907Y0042727D01*
X0097808Y0042731D01*
X0097709Y0042739D01*
X0097610Y0042751D01*
X0097512Y0042767D01*
X0097415Y0042787D01*
X0097318Y0042810D01*
X0097222Y0042837D01*
X0097128Y0042868D01*
X0097035Y0042903D01*
X0096943Y0042942D01*
X0096853Y0042984D01*
X0096765Y0043030D01*
X0096678Y0043079D01*
X0096594Y0043131D01*
X0096512Y0043187D01*
X0096432Y0043246D01*
X0096354Y0043308D01*
X0096279Y0043374D01*
X0096207Y0043442D01*
X0096137Y0043513D01*
X0096071Y0043586D01*
X0096007Y0043663D01*
X0095946Y0043741D01*
X0095889Y0043823D01*
X0095835Y0043906D01*
X0095784Y0043991D01*
X0095736Y0044079D01*
X0095692Y0044168D01*
X0095652Y0044259D01*
X0095615Y0044351D01*
X0095582Y0044445D01*
X0095553Y0044540D01*
X0095528Y0044636D01*
X0095506Y0044733D01*
X0095489Y0044831D01*
X0095475Y0044929D01*
X0095465Y0045028D01*
X0095459Y0045128D01*
X0095457Y0045227D01*
X0073045Y0073956D02*
X0073047Y0074096D01*
X0073053Y0074236D01*
X0073063Y0074375D01*
X0073077Y0074514D01*
X0073095Y0074653D01*
X0073116Y0074791D01*
X0073142Y0074929D01*
X0073172Y0075066D01*
X0073205Y0075201D01*
X0073243Y0075336D01*
X0073284Y0075470D01*
X0073329Y0075603D01*
X0073377Y0075734D01*
X0073430Y0075863D01*
X0073486Y0075992D01*
X0073545Y0076118D01*
X0073609Y0076243D01*
X0073675Y0076366D01*
X0073746Y0076487D01*
X0073819Y0076606D01*
X0073896Y0076723D01*
X0073977Y0076837D01*
X0074060Y0076949D01*
X0074147Y0077059D01*
X0074237Y0077167D01*
X0074329Y0077271D01*
X0074425Y0077373D01*
X0074524Y0077473D01*
X0074625Y0077569D01*
X0074729Y0077663D01*
X0074836Y0077753D01*
X0074945Y0077840D01*
X0075057Y0077925D01*
X0075171Y0078006D01*
X0075287Y0078084D01*
X0075405Y0078158D01*
X0075526Y0078229D01*
X0075648Y0078297D01*
X0075773Y0078361D01*
X0075899Y0078422D01*
X0076026Y0078479D01*
X0076156Y0078532D01*
X0076287Y0078582D01*
X0076419Y0078627D01*
X0076552Y0078670D01*
X0076687Y0078708D01*
X0076822Y0078742D01*
X0076959Y0078773D01*
X0077096Y0078800D01*
X0077234Y0078822D01*
X0077373Y0078841D01*
X0077512Y0078856D01*
X0077651Y0078867D01*
X0077791Y0078874D01*
X0077931Y0078877D01*
X0078071Y0078876D01*
X0078211Y0078871D01*
X0078350Y0078862D01*
X0078490Y0078849D01*
X0078629Y0078832D01*
X0078767Y0078811D01*
X0078905Y0078787D01*
X0079042Y0078758D01*
X0079178Y0078726D01*
X0079313Y0078689D01*
X0079447Y0078649D01*
X0079580Y0078605D01*
X0079711Y0078557D01*
X0079841Y0078506D01*
X0079970Y0078451D01*
X0080097Y0078392D01*
X0080222Y0078329D01*
X0080345Y0078264D01*
X0080467Y0078194D01*
X0080586Y0078121D01*
X0080704Y0078045D01*
X0080819Y0077966D01*
X0080932Y0077883D01*
X0081042Y0077797D01*
X0081150Y0077708D01*
X0081255Y0077616D01*
X0081358Y0077521D01*
X0081458Y0077423D01*
X0081555Y0077323D01*
X0081649Y0077219D01*
X0081741Y0077113D01*
X0081829Y0077005D01*
X0081914Y0076894D01*
X0081996Y0076780D01*
X0082075Y0076664D01*
X0082150Y0076547D01*
X0082222Y0076427D01*
X0082290Y0076305D01*
X0082355Y0076181D01*
X0082417Y0076055D01*
X0082475Y0075928D01*
X0082529Y0075799D01*
X0082580Y0075668D01*
X0082626Y0075536D01*
X0082669Y0075403D01*
X0082709Y0075269D01*
X0082744Y0075134D01*
X0082776Y0074997D01*
X0082803Y0074860D01*
X0082827Y0074722D01*
X0082847Y0074584D01*
X0082863Y0074445D01*
X0082875Y0074305D01*
X0082883Y0074166D01*
X0082887Y0074026D01*
X0082887Y0073886D01*
X0082883Y0073746D01*
X0082875Y0073607D01*
X0082863Y0073467D01*
X0082847Y0073328D01*
X0082827Y0073190D01*
X0082803Y0073052D01*
X0082776Y0072915D01*
X0082744Y0072778D01*
X0082709Y0072643D01*
X0082669Y0072509D01*
X0082626Y0072376D01*
X0082580Y0072244D01*
X0082529Y0072113D01*
X0082475Y0071984D01*
X0082417Y0071857D01*
X0082355Y0071731D01*
X0082290Y0071607D01*
X0082222Y0071485D01*
X0082150Y0071365D01*
X0082075Y0071248D01*
X0081996Y0071132D01*
X0081914Y0071018D01*
X0081829Y0070907D01*
X0081741Y0070799D01*
X0081649Y0070693D01*
X0081555Y0070589D01*
X0081458Y0070489D01*
X0081358Y0070391D01*
X0081255Y0070296D01*
X0081150Y0070204D01*
X0081042Y0070115D01*
X0080932Y0070029D01*
X0080819Y0069946D01*
X0080704Y0069867D01*
X0080586Y0069791D01*
X0080467Y0069718D01*
X0080345Y0069648D01*
X0080222Y0069583D01*
X0080097Y0069520D01*
X0079970Y0069461D01*
X0079841Y0069406D01*
X0079711Y0069355D01*
X0079580Y0069307D01*
X0079447Y0069263D01*
X0079313Y0069223D01*
X0079178Y0069186D01*
X0079042Y0069154D01*
X0078905Y0069125D01*
X0078767Y0069101D01*
X0078629Y0069080D01*
X0078490Y0069063D01*
X0078350Y0069050D01*
X0078211Y0069041D01*
X0078071Y0069036D01*
X0077931Y0069035D01*
X0077791Y0069038D01*
X0077651Y0069045D01*
X0077512Y0069056D01*
X0077373Y0069071D01*
X0077234Y0069090D01*
X0077096Y0069112D01*
X0076959Y0069139D01*
X0076822Y0069170D01*
X0076687Y0069204D01*
X0076552Y0069242D01*
X0076419Y0069285D01*
X0076287Y0069330D01*
X0076156Y0069380D01*
X0076026Y0069433D01*
X0075899Y0069490D01*
X0075773Y0069551D01*
X0075648Y0069615D01*
X0075526Y0069683D01*
X0075405Y0069754D01*
X0075287Y0069828D01*
X0075171Y0069906D01*
X0075057Y0069987D01*
X0074945Y0070072D01*
X0074836Y0070159D01*
X0074729Y0070249D01*
X0074625Y0070343D01*
X0074524Y0070439D01*
X0074425Y0070539D01*
X0074329Y0070641D01*
X0074237Y0070745D01*
X0074147Y0070853D01*
X0074060Y0070963D01*
X0073977Y0071075D01*
X0073896Y0071189D01*
X0073819Y0071306D01*
X0073746Y0071425D01*
X0073675Y0071546D01*
X0073609Y0071669D01*
X0073545Y0071794D01*
X0073486Y0071920D01*
X0073430Y0072049D01*
X0073377Y0072178D01*
X0073329Y0072309D01*
X0073284Y0072442D01*
X0073243Y0072576D01*
X0073205Y0072711D01*
X0073172Y0072846D01*
X0073142Y0072983D01*
X0073116Y0073121D01*
X0073095Y0073259D01*
X0073077Y0073398D01*
X0073063Y0073537D01*
X0073053Y0073676D01*
X0073047Y0073816D01*
X0073045Y0073956D01*
X0050286Y0110519D02*
X0050288Y0110659D01*
X0050294Y0110799D01*
X0050304Y0110938D01*
X0050318Y0111077D01*
X0050336Y0111216D01*
X0050357Y0111354D01*
X0050383Y0111492D01*
X0050413Y0111629D01*
X0050446Y0111764D01*
X0050484Y0111899D01*
X0050525Y0112033D01*
X0050570Y0112166D01*
X0050618Y0112297D01*
X0050671Y0112426D01*
X0050727Y0112555D01*
X0050786Y0112681D01*
X0050850Y0112806D01*
X0050916Y0112929D01*
X0050987Y0113050D01*
X0051060Y0113169D01*
X0051137Y0113286D01*
X0051218Y0113400D01*
X0051301Y0113512D01*
X0051388Y0113622D01*
X0051478Y0113730D01*
X0051570Y0113834D01*
X0051666Y0113936D01*
X0051765Y0114036D01*
X0051866Y0114132D01*
X0051970Y0114226D01*
X0052077Y0114316D01*
X0052186Y0114403D01*
X0052298Y0114488D01*
X0052412Y0114569D01*
X0052528Y0114647D01*
X0052646Y0114721D01*
X0052767Y0114792D01*
X0052889Y0114860D01*
X0053014Y0114924D01*
X0053140Y0114985D01*
X0053267Y0115042D01*
X0053397Y0115095D01*
X0053528Y0115145D01*
X0053660Y0115190D01*
X0053793Y0115233D01*
X0053928Y0115271D01*
X0054063Y0115305D01*
X0054200Y0115336D01*
X0054337Y0115363D01*
X0054475Y0115385D01*
X0054614Y0115404D01*
X0054753Y0115419D01*
X0054892Y0115430D01*
X0055032Y0115437D01*
X0055172Y0115440D01*
X0055312Y0115439D01*
X0055452Y0115434D01*
X0055591Y0115425D01*
X0055731Y0115412D01*
X0055870Y0115395D01*
X0056008Y0115374D01*
X0056146Y0115350D01*
X0056283Y0115321D01*
X0056419Y0115289D01*
X0056554Y0115252D01*
X0056688Y0115212D01*
X0056821Y0115168D01*
X0056952Y0115120D01*
X0057082Y0115069D01*
X0057211Y0115014D01*
X0057338Y0114955D01*
X0057463Y0114892D01*
X0057586Y0114827D01*
X0057708Y0114757D01*
X0057827Y0114684D01*
X0057945Y0114608D01*
X0058060Y0114529D01*
X0058173Y0114446D01*
X0058283Y0114360D01*
X0058391Y0114271D01*
X0058496Y0114179D01*
X0058599Y0114084D01*
X0058699Y0113986D01*
X0058796Y0113886D01*
X0058890Y0113782D01*
X0058982Y0113676D01*
X0059070Y0113568D01*
X0059155Y0113457D01*
X0059237Y0113343D01*
X0059316Y0113227D01*
X0059391Y0113110D01*
X0059463Y0112990D01*
X0059531Y0112868D01*
X0059596Y0112744D01*
X0059658Y0112618D01*
X0059716Y0112491D01*
X0059770Y0112362D01*
X0059821Y0112231D01*
X0059867Y0112099D01*
X0059910Y0111966D01*
X0059950Y0111832D01*
X0059985Y0111697D01*
X0060017Y0111560D01*
X0060044Y0111423D01*
X0060068Y0111285D01*
X0060088Y0111147D01*
X0060104Y0111008D01*
X0060116Y0110868D01*
X0060124Y0110729D01*
X0060128Y0110589D01*
X0060128Y0110449D01*
X0060124Y0110309D01*
X0060116Y0110170D01*
X0060104Y0110030D01*
X0060088Y0109891D01*
X0060068Y0109753D01*
X0060044Y0109615D01*
X0060017Y0109478D01*
X0059985Y0109341D01*
X0059950Y0109206D01*
X0059910Y0109072D01*
X0059867Y0108939D01*
X0059821Y0108807D01*
X0059770Y0108676D01*
X0059716Y0108547D01*
X0059658Y0108420D01*
X0059596Y0108294D01*
X0059531Y0108170D01*
X0059463Y0108048D01*
X0059391Y0107928D01*
X0059316Y0107811D01*
X0059237Y0107695D01*
X0059155Y0107581D01*
X0059070Y0107470D01*
X0058982Y0107362D01*
X0058890Y0107256D01*
X0058796Y0107152D01*
X0058699Y0107052D01*
X0058599Y0106954D01*
X0058496Y0106859D01*
X0058391Y0106767D01*
X0058283Y0106678D01*
X0058173Y0106592D01*
X0058060Y0106509D01*
X0057945Y0106430D01*
X0057827Y0106354D01*
X0057708Y0106281D01*
X0057586Y0106211D01*
X0057463Y0106146D01*
X0057338Y0106083D01*
X0057211Y0106024D01*
X0057082Y0105969D01*
X0056952Y0105918D01*
X0056821Y0105870D01*
X0056688Y0105826D01*
X0056554Y0105786D01*
X0056419Y0105749D01*
X0056283Y0105717D01*
X0056146Y0105688D01*
X0056008Y0105664D01*
X0055870Y0105643D01*
X0055731Y0105626D01*
X0055591Y0105613D01*
X0055452Y0105604D01*
X0055312Y0105599D01*
X0055172Y0105598D01*
X0055032Y0105601D01*
X0054892Y0105608D01*
X0054753Y0105619D01*
X0054614Y0105634D01*
X0054475Y0105653D01*
X0054337Y0105675D01*
X0054200Y0105702D01*
X0054063Y0105733D01*
X0053928Y0105767D01*
X0053793Y0105805D01*
X0053660Y0105848D01*
X0053528Y0105893D01*
X0053397Y0105943D01*
X0053267Y0105996D01*
X0053140Y0106053D01*
X0053014Y0106114D01*
X0052889Y0106178D01*
X0052767Y0106246D01*
X0052646Y0106317D01*
X0052528Y0106391D01*
X0052412Y0106469D01*
X0052298Y0106550D01*
X0052186Y0106635D01*
X0052077Y0106722D01*
X0051970Y0106812D01*
X0051866Y0106906D01*
X0051765Y0107002D01*
X0051666Y0107102D01*
X0051570Y0107204D01*
X0051478Y0107308D01*
X0051388Y0107416D01*
X0051301Y0107526D01*
X0051218Y0107638D01*
X0051137Y0107752D01*
X0051060Y0107869D01*
X0050987Y0107988D01*
X0050916Y0108109D01*
X0050850Y0108232D01*
X0050786Y0108357D01*
X0050727Y0108483D01*
X0050671Y0108612D01*
X0050618Y0108741D01*
X0050570Y0108872D01*
X0050525Y0109005D01*
X0050484Y0109139D01*
X0050446Y0109274D01*
X0050413Y0109409D01*
X0050383Y0109546D01*
X0050357Y0109684D01*
X0050336Y0109822D01*
X0050318Y0109961D01*
X0050304Y0110100D01*
X0050294Y0110239D01*
X0050288Y0110379D01*
X0050286Y0110519D01*
X0017790Y0115245D02*
X0017792Y0115438D01*
X0017799Y0115631D01*
X0017811Y0115824D01*
X0017828Y0116017D01*
X0017849Y0116209D01*
X0017875Y0116400D01*
X0017906Y0116591D01*
X0017941Y0116781D01*
X0017981Y0116970D01*
X0018026Y0117158D01*
X0018075Y0117345D01*
X0018129Y0117531D01*
X0018187Y0117715D01*
X0018250Y0117898D01*
X0018318Y0118079D01*
X0018389Y0118258D01*
X0018466Y0118436D01*
X0018546Y0118612D01*
X0018631Y0118785D01*
X0018720Y0118957D01*
X0018813Y0119126D01*
X0018910Y0119293D01*
X0019012Y0119458D01*
X0019117Y0119620D01*
X0019226Y0119779D01*
X0019340Y0119936D01*
X0019457Y0120089D01*
X0019577Y0120240D01*
X0019702Y0120388D01*
X0019830Y0120533D01*
X0019961Y0120674D01*
X0020096Y0120813D01*
X0020235Y0120948D01*
X0020376Y0121079D01*
X0020521Y0121207D01*
X0020669Y0121332D01*
X0020820Y0121452D01*
X0020973Y0121569D01*
X0021130Y0121683D01*
X0021289Y0121792D01*
X0021451Y0121897D01*
X0021616Y0121999D01*
X0021783Y0122096D01*
X0021952Y0122189D01*
X0022124Y0122278D01*
X0022297Y0122363D01*
X0022473Y0122443D01*
X0022651Y0122520D01*
X0022830Y0122591D01*
X0023011Y0122659D01*
X0023194Y0122722D01*
X0023378Y0122780D01*
X0023564Y0122834D01*
X0023751Y0122883D01*
X0023939Y0122928D01*
X0024128Y0122968D01*
X0024318Y0123003D01*
X0024509Y0123034D01*
X0024700Y0123060D01*
X0024892Y0123081D01*
X0025085Y0123098D01*
X0025278Y0123110D01*
X0025471Y0123117D01*
X0025664Y0123119D01*
X0025857Y0123117D01*
X0026050Y0123110D01*
X0026243Y0123098D01*
X0026436Y0123081D01*
X0026628Y0123060D01*
X0026819Y0123034D01*
X0027010Y0123003D01*
X0027200Y0122968D01*
X0027389Y0122928D01*
X0027577Y0122883D01*
X0027764Y0122834D01*
X0027950Y0122780D01*
X0028134Y0122722D01*
X0028317Y0122659D01*
X0028498Y0122591D01*
X0028677Y0122520D01*
X0028855Y0122443D01*
X0029031Y0122363D01*
X0029204Y0122278D01*
X0029376Y0122189D01*
X0029545Y0122096D01*
X0029712Y0121999D01*
X0029877Y0121897D01*
X0030039Y0121792D01*
X0030198Y0121683D01*
X0030355Y0121569D01*
X0030508Y0121452D01*
X0030659Y0121332D01*
X0030807Y0121207D01*
X0030952Y0121079D01*
X0031093Y0120948D01*
X0031232Y0120813D01*
X0031367Y0120674D01*
X0031498Y0120533D01*
X0031626Y0120388D01*
X0031751Y0120240D01*
X0031871Y0120089D01*
X0031988Y0119936D01*
X0032102Y0119779D01*
X0032211Y0119620D01*
X0032316Y0119458D01*
X0032418Y0119293D01*
X0032515Y0119126D01*
X0032608Y0118957D01*
X0032697Y0118785D01*
X0032782Y0118612D01*
X0032862Y0118436D01*
X0032939Y0118258D01*
X0033010Y0118079D01*
X0033078Y0117898D01*
X0033141Y0117715D01*
X0033199Y0117531D01*
X0033253Y0117345D01*
X0033302Y0117158D01*
X0033347Y0116970D01*
X0033387Y0116781D01*
X0033422Y0116591D01*
X0033453Y0116400D01*
X0033479Y0116209D01*
X0033500Y0116017D01*
X0033517Y0115824D01*
X0033529Y0115631D01*
X0033536Y0115438D01*
X0033538Y0115245D01*
X0033536Y0115052D01*
X0033529Y0114859D01*
X0033517Y0114666D01*
X0033500Y0114473D01*
X0033479Y0114281D01*
X0033453Y0114090D01*
X0033422Y0113899D01*
X0033387Y0113709D01*
X0033347Y0113520D01*
X0033302Y0113332D01*
X0033253Y0113145D01*
X0033199Y0112959D01*
X0033141Y0112775D01*
X0033078Y0112592D01*
X0033010Y0112411D01*
X0032939Y0112232D01*
X0032862Y0112054D01*
X0032782Y0111878D01*
X0032697Y0111705D01*
X0032608Y0111533D01*
X0032515Y0111364D01*
X0032418Y0111197D01*
X0032316Y0111032D01*
X0032211Y0110870D01*
X0032102Y0110711D01*
X0031988Y0110554D01*
X0031871Y0110401D01*
X0031751Y0110250D01*
X0031626Y0110102D01*
X0031498Y0109957D01*
X0031367Y0109816D01*
X0031232Y0109677D01*
X0031093Y0109542D01*
X0030952Y0109411D01*
X0030807Y0109283D01*
X0030659Y0109158D01*
X0030508Y0109038D01*
X0030355Y0108921D01*
X0030198Y0108807D01*
X0030039Y0108698D01*
X0029877Y0108593D01*
X0029712Y0108491D01*
X0029545Y0108394D01*
X0029376Y0108301D01*
X0029204Y0108212D01*
X0029031Y0108127D01*
X0028855Y0108047D01*
X0028677Y0107970D01*
X0028498Y0107899D01*
X0028317Y0107831D01*
X0028134Y0107768D01*
X0027950Y0107710D01*
X0027764Y0107656D01*
X0027577Y0107607D01*
X0027389Y0107562D01*
X0027200Y0107522D01*
X0027010Y0107487D01*
X0026819Y0107456D01*
X0026628Y0107430D01*
X0026436Y0107409D01*
X0026243Y0107392D01*
X0026050Y0107380D01*
X0025857Y0107373D01*
X0025664Y0107371D01*
X0025471Y0107373D01*
X0025278Y0107380D01*
X0025085Y0107392D01*
X0024892Y0107409D01*
X0024700Y0107430D01*
X0024509Y0107456D01*
X0024318Y0107487D01*
X0024128Y0107522D01*
X0023939Y0107562D01*
X0023751Y0107607D01*
X0023564Y0107656D01*
X0023378Y0107710D01*
X0023194Y0107768D01*
X0023011Y0107831D01*
X0022830Y0107899D01*
X0022651Y0107970D01*
X0022473Y0108047D01*
X0022297Y0108127D01*
X0022124Y0108212D01*
X0021952Y0108301D01*
X0021783Y0108394D01*
X0021616Y0108491D01*
X0021451Y0108593D01*
X0021289Y0108698D01*
X0021130Y0108807D01*
X0020973Y0108921D01*
X0020820Y0109038D01*
X0020669Y0109158D01*
X0020521Y0109283D01*
X0020376Y0109411D01*
X0020235Y0109542D01*
X0020096Y0109677D01*
X0019961Y0109816D01*
X0019830Y0109957D01*
X0019702Y0110102D01*
X0019577Y0110250D01*
X0019457Y0110401D01*
X0019340Y0110554D01*
X0019226Y0110711D01*
X0019117Y0110870D01*
X0019012Y0111032D01*
X0018910Y0111197D01*
X0018813Y0111364D01*
X0018720Y0111533D01*
X0018631Y0111705D01*
X0018546Y0111878D01*
X0018466Y0112054D01*
X0018389Y0112232D01*
X0018318Y0112411D01*
X0018250Y0112592D01*
X0018187Y0112775D01*
X0018129Y0112959D01*
X0018075Y0113145D01*
X0018026Y0113332D01*
X0017981Y0113520D01*
X0017941Y0113709D01*
X0017906Y0113899D01*
X0017875Y0114090D01*
X0017849Y0114281D01*
X0017828Y0114473D01*
X0017811Y0114666D01*
X0017799Y0114859D01*
X0017792Y0115052D01*
X0017790Y0115245D01*
X0041425Y0218445D02*
X0046349Y0219313D01*
X0046445Y0219332D01*
X0046541Y0219355D01*
X0046635Y0219381D01*
X0046729Y0219411D01*
X0046821Y0219445D01*
X0046912Y0219482D01*
X0047001Y0219523D01*
X0047089Y0219568D01*
X0047174Y0219615D01*
X0047258Y0219667D01*
X0047340Y0219721D01*
X0047420Y0219778D01*
X0047497Y0219839D01*
X0047572Y0219903D01*
X0047644Y0219969D01*
X0047713Y0220038D01*
X0047780Y0220110D01*
X0047844Y0220185D01*
X0047905Y0220262D01*
X0047963Y0220341D01*
X0048018Y0220423D01*
X0048069Y0220506D01*
X0048117Y0220592D01*
X0048162Y0220679D01*
X0048203Y0220768D01*
X0048241Y0220859D01*
X0048275Y0220951D01*
X0048306Y0221044D01*
X0048333Y0221138D01*
X0048356Y0221234D01*
X0048375Y0221330D01*
X0048391Y0221427D01*
X0048402Y0221525D01*
X0048410Y0221622D01*
X0048414Y0221720D01*
X0048415Y0221819D01*
X0048411Y0221917D01*
X0048403Y0222015D01*
X0048392Y0222112D01*
X0048377Y0222209D01*
X0046640Y0232057D01*
X0046621Y0232153D01*
X0046598Y0232249D01*
X0046572Y0232343D01*
X0046542Y0232437D01*
X0046508Y0232529D01*
X0046471Y0232620D01*
X0046430Y0232709D01*
X0046385Y0232797D01*
X0046338Y0232882D01*
X0046286Y0232966D01*
X0046232Y0233048D01*
X0046175Y0233128D01*
X0046114Y0233205D01*
X0046050Y0233280D01*
X0045984Y0233352D01*
X0045915Y0233421D01*
X0045843Y0233488D01*
X0045768Y0233552D01*
X0045691Y0233613D01*
X0045612Y0233671D01*
X0045530Y0233726D01*
X0045447Y0233777D01*
X0045361Y0233825D01*
X0045274Y0233870D01*
X0045185Y0233911D01*
X0045094Y0233949D01*
X0045002Y0233983D01*
X0044909Y0234014D01*
X0044815Y0234041D01*
X0044719Y0234064D01*
X0044623Y0234083D01*
X0044526Y0234099D01*
X0044428Y0234110D01*
X0044331Y0234118D01*
X0044233Y0234122D01*
X0044134Y0234123D01*
X0044036Y0234119D01*
X0043938Y0234111D01*
X0043841Y0234100D01*
X0043744Y0234085D01*
X0038820Y0233217D01*
X0038724Y0233198D01*
X0038628Y0233175D01*
X0038534Y0233149D01*
X0038440Y0233119D01*
X0038348Y0233085D01*
X0038257Y0233048D01*
X0038168Y0233007D01*
X0038080Y0232962D01*
X0037995Y0232915D01*
X0037911Y0232863D01*
X0037829Y0232809D01*
X0037749Y0232752D01*
X0037672Y0232691D01*
X0037597Y0232627D01*
X0037525Y0232561D01*
X0037456Y0232492D01*
X0037389Y0232420D01*
X0037325Y0232345D01*
X0037264Y0232268D01*
X0037206Y0232189D01*
X0037151Y0232107D01*
X0037100Y0232024D01*
X0037052Y0231938D01*
X0037007Y0231851D01*
X0036966Y0231762D01*
X0036928Y0231671D01*
X0036894Y0231579D01*
X0036863Y0231486D01*
X0036836Y0231391D01*
X0036813Y0231296D01*
X0036794Y0231200D01*
X0036778Y0231103D01*
X0036767Y0231005D01*
X0036759Y0230908D01*
X0036755Y0230810D01*
X0036754Y0230711D01*
X0036758Y0230613D01*
X0036766Y0230515D01*
X0036777Y0230418D01*
X0036792Y0230321D01*
X0038529Y0220473D01*
X0038548Y0220377D01*
X0038571Y0220281D01*
X0038597Y0220187D01*
X0038627Y0220093D01*
X0038661Y0220001D01*
X0038698Y0219910D01*
X0038739Y0219821D01*
X0038784Y0219733D01*
X0038831Y0219648D01*
X0038883Y0219564D01*
X0038937Y0219482D01*
X0038994Y0219402D01*
X0039055Y0219325D01*
X0039119Y0219250D01*
X0039185Y0219178D01*
X0039254Y0219109D01*
X0039326Y0219042D01*
X0039401Y0218978D01*
X0039478Y0218917D01*
X0039557Y0218859D01*
X0039639Y0218804D01*
X0039722Y0218753D01*
X0039808Y0218705D01*
X0039895Y0218660D01*
X0039984Y0218619D01*
X0040075Y0218581D01*
X0040167Y0218547D01*
X0040260Y0218516D01*
X0040354Y0218489D01*
X0040450Y0218466D01*
X0040546Y0218447D01*
X0040643Y0218431D01*
X0040741Y0218420D01*
X0040838Y0218412D01*
X0040936Y0218408D01*
X0041035Y0218407D01*
X0041133Y0218411D01*
X0041231Y0218419D01*
X0041328Y0218430D01*
X0041425Y0218445D01*
X0081008Y0226182D02*
X0081010Y0226335D01*
X0081016Y0226489D01*
X0081026Y0226642D01*
X0081040Y0226794D01*
X0081058Y0226947D01*
X0081080Y0227098D01*
X0081105Y0227249D01*
X0081135Y0227400D01*
X0081169Y0227550D01*
X0081206Y0227698D01*
X0081247Y0227846D01*
X0081292Y0227992D01*
X0081341Y0228138D01*
X0081394Y0228282D01*
X0081450Y0228424D01*
X0081510Y0228565D01*
X0081574Y0228705D01*
X0081641Y0228843D01*
X0081712Y0228979D01*
X0081787Y0229113D01*
X0081864Y0229245D01*
X0081946Y0229375D01*
X0082030Y0229503D01*
X0082118Y0229629D01*
X0082209Y0229752D01*
X0082303Y0229873D01*
X0082401Y0229991D01*
X0082501Y0230107D01*
X0082605Y0230220D01*
X0082711Y0230331D01*
X0082820Y0230439D01*
X0082932Y0230544D01*
X0083046Y0230645D01*
X0083164Y0230744D01*
X0083283Y0230840D01*
X0083405Y0230933D01*
X0083530Y0231022D01*
X0083657Y0231109D01*
X0083786Y0231191D01*
X0083917Y0231271D01*
X0084050Y0231347D01*
X0084185Y0231420D01*
X0084322Y0231489D01*
X0084461Y0231554D01*
X0084601Y0231616D01*
X0084743Y0231674D01*
X0084886Y0231729D01*
X0085031Y0231780D01*
X0085177Y0231827D01*
X0085324Y0231870D01*
X0085472Y0231909D01*
X0085621Y0231945D01*
X0085771Y0231976D01*
X0085922Y0232004D01*
X0086073Y0232028D01*
X0086226Y0232048D01*
X0086378Y0232064D01*
X0086531Y0232076D01*
X0086684Y0232084D01*
X0086837Y0232088D01*
X0086991Y0232088D01*
X0087144Y0232084D01*
X0087297Y0232076D01*
X0087450Y0232064D01*
X0087602Y0232048D01*
X0087755Y0232028D01*
X0087906Y0232004D01*
X0088057Y0231976D01*
X0088207Y0231945D01*
X0088356Y0231909D01*
X0088504Y0231870D01*
X0088651Y0231827D01*
X0088797Y0231780D01*
X0088942Y0231729D01*
X0089085Y0231674D01*
X0089227Y0231616D01*
X0089367Y0231554D01*
X0089506Y0231489D01*
X0089643Y0231420D01*
X0089778Y0231347D01*
X0089911Y0231271D01*
X0090042Y0231191D01*
X0090171Y0231109D01*
X0090298Y0231022D01*
X0090423Y0230933D01*
X0090545Y0230840D01*
X0090664Y0230744D01*
X0090782Y0230645D01*
X0090896Y0230544D01*
X0091008Y0230439D01*
X0091117Y0230331D01*
X0091223Y0230220D01*
X0091327Y0230107D01*
X0091427Y0229991D01*
X0091525Y0229873D01*
X0091619Y0229752D01*
X0091710Y0229629D01*
X0091798Y0229503D01*
X0091882Y0229375D01*
X0091964Y0229245D01*
X0092041Y0229113D01*
X0092116Y0228979D01*
X0092187Y0228843D01*
X0092254Y0228705D01*
X0092318Y0228565D01*
X0092378Y0228424D01*
X0092434Y0228282D01*
X0092487Y0228138D01*
X0092536Y0227992D01*
X0092581Y0227846D01*
X0092622Y0227698D01*
X0092659Y0227550D01*
X0092693Y0227400D01*
X0092723Y0227249D01*
X0092748Y0227098D01*
X0092770Y0226947D01*
X0092788Y0226794D01*
X0092802Y0226642D01*
X0092812Y0226489D01*
X0092818Y0226335D01*
X0092820Y0226182D01*
X0092818Y0226029D01*
X0092812Y0225875D01*
X0092802Y0225722D01*
X0092788Y0225570D01*
X0092770Y0225417D01*
X0092748Y0225266D01*
X0092723Y0225115D01*
X0092693Y0224964D01*
X0092659Y0224814D01*
X0092622Y0224666D01*
X0092581Y0224518D01*
X0092536Y0224372D01*
X0092487Y0224226D01*
X0092434Y0224082D01*
X0092378Y0223940D01*
X0092318Y0223799D01*
X0092254Y0223659D01*
X0092187Y0223521D01*
X0092116Y0223385D01*
X0092041Y0223251D01*
X0091964Y0223119D01*
X0091882Y0222989D01*
X0091798Y0222861D01*
X0091710Y0222735D01*
X0091619Y0222612D01*
X0091525Y0222491D01*
X0091427Y0222373D01*
X0091327Y0222257D01*
X0091223Y0222144D01*
X0091117Y0222033D01*
X0091008Y0221925D01*
X0090896Y0221820D01*
X0090782Y0221719D01*
X0090664Y0221620D01*
X0090545Y0221524D01*
X0090423Y0221431D01*
X0090298Y0221342D01*
X0090171Y0221255D01*
X0090042Y0221173D01*
X0089911Y0221093D01*
X0089778Y0221017D01*
X0089643Y0220944D01*
X0089506Y0220875D01*
X0089367Y0220810D01*
X0089227Y0220748D01*
X0089085Y0220690D01*
X0088942Y0220635D01*
X0088797Y0220584D01*
X0088651Y0220537D01*
X0088504Y0220494D01*
X0088356Y0220455D01*
X0088207Y0220419D01*
X0088057Y0220388D01*
X0087906Y0220360D01*
X0087755Y0220336D01*
X0087602Y0220316D01*
X0087450Y0220300D01*
X0087297Y0220288D01*
X0087144Y0220280D01*
X0086991Y0220276D01*
X0086837Y0220276D01*
X0086684Y0220280D01*
X0086531Y0220288D01*
X0086378Y0220300D01*
X0086226Y0220316D01*
X0086073Y0220336D01*
X0085922Y0220360D01*
X0085771Y0220388D01*
X0085621Y0220419D01*
X0085472Y0220455D01*
X0085324Y0220494D01*
X0085177Y0220537D01*
X0085031Y0220584D01*
X0084886Y0220635D01*
X0084743Y0220690D01*
X0084601Y0220748D01*
X0084461Y0220810D01*
X0084322Y0220875D01*
X0084185Y0220944D01*
X0084050Y0221017D01*
X0083917Y0221093D01*
X0083786Y0221173D01*
X0083657Y0221255D01*
X0083530Y0221342D01*
X0083405Y0221431D01*
X0083283Y0221524D01*
X0083164Y0221620D01*
X0083046Y0221719D01*
X0082932Y0221820D01*
X0082820Y0221925D01*
X0082711Y0222033D01*
X0082605Y0222144D01*
X0082501Y0222257D01*
X0082401Y0222373D01*
X0082303Y0222491D01*
X0082209Y0222612D01*
X0082118Y0222735D01*
X0082030Y0222861D01*
X0081946Y0222989D01*
X0081864Y0223119D01*
X0081787Y0223251D01*
X0081712Y0223385D01*
X0081641Y0223521D01*
X0081574Y0223659D01*
X0081510Y0223799D01*
X0081450Y0223940D01*
X0081394Y0224082D01*
X0081341Y0224226D01*
X0081292Y0224372D01*
X0081247Y0224518D01*
X0081206Y0224666D01*
X0081169Y0224814D01*
X0081135Y0224964D01*
X0081105Y0225115D01*
X0081080Y0225266D01*
X0081058Y0225417D01*
X0081040Y0225570D01*
X0081026Y0225722D01*
X0081016Y0225875D01*
X0081010Y0226029D01*
X0081008Y0226182D01*
X0122224Y0280733D02*
X0122226Y0280874D01*
X0122232Y0281015D01*
X0122242Y0281155D01*
X0122256Y0281295D01*
X0122274Y0281435D01*
X0122295Y0281574D01*
X0122321Y0281713D01*
X0122350Y0281851D01*
X0122384Y0281987D01*
X0122421Y0282123D01*
X0122462Y0282258D01*
X0122507Y0282392D01*
X0122556Y0282524D01*
X0122608Y0282655D01*
X0122664Y0282784D01*
X0122724Y0282911D01*
X0122787Y0283037D01*
X0122853Y0283161D01*
X0122924Y0283284D01*
X0122997Y0283404D01*
X0123074Y0283522D01*
X0123154Y0283638D01*
X0123238Y0283751D01*
X0123324Y0283862D01*
X0123414Y0283971D01*
X0123507Y0284077D01*
X0123602Y0284180D01*
X0123701Y0284281D01*
X0123802Y0284379D01*
X0123906Y0284474D01*
X0124013Y0284566D01*
X0124122Y0284655D01*
X0124234Y0284740D01*
X0124348Y0284823D01*
X0124464Y0284903D01*
X0124583Y0284979D01*
X0124704Y0285051D01*
X0124826Y0285121D01*
X0124951Y0285186D01*
X0125077Y0285249D01*
X0125205Y0285307D01*
X0125335Y0285362D01*
X0125466Y0285414D01*
X0125599Y0285461D01*
X0125733Y0285505D01*
X0125868Y0285546D01*
X0126004Y0285582D01*
X0126141Y0285614D01*
X0126279Y0285643D01*
X0126417Y0285668D01*
X0126557Y0285688D01*
X0126697Y0285705D01*
X0126837Y0285718D01*
X0126978Y0285727D01*
X0127118Y0285732D01*
X0127259Y0285733D01*
X0127400Y0285730D01*
X0127541Y0285723D01*
X0127681Y0285712D01*
X0127821Y0285697D01*
X0127961Y0285678D01*
X0128100Y0285656D01*
X0128238Y0285629D01*
X0128376Y0285599D01*
X0128512Y0285564D01*
X0128648Y0285526D01*
X0128782Y0285484D01*
X0128916Y0285438D01*
X0129048Y0285389D01*
X0129178Y0285335D01*
X0129307Y0285278D01*
X0129434Y0285218D01*
X0129560Y0285154D01*
X0129683Y0285086D01*
X0129805Y0285015D01*
X0129925Y0284941D01*
X0130042Y0284863D01*
X0130157Y0284782D01*
X0130270Y0284698D01*
X0130381Y0284611D01*
X0130489Y0284520D01*
X0130594Y0284427D01*
X0130697Y0284330D01*
X0130797Y0284231D01*
X0130894Y0284129D01*
X0130988Y0284024D01*
X0131079Y0283917D01*
X0131167Y0283807D01*
X0131252Y0283695D01*
X0131334Y0283580D01*
X0131413Y0283463D01*
X0131488Y0283344D01*
X0131560Y0283223D01*
X0131628Y0283100D01*
X0131693Y0282975D01*
X0131755Y0282848D01*
X0131812Y0282719D01*
X0131867Y0282589D01*
X0131917Y0282458D01*
X0131964Y0282325D01*
X0132007Y0282191D01*
X0132046Y0282055D01*
X0132081Y0281919D01*
X0132113Y0281782D01*
X0132140Y0281644D01*
X0132164Y0281505D01*
X0132184Y0281365D01*
X0132200Y0281225D01*
X0132212Y0281085D01*
X0132220Y0280944D01*
X0132224Y0280803D01*
X0132224Y0280663D01*
X0132220Y0280522D01*
X0132212Y0280381D01*
X0132200Y0280241D01*
X0132184Y0280101D01*
X0132164Y0279961D01*
X0132140Y0279822D01*
X0132113Y0279684D01*
X0132081Y0279547D01*
X0132046Y0279411D01*
X0132007Y0279275D01*
X0131964Y0279141D01*
X0131917Y0279008D01*
X0131867Y0278877D01*
X0131812Y0278747D01*
X0131755Y0278618D01*
X0131693Y0278491D01*
X0131628Y0278366D01*
X0131560Y0278243D01*
X0131488Y0278122D01*
X0131413Y0278003D01*
X0131334Y0277886D01*
X0131252Y0277771D01*
X0131167Y0277659D01*
X0131079Y0277549D01*
X0130988Y0277442D01*
X0130894Y0277337D01*
X0130797Y0277235D01*
X0130697Y0277136D01*
X0130594Y0277039D01*
X0130489Y0276946D01*
X0130381Y0276855D01*
X0130270Y0276768D01*
X0130157Y0276684D01*
X0130042Y0276603D01*
X0129925Y0276525D01*
X0129805Y0276451D01*
X0129683Y0276380D01*
X0129560Y0276312D01*
X0129434Y0276248D01*
X0129307Y0276188D01*
X0129178Y0276131D01*
X0129048Y0276077D01*
X0128916Y0276028D01*
X0128782Y0275982D01*
X0128648Y0275940D01*
X0128512Y0275902D01*
X0128376Y0275867D01*
X0128238Y0275837D01*
X0128100Y0275810D01*
X0127961Y0275788D01*
X0127821Y0275769D01*
X0127681Y0275754D01*
X0127541Y0275743D01*
X0127400Y0275736D01*
X0127259Y0275733D01*
X0127118Y0275734D01*
X0126978Y0275739D01*
X0126837Y0275748D01*
X0126697Y0275761D01*
X0126557Y0275778D01*
X0126417Y0275798D01*
X0126279Y0275823D01*
X0126141Y0275852D01*
X0126004Y0275884D01*
X0125868Y0275920D01*
X0125733Y0275961D01*
X0125599Y0276005D01*
X0125466Y0276052D01*
X0125335Y0276104D01*
X0125205Y0276159D01*
X0125077Y0276217D01*
X0124951Y0276280D01*
X0124826Y0276345D01*
X0124704Y0276415D01*
X0124583Y0276487D01*
X0124464Y0276563D01*
X0124348Y0276643D01*
X0124234Y0276726D01*
X0124122Y0276811D01*
X0124013Y0276900D01*
X0123906Y0276992D01*
X0123802Y0277087D01*
X0123701Y0277185D01*
X0123602Y0277286D01*
X0123507Y0277389D01*
X0123414Y0277495D01*
X0123324Y0277604D01*
X0123238Y0277715D01*
X0123154Y0277828D01*
X0123074Y0277944D01*
X0122997Y0278062D01*
X0122924Y0278182D01*
X0122853Y0278305D01*
X0122787Y0278429D01*
X0122724Y0278555D01*
X0122664Y0278682D01*
X0122608Y0278811D01*
X0122556Y0278942D01*
X0122507Y0279074D01*
X0122462Y0279208D01*
X0122421Y0279343D01*
X0122384Y0279479D01*
X0122350Y0279615D01*
X0122321Y0279753D01*
X0122295Y0279892D01*
X0122274Y0280031D01*
X0122256Y0280171D01*
X0122242Y0280311D01*
X0122232Y0280451D01*
X0122226Y0280592D01*
X0122224Y0280733D01*
X0398390Y0280323D02*
X0398392Y0280464D01*
X0398398Y0280605D01*
X0398408Y0280745D01*
X0398422Y0280885D01*
X0398440Y0281025D01*
X0398461Y0281164D01*
X0398487Y0281303D01*
X0398516Y0281441D01*
X0398550Y0281577D01*
X0398587Y0281713D01*
X0398628Y0281848D01*
X0398673Y0281982D01*
X0398722Y0282114D01*
X0398774Y0282245D01*
X0398830Y0282374D01*
X0398890Y0282501D01*
X0398953Y0282627D01*
X0399019Y0282751D01*
X0399090Y0282874D01*
X0399163Y0282994D01*
X0399240Y0283112D01*
X0399320Y0283228D01*
X0399404Y0283341D01*
X0399490Y0283452D01*
X0399580Y0283561D01*
X0399673Y0283667D01*
X0399768Y0283770D01*
X0399867Y0283871D01*
X0399968Y0283969D01*
X0400072Y0284064D01*
X0400179Y0284156D01*
X0400288Y0284245D01*
X0400400Y0284330D01*
X0400514Y0284413D01*
X0400630Y0284493D01*
X0400749Y0284569D01*
X0400870Y0284641D01*
X0400992Y0284711D01*
X0401117Y0284776D01*
X0401243Y0284839D01*
X0401371Y0284897D01*
X0401501Y0284952D01*
X0401632Y0285004D01*
X0401765Y0285051D01*
X0401899Y0285095D01*
X0402034Y0285136D01*
X0402170Y0285172D01*
X0402307Y0285204D01*
X0402445Y0285233D01*
X0402583Y0285258D01*
X0402723Y0285278D01*
X0402863Y0285295D01*
X0403003Y0285308D01*
X0403144Y0285317D01*
X0403284Y0285322D01*
X0403425Y0285323D01*
X0403566Y0285320D01*
X0403707Y0285313D01*
X0403847Y0285302D01*
X0403987Y0285287D01*
X0404127Y0285268D01*
X0404266Y0285246D01*
X0404404Y0285219D01*
X0404542Y0285189D01*
X0404678Y0285154D01*
X0404814Y0285116D01*
X0404948Y0285074D01*
X0405082Y0285028D01*
X0405214Y0284979D01*
X0405344Y0284925D01*
X0405473Y0284868D01*
X0405600Y0284808D01*
X0405726Y0284744D01*
X0405849Y0284676D01*
X0405971Y0284605D01*
X0406091Y0284531D01*
X0406208Y0284453D01*
X0406323Y0284372D01*
X0406436Y0284288D01*
X0406547Y0284201D01*
X0406655Y0284110D01*
X0406760Y0284017D01*
X0406863Y0283920D01*
X0406963Y0283821D01*
X0407060Y0283719D01*
X0407154Y0283614D01*
X0407245Y0283507D01*
X0407333Y0283397D01*
X0407418Y0283285D01*
X0407500Y0283170D01*
X0407579Y0283053D01*
X0407654Y0282934D01*
X0407726Y0282813D01*
X0407794Y0282690D01*
X0407859Y0282565D01*
X0407921Y0282438D01*
X0407978Y0282309D01*
X0408033Y0282179D01*
X0408083Y0282048D01*
X0408130Y0281915D01*
X0408173Y0281781D01*
X0408212Y0281645D01*
X0408247Y0281509D01*
X0408279Y0281372D01*
X0408306Y0281234D01*
X0408330Y0281095D01*
X0408350Y0280955D01*
X0408366Y0280815D01*
X0408378Y0280675D01*
X0408386Y0280534D01*
X0408390Y0280393D01*
X0408390Y0280253D01*
X0408386Y0280112D01*
X0408378Y0279971D01*
X0408366Y0279831D01*
X0408350Y0279691D01*
X0408330Y0279551D01*
X0408306Y0279412D01*
X0408279Y0279274D01*
X0408247Y0279137D01*
X0408212Y0279001D01*
X0408173Y0278865D01*
X0408130Y0278731D01*
X0408083Y0278598D01*
X0408033Y0278467D01*
X0407978Y0278337D01*
X0407921Y0278208D01*
X0407859Y0278081D01*
X0407794Y0277956D01*
X0407726Y0277833D01*
X0407654Y0277712D01*
X0407579Y0277593D01*
X0407500Y0277476D01*
X0407418Y0277361D01*
X0407333Y0277249D01*
X0407245Y0277139D01*
X0407154Y0277032D01*
X0407060Y0276927D01*
X0406963Y0276825D01*
X0406863Y0276726D01*
X0406760Y0276629D01*
X0406655Y0276536D01*
X0406547Y0276445D01*
X0406436Y0276358D01*
X0406323Y0276274D01*
X0406208Y0276193D01*
X0406091Y0276115D01*
X0405971Y0276041D01*
X0405849Y0275970D01*
X0405726Y0275902D01*
X0405600Y0275838D01*
X0405473Y0275778D01*
X0405344Y0275721D01*
X0405214Y0275667D01*
X0405082Y0275618D01*
X0404948Y0275572D01*
X0404814Y0275530D01*
X0404678Y0275492D01*
X0404542Y0275457D01*
X0404404Y0275427D01*
X0404266Y0275400D01*
X0404127Y0275378D01*
X0403987Y0275359D01*
X0403847Y0275344D01*
X0403707Y0275333D01*
X0403566Y0275326D01*
X0403425Y0275323D01*
X0403284Y0275324D01*
X0403144Y0275329D01*
X0403003Y0275338D01*
X0402863Y0275351D01*
X0402723Y0275368D01*
X0402583Y0275388D01*
X0402445Y0275413D01*
X0402307Y0275442D01*
X0402170Y0275474D01*
X0402034Y0275510D01*
X0401899Y0275551D01*
X0401765Y0275595D01*
X0401632Y0275642D01*
X0401501Y0275694D01*
X0401371Y0275749D01*
X0401243Y0275807D01*
X0401117Y0275870D01*
X0400992Y0275935D01*
X0400870Y0276005D01*
X0400749Y0276077D01*
X0400630Y0276153D01*
X0400514Y0276233D01*
X0400400Y0276316D01*
X0400288Y0276401D01*
X0400179Y0276490D01*
X0400072Y0276582D01*
X0399968Y0276677D01*
X0399867Y0276775D01*
X0399768Y0276876D01*
X0399673Y0276979D01*
X0399580Y0277085D01*
X0399490Y0277194D01*
X0399404Y0277305D01*
X0399320Y0277418D01*
X0399240Y0277534D01*
X0399163Y0277652D01*
X0399090Y0277772D01*
X0399019Y0277895D01*
X0398953Y0278019D01*
X0398890Y0278145D01*
X0398830Y0278272D01*
X0398774Y0278401D01*
X0398722Y0278532D01*
X0398673Y0278664D01*
X0398628Y0278798D01*
X0398587Y0278933D01*
X0398550Y0279069D01*
X0398516Y0279205D01*
X0398487Y0279343D01*
X0398461Y0279482D01*
X0398440Y0279621D01*
X0398422Y0279761D01*
X0398408Y0279901D01*
X0398398Y0280041D01*
X0398392Y0280182D01*
X0398390Y0280323D01*
X0483376Y0231132D02*
X0481640Y0221284D01*
X0481625Y0221187D01*
X0481614Y0221090D01*
X0481606Y0220992D01*
X0481602Y0220894D01*
X0481603Y0220795D01*
X0481607Y0220697D01*
X0481615Y0220600D01*
X0481626Y0220502D01*
X0481642Y0220405D01*
X0481661Y0220309D01*
X0481684Y0220213D01*
X0481711Y0220119D01*
X0481742Y0220026D01*
X0481776Y0219934D01*
X0481814Y0219843D01*
X0481855Y0219754D01*
X0481900Y0219667D01*
X0481948Y0219581D01*
X0481999Y0219498D01*
X0482054Y0219416D01*
X0482112Y0219337D01*
X0482173Y0219260D01*
X0482237Y0219185D01*
X0482304Y0219113D01*
X0482373Y0219044D01*
X0482445Y0218978D01*
X0482520Y0218914D01*
X0482597Y0218853D01*
X0482677Y0218796D01*
X0482759Y0218742D01*
X0482843Y0218690D01*
X0482928Y0218643D01*
X0483016Y0218598D01*
X0483105Y0218557D01*
X0483196Y0218520D01*
X0483288Y0218486D01*
X0483382Y0218456D01*
X0483476Y0218430D01*
X0483572Y0218407D01*
X0483668Y0218388D01*
X0488592Y0217519D01*
X0488689Y0217504D01*
X0488786Y0217493D01*
X0488884Y0217485D01*
X0488982Y0217481D01*
X0489081Y0217482D01*
X0489179Y0217486D01*
X0489276Y0217494D01*
X0489374Y0217505D01*
X0489471Y0217521D01*
X0489567Y0217540D01*
X0489663Y0217563D01*
X0489757Y0217590D01*
X0489850Y0217621D01*
X0489942Y0217655D01*
X0490033Y0217693D01*
X0490122Y0217734D01*
X0490209Y0217779D01*
X0490295Y0217827D01*
X0490378Y0217878D01*
X0490460Y0217933D01*
X0490539Y0217991D01*
X0490616Y0218052D01*
X0490691Y0218116D01*
X0490763Y0218183D01*
X0490832Y0218252D01*
X0490898Y0218324D01*
X0490962Y0218399D01*
X0491023Y0218476D01*
X0491080Y0218556D01*
X0491134Y0218638D01*
X0491186Y0218722D01*
X0491233Y0218807D01*
X0491278Y0218895D01*
X0491319Y0218984D01*
X0491356Y0219075D01*
X0491390Y0219167D01*
X0491420Y0219261D01*
X0491446Y0219355D01*
X0491469Y0219451D01*
X0491488Y0219547D01*
X0493224Y0229395D01*
X0493239Y0229492D01*
X0493250Y0229589D01*
X0493258Y0229687D01*
X0493262Y0229785D01*
X0493261Y0229884D01*
X0493257Y0229982D01*
X0493249Y0230079D01*
X0493238Y0230177D01*
X0493222Y0230274D01*
X0493203Y0230370D01*
X0493180Y0230465D01*
X0493153Y0230560D01*
X0493122Y0230653D01*
X0493088Y0230745D01*
X0493050Y0230836D01*
X0493009Y0230925D01*
X0492964Y0231012D01*
X0492916Y0231098D01*
X0492865Y0231181D01*
X0492810Y0231263D01*
X0492752Y0231342D01*
X0492691Y0231419D01*
X0492627Y0231494D01*
X0492560Y0231566D01*
X0492491Y0231635D01*
X0492419Y0231701D01*
X0492344Y0231765D01*
X0492267Y0231826D01*
X0492187Y0231883D01*
X0492105Y0231937D01*
X0492021Y0231989D01*
X0491936Y0232036D01*
X0491848Y0232081D01*
X0491759Y0232122D01*
X0491668Y0232159D01*
X0491576Y0232193D01*
X0491482Y0232223D01*
X0491388Y0232249D01*
X0491292Y0232272D01*
X0491196Y0232291D01*
X0486272Y0233160D01*
X0486175Y0233175D01*
X0486078Y0233186D01*
X0485980Y0233194D01*
X0485882Y0233198D01*
X0485783Y0233197D01*
X0485685Y0233193D01*
X0485588Y0233185D01*
X0485490Y0233174D01*
X0485393Y0233158D01*
X0485297Y0233139D01*
X0485201Y0233116D01*
X0485107Y0233089D01*
X0485014Y0233058D01*
X0484922Y0233024D01*
X0484831Y0232986D01*
X0484742Y0232945D01*
X0484655Y0232900D01*
X0484569Y0232852D01*
X0484486Y0232801D01*
X0484404Y0232746D01*
X0484325Y0232688D01*
X0484248Y0232627D01*
X0484173Y0232563D01*
X0484101Y0232496D01*
X0484032Y0232427D01*
X0483966Y0232355D01*
X0483902Y0232280D01*
X0483841Y0232203D01*
X0483784Y0232123D01*
X0483730Y0232041D01*
X0483678Y0231957D01*
X0483631Y0231872D01*
X0483586Y0231784D01*
X0483545Y0231695D01*
X0483508Y0231604D01*
X0483474Y0231512D01*
X0483444Y0231418D01*
X0483418Y0231324D01*
X0483395Y0231228D01*
X0483376Y0231132D01*
X0436656Y0225964D02*
X0436658Y0226117D01*
X0436664Y0226271D01*
X0436674Y0226424D01*
X0436688Y0226576D01*
X0436706Y0226729D01*
X0436728Y0226880D01*
X0436753Y0227031D01*
X0436783Y0227182D01*
X0436817Y0227332D01*
X0436854Y0227480D01*
X0436895Y0227628D01*
X0436940Y0227774D01*
X0436989Y0227920D01*
X0437042Y0228064D01*
X0437098Y0228206D01*
X0437158Y0228347D01*
X0437222Y0228487D01*
X0437289Y0228625D01*
X0437360Y0228761D01*
X0437435Y0228895D01*
X0437512Y0229027D01*
X0437594Y0229157D01*
X0437678Y0229285D01*
X0437766Y0229411D01*
X0437857Y0229534D01*
X0437951Y0229655D01*
X0438049Y0229773D01*
X0438149Y0229889D01*
X0438253Y0230002D01*
X0438359Y0230113D01*
X0438468Y0230221D01*
X0438580Y0230326D01*
X0438694Y0230427D01*
X0438812Y0230526D01*
X0438931Y0230622D01*
X0439053Y0230715D01*
X0439178Y0230804D01*
X0439305Y0230891D01*
X0439434Y0230973D01*
X0439565Y0231053D01*
X0439698Y0231129D01*
X0439833Y0231202D01*
X0439970Y0231271D01*
X0440109Y0231336D01*
X0440249Y0231398D01*
X0440391Y0231456D01*
X0440534Y0231511D01*
X0440679Y0231562D01*
X0440825Y0231609D01*
X0440972Y0231652D01*
X0441120Y0231691D01*
X0441269Y0231727D01*
X0441419Y0231758D01*
X0441570Y0231786D01*
X0441721Y0231810D01*
X0441874Y0231830D01*
X0442026Y0231846D01*
X0442179Y0231858D01*
X0442332Y0231866D01*
X0442485Y0231870D01*
X0442639Y0231870D01*
X0442792Y0231866D01*
X0442945Y0231858D01*
X0443098Y0231846D01*
X0443250Y0231830D01*
X0443403Y0231810D01*
X0443554Y0231786D01*
X0443705Y0231758D01*
X0443855Y0231727D01*
X0444004Y0231691D01*
X0444152Y0231652D01*
X0444299Y0231609D01*
X0444445Y0231562D01*
X0444590Y0231511D01*
X0444733Y0231456D01*
X0444875Y0231398D01*
X0445015Y0231336D01*
X0445154Y0231271D01*
X0445291Y0231202D01*
X0445426Y0231129D01*
X0445559Y0231053D01*
X0445690Y0230973D01*
X0445819Y0230891D01*
X0445946Y0230804D01*
X0446071Y0230715D01*
X0446193Y0230622D01*
X0446312Y0230526D01*
X0446430Y0230427D01*
X0446544Y0230326D01*
X0446656Y0230221D01*
X0446765Y0230113D01*
X0446871Y0230002D01*
X0446975Y0229889D01*
X0447075Y0229773D01*
X0447173Y0229655D01*
X0447267Y0229534D01*
X0447358Y0229411D01*
X0447446Y0229285D01*
X0447530Y0229157D01*
X0447612Y0229027D01*
X0447689Y0228895D01*
X0447764Y0228761D01*
X0447835Y0228625D01*
X0447902Y0228487D01*
X0447966Y0228347D01*
X0448026Y0228206D01*
X0448082Y0228064D01*
X0448135Y0227920D01*
X0448184Y0227774D01*
X0448229Y0227628D01*
X0448270Y0227480D01*
X0448307Y0227332D01*
X0448341Y0227182D01*
X0448371Y0227031D01*
X0448396Y0226880D01*
X0448418Y0226729D01*
X0448436Y0226576D01*
X0448450Y0226424D01*
X0448460Y0226271D01*
X0448466Y0226117D01*
X0448468Y0225964D01*
X0448466Y0225811D01*
X0448460Y0225657D01*
X0448450Y0225504D01*
X0448436Y0225352D01*
X0448418Y0225199D01*
X0448396Y0225048D01*
X0448371Y0224897D01*
X0448341Y0224746D01*
X0448307Y0224596D01*
X0448270Y0224448D01*
X0448229Y0224300D01*
X0448184Y0224154D01*
X0448135Y0224008D01*
X0448082Y0223864D01*
X0448026Y0223722D01*
X0447966Y0223581D01*
X0447902Y0223441D01*
X0447835Y0223303D01*
X0447764Y0223167D01*
X0447689Y0223033D01*
X0447612Y0222901D01*
X0447530Y0222771D01*
X0447446Y0222643D01*
X0447358Y0222517D01*
X0447267Y0222394D01*
X0447173Y0222273D01*
X0447075Y0222155D01*
X0446975Y0222039D01*
X0446871Y0221926D01*
X0446765Y0221815D01*
X0446656Y0221707D01*
X0446544Y0221602D01*
X0446430Y0221501D01*
X0446312Y0221402D01*
X0446193Y0221306D01*
X0446071Y0221213D01*
X0445946Y0221124D01*
X0445819Y0221037D01*
X0445690Y0220955D01*
X0445559Y0220875D01*
X0445426Y0220799D01*
X0445291Y0220726D01*
X0445154Y0220657D01*
X0445015Y0220592D01*
X0444875Y0220530D01*
X0444733Y0220472D01*
X0444590Y0220417D01*
X0444445Y0220366D01*
X0444299Y0220319D01*
X0444152Y0220276D01*
X0444004Y0220237D01*
X0443855Y0220201D01*
X0443705Y0220170D01*
X0443554Y0220142D01*
X0443403Y0220118D01*
X0443250Y0220098D01*
X0443098Y0220082D01*
X0442945Y0220070D01*
X0442792Y0220062D01*
X0442639Y0220058D01*
X0442485Y0220058D01*
X0442332Y0220062D01*
X0442179Y0220070D01*
X0442026Y0220082D01*
X0441874Y0220098D01*
X0441721Y0220118D01*
X0441570Y0220142D01*
X0441419Y0220170D01*
X0441269Y0220201D01*
X0441120Y0220237D01*
X0440972Y0220276D01*
X0440825Y0220319D01*
X0440679Y0220366D01*
X0440534Y0220417D01*
X0440391Y0220472D01*
X0440249Y0220530D01*
X0440109Y0220592D01*
X0439970Y0220657D01*
X0439833Y0220726D01*
X0439698Y0220799D01*
X0439565Y0220875D01*
X0439434Y0220955D01*
X0439305Y0221037D01*
X0439178Y0221124D01*
X0439053Y0221213D01*
X0438931Y0221306D01*
X0438812Y0221402D01*
X0438694Y0221501D01*
X0438580Y0221602D01*
X0438468Y0221707D01*
X0438359Y0221815D01*
X0438253Y0221926D01*
X0438149Y0222039D01*
X0438049Y0222155D01*
X0437951Y0222273D01*
X0437857Y0222394D01*
X0437766Y0222517D01*
X0437678Y0222643D01*
X0437594Y0222771D01*
X0437512Y0222901D01*
X0437435Y0223033D01*
X0437360Y0223167D01*
X0437289Y0223303D01*
X0437222Y0223441D01*
X0437158Y0223581D01*
X0437098Y0223722D01*
X0437042Y0223864D01*
X0436989Y0224008D01*
X0436940Y0224154D01*
X0436895Y0224300D01*
X0436854Y0224448D01*
X0436817Y0224596D01*
X0436783Y0224746D01*
X0436753Y0224897D01*
X0436728Y0225048D01*
X0436706Y0225199D01*
X0436688Y0225352D01*
X0436674Y0225504D01*
X0436664Y0225657D01*
X0436658Y0225811D01*
X0436656Y0225964D01*
X0450142Y0191481D02*
X0450144Y0191665D01*
X0450151Y0191848D01*
X0450162Y0192031D01*
X0450178Y0192214D01*
X0450198Y0192397D01*
X0450223Y0192579D01*
X0450252Y0192760D01*
X0450286Y0192940D01*
X0450324Y0193120D01*
X0450366Y0193298D01*
X0450413Y0193476D01*
X0450464Y0193652D01*
X0450520Y0193827D01*
X0450579Y0194001D01*
X0450643Y0194173D01*
X0450711Y0194343D01*
X0450784Y0194512D01*
X0450860Y0194679D01*
X0450941Y0194844D01*
X0451025Y0195007D01*
X0451114Y0195168D01*
X0451206Y0195326D01*
X0451302Y0195483D01*
X0451403Y0195637D01*
X0451506Y0195788D01*
X0451614Y0195937D01*
X0451725Y0196083D01*
X0451840Y0196226D01*
X0451958Y0196367D01*
X0452080Y0196504D01*
X0452205Y0196639D01*
X0452333Y0196770D01*
X0452464Y0196898D01*
X0452599Y0197023D01*
X0452736Y0197145D01*
X0452877Y0197263D01*
X0453020Y0197378D01*
X0453166Y0197489D01*
X0453315Y0197597D01*
X0453466Y0197700D01*
X0453620Y0197801D01*
X0453777Y0197897D01*
X0453935Y0197989D01*
X0454096Y0198078D01*
X0454259Y0198162D01*
X0454424Y0198243D01*
X0454591Y0198319D01*
X0454760Y0198392D01*
X0454930Y0198460D01*
X0455102Y0198524D01*
X0455276Y0198583D01*
X0455451Y0198639D01*
X0455627Y0198690D01*
X0455805Y0198737D01*
X0455983Y0198779D01*
X0456163Y0198817D01*
X0456343Y0198851D01*
X0456524Y0198880D01*
X0456706Y0198905D01*
X0456889Y0198925D01*
X0457072Y0198941D01*
X0457255Y0198952D01*
X0457438Y0198959D01*
X0457622Y0198961D01*
X0457806Y0198959D01*
X0457989Y0198952D01*
X0458172Y0198941D01*
X0458355Y0198925D01*
X0458538Y0198905D01*
X0458720Y0198880D01*
X0458901Y0198851D01*
X0459081Y0198817D01*
X0459261Y0198779D01*
X0459439Y0198737D01*
X0459617Y0198690D01*
X0459793Y0198639D01*
X0459968Y0198583D01*
X0460142Y0198524D01*
X0460314Y0198460D01*
X0460484Y0198392D01*
X0460653Y0198319D01*
X0460820Y0198243D01*
X0460985Y0198162D01*
X0461148Y0198078D01*
X0461309Y0197989D01*
X0461467Y0197897D01*
X0461624Y0197801D01*
X0461778Y0197700D01*
X0461929Y0197597D01*
X0462078Y0197489D01*
X0462224Y0197378D01*
X0462367Y0197263D01*
X0462508Y0197145D01*
X0462645Y0197023D01*
X0462780Y0196898D01*
X0462911Y0196770D01*
X0463039Y0196639D01*
X0463164Y0196504D01*
X0463286Y0196367D01*
X0463404Y0196226D01*
X0463519Y0196083D01*
X0463630Y0195937D01*
X0463738Y0195788D01*
X0463841Y0195637D01*
X0463942Y0195483D01*
X0464038Y0195326D01*
X0464130Y0195168D01*
X0464219Y0195007D01*
X0464303Y0194844D01*
X0464384Y0194679D01*
X0464460Y0194512D01*
X0464533Y0194343D01*
X0464601Y0194173D01*
X0464665Y0194001D01*
X0464724Y0193827D01*
X0464780Y0193652D01*
X0464831Y0193476D01*
X0464878Y0193298D01*
X0464920Y0193120D01*
X0464958Y0192940D01*
X0464992Y0192760D01*
X0465021Y0192579D01*
X0465046Y0192397D01*
X0465066Y0192214D01*
X0465082Y0192031D01*
X0465093Y0191848D01*
X0465100Y0191665D01*
X0465102Y0191481D01*
X0465100Y0191297D01*
X0465093Y0191114D01*
X0465082Y0190931D01*
X0465066Y0190748D01*
X0465046Y0190565D01*
X0465021Y0190383D01*
X0464992Y0190202D01*
X0464958Y0190022D01*
X0464920Y0189842D01*
X0464878Y0189664D01*
X0464831Y0189486D01*
X0464780Y0189310D01*
X0464724Y0189135D01*
X0464665Y0188961D01*
X0464601Y0188789D01*
X0464533Y0188619D01*
X0464460Y0188450D01*
X0464384Y0188283D01*
X0464303Y0188118D01*
X0464219Y0187955D01*
X0464130Y0187794D01*
X0464038Y0187636D01*
X0463942Y0187479D01*
X0463841Y0187325D01*
X0463738Y0187174D01*
X0463630Y0187025D01*
X0463519Y0186879D01*
X0463404Y0186736D01*
X0463286Y0186595D01*
X0463164Y0186458D01*
X0463039Y0186323D01*
X0462911Y0186192D01*
X0462780Y0186064D01*
X0462645Y0185939D01*
X0462508Y0185817D01*
X0462367Y0185699D01*
X0462224Y0185584D01*
X0462078Y0185473D01*
X0461929Y0185365D01*
X0461778Y0185262D01*
X0461624Y0185161D01*
X0461467Y0185065D01*
X0461309Y0184973D01*
X0461148Y0184884D01*
X0460985Y0184800D01*
X0460820Y0184719D01*
X0460653Y0184643D01*
X0460484Y0184570D01*
X0460314Y0184502D01*
X0460142Y0184438D01*
X0459968Y0184379D01*
X0459793Y0184323D01*
X0459617Y0184272D01*
X0459439Y0184225D01*
X0459261Y0184183D01*
X0459081Y0184145D01*
X0458901Y0184111D01*
X0458720Y0184082D01*
X0458538Y0184057D01*
X0458355Y0184037D01*
X0458172Y0184021D01*
X0457989Y0184010D01*
X0457806Y0184003D01*
X0457622Y0184001D01*
X0457438Y0184003D01*
X0457255Y0184010D01*
X0457072Y0184021D01*
X0456889Y0184037D01*
X0456706Y0184057D01*
X0456524Y0184082D01*
X0456343Y0184111D01*
X0456163Y0184145D01*
X0455983Y0184183D01*
X0455805Y0184225D01*
X0455627Y0184272D01*
X0455451Y0184323D01*
X0455276Y0184379D01*
X0455102Y0184438D01*
X0454930Y0184502D01*
X0454760Y0184570D01*
X0454591Y0184643D01*
X0454424Y0184719D01*
X0454259Y0184800D01*
X0454096Y0184884D01*
X0453935Y0184973D01*
X0453777Y0185065D01*
X0453620Y0185161D01*
X0453466Y0185262D01*
X0453315Y0185365D01*
X0453166Y0185473D01*
X0453020Y0185584D01*
X0452877Y0185699D01*
X0452736Y0185817D01*
X0452599Y0185939D01*
X0452464Y0186064D01*
X0452333Y0186192D01*
X0452205Y0186323D01*
X0452080Y0186458D01*
X0451958Y0186595D01*
X0451840Y0186736D01*
X0451725Y0186879D01*
X0451614Y0187025D01*
X0451506Y0187174D01*
X0451403Y0187325D01*
X0451302Y0187479D01*
X0451206Y0187636D01*
X0451114Y0187794D01*
X0451025Y0187955D01*
X0450941Y0188118D01*
X0450860Y0188283D01*
X0450784Y0188450D01*
X0450711Y0188619D01*
X0450643Y0188789D01*
X0450579Y0188961D01*
X0450520Y0189135D01*
X0450464Y0189310D01*
X0450413Y0189486D01*
X0450366Y0189664D01*
X0450324Y0189842D01*
X0450286Y0190022D01*
X0450252Y0190202D01*
X0450223Y0190383D01*
X0450198Y0190565D01*
X0450178Y0190748D01*
X0450162Y0190931D01*
X0450151Y0191114D01*
X0450144Y0191297D01*
X0450142Y0191481D01*
X0472882Y0149283D02*
X0472884Y0149423D01*
X0472890Y0149563D01*
X0472900Y0149702D01*
X0472914Y0149841D01*
X0472932Y0149980D01*
X0472953Y0150118D01*
X0472979Y0150256D01*
X0473009Y0150393D01*
X0473042Y0150528D01*
X0473080Y0150663D01*
X0473121Y0150797D01*
X0473166Y0150930D01*
X0473214Y0151061D01*
X0473267Y0151190D01*
X0473323Y0151319D01*
X0473382Y0151445D01*
X0473446Y0151570D01*
X0473512Y0151693D01*
X0473583Y0151814D01*
X0473656Y0151933D01*
X0473733Y0152050D01*
X0473814Y0152164D01*
X0473897Y0152276D01*
X0473984Y0152386D01*
X0474074Y0152494D01*
X0474166Y0152598D01*
X0474262Y0152700D01*
X0474361Y0152800D01*
X0474462Y0152896D01*
X0474566Y0152990D01*
X0474673Y0153080D01*
X0474782Y0153167D01*
X0474894Y0153252D01*
X0475008Y0153333D01*
X0475124Y0153411D01*
X0475242Y0153485D01*
X0475363Y0153556D01*
X0475485Y0153624D01*
X0475610Y0153688D01*
X0475736Y0153749D01*
X0475863Y0153806D01*
X0475993Y0153859D01*
X0476124Y0153909D01*
X0476256Y0153954D01*
X0476389Y0153997D01*
X0476524Y0154035D01*
X0476659Y0154069D01*
X0476796Y0154100D01*
X0476933Y0154127D01*
X0477071Y0154149D01*
X0477210Y0154168D01*
X0477349Y0154183D01*
X0477488Y0154194D01*
X0477628Y0154201D01*
X0477768Y0154204D01*
X0477908Y0154203D01*
X0478048Y0154198D01*
X0478187Y0154189D01*
X0478327Y0154176D01*
X0478466Y0154159D01*
X0478604Y0154138D01*
X0478742Y0154114D01*
X0478879Y0154085D01*
X0479015Y0154053D01*
X0479150Y0154016D01*
X0479284Y0153976D01*
X0479417Y0153932D01*
X0479548Y0153884D01*
X0479678Y0153833D01*
X0479807Y0153778D01*
X0479934Y0153719D01*
X0480059Y0153656D01*
X0480182Y0153591D01*
X0480304Y0153521D01*
X0480423Y0153448D01*
X0480541Y0153372D01*
X0480656Y0153293D01*
X0480769Y0153210D01*
X0480879Y0153124D01*
X0480987Y0153035D01*
X0481092Y0152943D01*
X0481195Y0152848D01*
X0481295Y0152750D01*
X0481392Y0152650D01*
X0481486Y0152546D01*
X0481578Y0152440D01*
X0481666Y0152332D01*
X0481751Y0152221D01*
X0481833Y0152107D01*
X0481912Y0151991D01*
X0481987Y0151874D01*
X0482059Y0151754D01*
X0482127Y0151632D01*
X0482192Y0151508D01*
X0482254Y0151382D01*
X0482312Y0151255D01*
X0482366Y0151126D01*
X0482417Y0150995D01*
X0482463Y0150863D01*
X0482506Y0150730D01*
X0482546Y0150596D01*
X0482581Y0150461D01*
X0482613Y0150324D01*
X0482640Y0150187D01*
X0482664Y0150049D01*
X0482684Y0149911D01*
X0482700Y0149772D01*
X0482712Y0149632D01*
X0482720Y0149493D01*
X0482724Y0149353D01*
X0482724Y0149213D01*
X0482720Y0149073D01*
X0482712Y0148934D01*
X0482700Y0148794D01*
X0482684Y0148655D01*
X0482664Y0148517D01*
X0482640Y0148379D01*
X0482613Y0148242D01*
X0482581Y0148105D01*
X0482546Y0147970D01*
X0482506Y0147836D01*
X0482463Y0147703D01*
X0482417Y0147571D01*
X0482366Y0147440D01*
X0482312Y0147311D01*
X0482254Y0147184D01*
X0482192Y0147058D01*
X0482127Y0146934D01*
X0482059Y0146812D01*
X0481987Y0146692D01*
X0481912Y0146575D01*
X0481833Y0146459D01*
X0481751Y0146345D01*
X0481666Y0146234D01*
X0481578Y0146126D01*
X0481486Y0146020D01*
X0481392Y0145916D01*
X0481295Y0145816D01*
X0481195Y0145718D01*
X0481092Y0145623D01*
X0480987Y0145531D01*
X0480879Y0145442D01*
X0480769Y0145356D01*
X0480656Y0145273D01*
X0480541Y0145194D01*
X0480423Y0145118D01*
X0480304Y0145045D01*
X0480182Y0144975D01*
X0480059Y0144910D01*
X0479934Y0144847D01*
X0479807Y0144788D01*
X0479678Y0144733D01*
X0479548Y0144682D01*
X0479417Y0144634D01*
X0479284Y0144590D01*
X0479150Y0144550D01*
X0479015Y0144513D01*
X0478879Y0144481D01*
X0478742Y0144452D01*
X0478604Y0144428D01*
X0478466Y0144407D01*
X0478327Y0144390D01*
X0478187Y0144377D01*
X0478048Y0144368D01*
X0477908Y0144363D01*
X0477768Y0144362D01*
X0477628Y0144365D01*
X0477488Y0144372D01*
X0477349Y0144383D01*
X0477210Y0144398D01*
X0477071Y0144417D01*
X0476933Y0144439D01*
X0476796Y0144466D01*
X0476659Y0144497D01*
X0476524Y0144531D01*
X0476389Y0144569D01*
X0476256Y0144612D01*
X0476124Y0144657D01*
X0475993Y0144707D01*
X0475863Y0144760D01*
X0475736Y0144817D01*
X0475610Y0144878D01*
X0475485Y0144942D01*
X0475363Y0145010D01*
X0475242Y0145081D01*
X0475124Y0145155D01*
X0475008Y0145233D01*
X0474894Y0145314D01*
X0474782Y0145399D01*
X0474673Y0145486D01*
X0474566Y0145576D01*
X0474462Y0145670D01*
X0474361Y0145766D01*
X0474262Y0145866D01*
X0474166Y0145968D01*
X0474074Y0146072D01*
X0473984Y0146180D01*
X0473897Y0146290D01*
X0473814Y0146402D01*
X0473733Y0146516D01*
X0473656Y0146633D01*
X0473583Y0146752D01*
X0473512Y0146873D01*
X0473446Y0146996D01*
X0473382Y0147121D01*
X0473323Y0147247D01*
X0473267Y0147376D01*
X0473214Y0147505D01*
X0473166Y0147636D01*
X0473121Y0147769D01*
X0473080Y0147903D01*
X0473042Y0148038D01*
X0473009Y0148173D01*
X0472979Y0148310D01*
X0472953Y0148448D01*
X0472932Y0148586D01*
X0472914Y0148725D01*
X0472900Y0148864D01*
X0472890Y0149003D01*
X0472884Y0149143D01*
X0472882Y0149283D01*
X0492790Y0130557D02*
X0492792Y0130750D01*
X0492799Y0130943D01*
X0492811Y0131136D01*
X0492828Y0131329D01*
X0492849Y0131521D01*
X0492875Y0131712D01*
X0492906Y0131903D01*
X0492941Y0132093D01*
X0492981Y0132282D01*
X0493026Y0132470D01*
X0493075Y0132657D01*
X0493129Y0132843D01*
X0493187Y0133027D01*
X0493250Y0133210D01*
X0493318Y0133391D01*
X0493389Y0133570D01*
X0493466Y0133748D01*
X0493546Y0133924D01*
X0493631Y0134097D01*
X0493720Y0134269D01*
X0493813Y0134438D01*
X0493910Y0134605D01*
X0494012Y0134770D01*
X0494117Y0134932D01*
X0494226Y0135091D01*
X0494340Y0135248D01*
X0494457Y0135401D01*
X0494577Y0135552D01*
X0494702Y0135700D01*
X0494830Y0135845D01*
X0494961Y0135986D01*
X0495096Y0136125D01*
X0495235Y0136260D01*
X0495376Y0136391D01*
X0495521Y0136519D01*
X0495669Y0136644D01*
X0495820Y0136764D01*
X0495973Y0136881D01*
X0496130Y0136995D01*
X0496289Y0137104D01*
X0496451Y0137209D01*
X0496616Y0137311D01*
X0496783Y0137408D01*
X0496952Y0137501D01*
X0497124Y0137590D01*
X0497297Y0137675D01*
X0497473Y0137755D01*
X0497651Y0137832D01*
X0497830Y0137903D01*
X0498011Y0137971D01*
X0498194Y0138034D01*
X0498378Y0138092D01*
X0498564Y0138146D01*
X0498751Y0138195D01*
X0498939Y0138240D01*
X0499128Y0138280D01*
X0499318Y0138315D01*
X0499509Y0138346D01*
X0499700Y0138372D01*
X0499892Y0138393D01*
X0500085Y0138410D01*
X0500278Y0138422D01*
X0500471Y0138429D01*
X0500664Y0138431D01*
X0500857Y0138429D01*
X0501050Y0138422D01*
X0501243Y0138410D01*
X0501436Y0138393D01*
X0501628Y0138372D01*
X0501819Y0138346D01*
X0502010Y0138315D01*
X0502200Y0138280D01*
X0502389Y0138240D01*
X0502577Y0138195D01*
X0502764Y0138146D01*
X0502950Y0138092D01*
X0503134Y0138034D01*
X0503317Y0137971D01*
X0503498Y0137903D01*
X0503677Y0137832D01*
X0503855Y0137755D01*
X0504031Y0137675D01*
X0504204Y0137590D01*
X0504376Y0137501D01*
X0504545Y0137408D01*
X0504712Y0137311D01*
X0504877Y0137209D01*
X0505039Y0137104D01*
X0505198Y0136995D01*
X0505355Y0136881D01*
X0505508Y0136764D01*
X0505659Y0136644D01*
X0505807Y0136519D01*
X0505952Y0136391D01*
X0506093Y0136260D01*
X0506232Y0136125D01*
X0506367Y0135986D01*
X0506498Y0135845D01*
X0506626Y0135700D01*
X0506751Y0135552D01*
X0506871Y0135401D01*
X0506988Y0135248D01*
X0507102Y0135091D01*
X0507211Y0134932D01*
X0507316Y0134770D01*
X0507418Y0134605D01*
X0507515Y0134438D01*
X0507608Y0134269D01*
X0507697Y0134097D01*
X0507782Y0133924D01*
X0507862Y0133748D01*
X0507939Y0133570D01*
X0508010Y0133391D01*
X0508078Y0133210D01*
X0508141Y0133027D01*
X0508199Y0132843D01*
X0508253Y0132657D01*
X0508302Y0132470D01*
X0508347Y0132282D01*
X0508387Y0132093D01*
X0508422Y0131903D01*
X0508453Y0131712D01*
X0508479Y0131521D01*
X0508500Y0131329D01*
X0508517Y0131136D01*
X0508529Y0130943D01*
X0508536Y0130750D01*
X0508538Y0130557D01*
X0508536Y0130364D01*
X0508529Y0130171D01*
X0508517Y0129978D01*
X0508500Y0129785D01*
X0508479Y0129593D01*
X0508453Y0129402D01*
X0508422Y0129211D01*
X0508387Y0129021D01*
X0508347Y0128832D01*
X0508302Y0128644D01*
X0508253Y0128457D01*
X0508199Y0128271D01*
X0508141Y0128087D01*
X0508078Y0127904D01*
X0508010Y0127723D01*
X0507939Y0127544D01*
X0507862Y0127366D01*
X0507782Y0127190D01*
X0507697Y0127017D01*
X0507608Y0126845D01*
X0507515Y0126676D01*
X0507418Y0126509D01*
X0507316Y0126344D01*
X0507211Y0126182D01*
X0507102Y0126023D01*
X0506988Y0125866D01*
X0506871Y0125713D01*
X0506751Y0125562D01*
X0506626Y0125414D01*
X0506498Y0125269D01*
X0506367Y0125128D01*
X0506232Y0124989D01*
X0506093Y0124854D01*
X0505952Y0124723D01*
X0505807Y0124595D01*
X0505659Y0124470D01*
X0505508Y0124350D01*
X0505355Y0124233D01*
X0505198Y0124119D01*
X0505039Y0124010D01*
X0504877Y0123905D01*
X0504712Y0123803D01*
X0504545Y0123706D01*
X0504376Y0123613D01*
X0504204Y0123524D01*
X0504031Y0123439D01*
X0503855Y0123359D01*
X0503677Y0123282D01*
X0503498Y0123211D01*
X0503317Y0123143D01*
X0503134Y0123080D01*
X0502950Y0123022D01*
X0502764Y0122968D01*
X0502577Y0122919D01*
X0502389Y0122874D01*
X0502200Y0122834D01*
X0502010Y0122799D01*
X0501819Y0122768D01*
X0501628Y0122742D01*
X0501436Y0122721D01*
X0501243Y0122704D01*
X0501050Y0122692D01*
X0500857Y0122685D01*
X0500664Y0122683D01*
X0500471Y0122685D01*
X0500278Y0122692D01*
X0500085Y0122704D01*
X0499892Y0122721D01*
X0499700Y0122742D01*
X0499509Y0122768D01*
X0499318Y0122799D01*
X0499128Y0122834D01*
X0498939Y0122874D01*
X0498751Y0122919D01*
X0498564Y0122968D01*
X0498378Y0123022D01*
X0498194Y0123080D01*
X0498011Y0123143D01*
X0497830Y0123211D01*
X0497651Y0123282D01*
X0497473Y0123359D01*
X0497297Y0123439D01*
X0497124Y0123524D01*
X0496952Y0123613D01*
X0496783Y0123706D01*
X0496616Y0123803D01*
X0496451Y0123905D01*
X0496289Y0124010D01*
X0496130Y0124119D01*
X0495973Y0124233D01*
X0495820Y0124350D01*
X0495669Y0124470D01*
X0495521Y0124595D01*
X0495376Y0124723D01*
X0495235Y0124854D01*
X0495096Y0124989D01*
X0494961Y0125128D01*
X0494830Y0125269D01*
X0494702Y0125414D01*
X0494577Y0125562D01*
X0494457Y0125713D01*
X0494340Y0125866D01*
X0494226Y0126023D01*
X0494117Y0126182D01*
X0494012Y0126344D01*
X0493910Y0126509D01*
X0493813Y0126676D01*
X0493720Y0126845D01*
X0493631Y0127017D01*
X0493546Y0127190D01*
X0493466Y0127366D01*
X0493389Y0127544D01*
X0493318Y0127723D01*
X0493250Y0127904D01*
X0493187Y0128087D01*
X0493129Y0128271D01*
X0493075Y0128457D01*
X0493026Y0128644D01*
X0492981Y0128832D01*
X0492941Y0129021D01*
X0492906Y0129211D01*
X0492875Y0129402D01*
X0492849Y0129593D01*
X0492828Y0129785D01*
X0492811Y0129978D01*
X0492799Y0130171D01*
X0492792Y0130364D01*
X0492790Y0130557D01*
X0507937Y0056983D02*
X0507939Y0057136D01*
X0507945Y0057290D01*
X0507955Y0057443D01*
X0507969Y0057595D01*
X0507987Y0057748D01*
X0508009Y0057899D01*
X0508034Y0058050D01*
X0508064Y0058201D01*
X0508098Y0058351D01*
X0508135Y0058499D01*
X0508176Y0058647D01*
X0508221Y0058793D01*
X0508270Y0058939D01*
X0508323Y0059083D01*
X0508379Y0059225D01*
X0508439Y0059366D01*
X0508503Y0059506D01*
X0508570Y0059644D01*
X0508641Y0059780D01*
X0508716Y0059914D01*
X0508793Y0060046D01*
X0508875Y0060176D01*
X0508959Y0060304D01*
X0509047Y0060430D01*
X0509138Y0060553D01*
X0509232Y0060674D01*
X0509330Y0060792D01*
X0509430Y0060908D01*
X0509534Y0061021D01*
X0509640Y0061132D01*
X0509749Y0061240D01*
X0509861Y0061345D01*
X0509975Y0061446D01*
X0510093Y0061545D01*
X0510212Y0061641D01*
X0510334Y0061734D01*
X0510459Y0061823D01*
X0510586Y0061910D01*
X0510715Y0061992D01*
X0510846Y0062072D01*
X0510979Y0062148D01*
X0511114Y0062221D01*
X0511251Y0062290D01*
X0511390Y0062355D01*
X0511530Y0062417D01*
X0511672Y0062475D01*
X0511815Y0062530D01*
X0511960Y0062581D01*
X0512106Y0062628D01*
X0512253Y0062671D01*
X0512401Y0062710D01*
X0512550Y0062746D01*
X0512700Y0062777D01*
X0512851Y0062805D01*
X0513002Y0062829D01*
X0513155Y0062849D01*
X0513307Y0062865D01*
X0513460Y0062877D01*
X0513613Y0062885D01*
X0513766Y0062889D01*
X0513920Y0062889D01*
X0514073Y0062885D01*
X0514226Y0062877D01*
X0514379Y0062865D01*
X0514531Y0062849D01*
X0514684Y0062829D01*
X0514835Y0062805D01*
X0514986Y0062777D01*
X0515136Y0062746D01*
X0515285Y0062710D01*
X0515433Y0062671D01*
X0515580Y0062628D01*
X0515726Y0062581D01*
X0515871Y0062530D01*
X0516014Y0062475D01*
X0516156Y0062417D01*
X0516296Y0062355D01*
X0516435Y0062290D01*
X0516572Y0062221D01*
X0516707Y0062148D01*
X0516840Y0062072D01*
X0516971Y0061992D01*
X0517100Y0061910D01*
X0517227Y0061823D01*
X0517352Y0061734D01*
X0517474Y0061641D01*
X0517593Y0061545D01*
X0517711Y0061446D01*
X0517825Y0061345D01*
X0517937Y0061240D01*
X0518046Y0061132D01*
X0518152Y0061021D01*
X0518256Y0060908D01*
X0518356Y0060792D01*
X0518454Y0060674D01*
X0518548Y0060553D01*
X0518639Y0060430D01*
X0518727Y0060304D01*
X0518811Y0060176D01*
X0518893Y0060046D01*
X0518970Y0059914D01*
X0519045Y0059780D01*
X0519116Y0059644D01*
X0519183Y0059506D01*
X0519247Y0059366D01*
X0519307Y0059225D01*
X0519363Y0059083D01*
X0519416Y0058939D01*
X0519465Y0058793D01*
X0519510Y0058647D01*
X0519551Y0058499D01*
X0519588Y0058351D01*
X0519622Y0058201D01*
X0519652Y0058050D01*
X0519677Y0057899D01*
X0519699Y0057748D01*
X0519717Y0057595D01*
X0519731Y0057443D01*
X0519741Y0057290D01*
X0519747Y0057136D01*
X0519749Y0056983D01*
X0519747Y0056830D01*
X0519741Y0056676D01*
X0519731Y0056523D01*
X0519717Y0056371D01*
X0519699Y0056218D01*
X0519677Y0056067D01*
X0519652Y0055916D01*
X0519622Y0055765D01*
X0519588Y0055615D01*
X0519551Y0055467D01*
X0519510Y0055319D01*
X0519465Y0055173D01*
X0519416Y0055027D01*
X0519363Y0054883D01*
X0519307Y0054741D01*
X0519247Y0054600D01*
X0519183Y0054460D01*
X0519116Y0054322D01*
X0519045Y0054186D01*
X0518970Y0054052D01*
X0518893Y0053920D01*
X0518811Y0053790D01*
X0518727Y0053662D01*
X0518639Y0053536D01*
X0518548Y0053413D01*
X0518454Y0053292D01*
X0518356Y0053174D01*
X0518256Y0053058D01*
X0518152Y0052945D01*
X0518046Y0052834D01*
X0517937Y0052726D01*
X0517825Y0052621D01*
X0517711Y0052520D01*
X0517593Y0052421D01*
X0517474Y0052325D01*
X0517352Y0052232D01*
X0517227Y0052143D01*
X0517100Y0052056D01*
X0516971Y0051974D01*
X0516840Y0051894D01*
X0516707Y0051818D01*
X0516572Y0051745D01*
X0516435Y0051676D01*
X0516296Y0051611D01*
X0516156Y0051549D01*
X0516014Y0051491D01*
X0515871Y0051436D01*
X0515726Y0051385D01*
X0515580Y0051338D01*
X0515433Y0051295D01*
X0515285Y0051256D01*
X0515136Y0051220D01*
X0514986Y0051189D01*
X0514835Y0051161D01*
X0514684Y0051137D01*
X0514531Y0051117D01*
X0514379Y0051101D01*
X0514226Y0051089D01*
X0514073Y0051081D01*
X0513920Y0051077D01*
X0513766Y0051077D01*
X0513613Y0051081D01*
X0513460Y0051089D01*
X0513307Y0051101D01*
X0513155Y0051117D01*
X0513002Y0051137D01*
X0512851Y0051161D01*
X0512700Y0051189D01*
X0512550Y0051220D01*
X0512401Y0051256D01*
X0512253Y0051295D01*
X0512106Y0051338D01*
X0511960Y0051385D01*
X0511815Y0051436D01*
X0511672Y0051491D01*
X0511530Y0051549D01*
X0511390Y0051611D01*
X0511251Y0051676D01*
X0511114Y0051745D01*
X0510979Y0051818D01*
X0510846Y0051894D01*
X0510715Y0051974D01*
X0510586Y0052056D01*
X0510459Y0052143D01*
X0510334Y0052232D01*
X0510212Y0052325D01*
X0510093Y0052421D01*
X0509975Y0052520D01*
X0509861Y0052621D01*
X0509749Y0052726D01*
X0509640Y0052834D01*
X0509534Y0052945D01*
X0509430Y0053058D01*
X0509330Y0053174D01*
X0509232Y0053292D01*
X0509138Y0053413D01*
X0509047Y0053536D01*
X0508959Y0053662D01*
X0508875Y0053790D01*
X0508793Y0053920D01*
X0508716Y0054052D01*
X0508641Y0054186D01*
X0508570Y0054322D01*
X0508503Y0054460D01*
X0508439Y0054600D01*
X0508379Y0054741D01*
X0508323Y0054883D01*
X0508270Y0055027D01*
X0508221Y0055173D01*
X0508176Y0055319D01*
X0508135Y0055467D01*
X0508098Y0055615D01*
X0508064Y0055765D01*
X0508034Y0055916D01*
X0508009Y0056067D01*
X0507987Y0056218D01*
X0507969Y0056371D01*
X0507955Y0056523D01*
X0507945Y0056676D01*
X0507939Y0056830D01*
X0507937Y0056983D01*
X0419828Y0025964D02*
X0419830Y0026077D01*
X0419836Y0026191D01*
X0419846Y0026304D01*
X0419860Y0026416D01*
X0419877Y0026528D01*
X0419899Y0026640D01*
X0419925Y0026750D01*
X0419954Y0026860D01*
X0419987Y0026968D01*
X0420024Y0027076D01*
X0420065Y0027181D01*
X0420109Y0027286D01*
X0420157Y0027389D01*
X0420208Y0027490D01*
X0420263Y0027589D01*
X0420322Y0027686D01*
X0420384Y0027781D01*
X0420449Y0027874D01*
X0420517Y0027965D01*
X0420588Y0028053D01*
X0420663Y0028139D01*
X0420740Y0028222D01*
X0420820Y0028302D01*
X0420903Y0028379D01*
X0420989Y0028454D01*
X0421077Y0028525D01*
X0421168Y0028593D01*
X0421261Y0028658D01*
X0421356Y0028720D01*
X0421453Y0028779D01*
X0421552Y0028834D01*
X0421653Y0028885D01*
X0421756Y0028933D01*
X0421861Y0028977D01*
X0421966Y0029018D01*
X0422074Y0029055D01*
X0422182Y0029088D01*
X0422292Y0029117D01*
X0422402Y0029143D01*
X0422514Y0029165D01*
X0422626Y0029182D01*
X0422738Y0029196D01*
X0422851Y0029206D01*
X0422965Y0029212D01*
X0423078Y0029214D01*
X0423191Y0029212D01*
X0423305Y0029206D01*
X0423418Y0029196D01*
X0423530Y0029182D01*
X0423642Y0029165D01*
X0423754Y0029143D01*
X0423864Y0029117D01*
X0423974Y0029088D01*
X0424082Y0029055D01*
X0424190Y0029018D01*
X0424295Y0028977D01*
X0424400Y0028933D01*
X0424503Y0028885D01*
X0424604Y0028834D01*
X0424703Y0028779D01*
X0424800Y0028720D01*
X0424895Y0028658D01*
X0424988Y0028593D01*
X0425079Y0028525D01*
X0425167Y0028454D01*
X0425253Y0028379D01*
X0425336Y0028302D01*
X0425416Y0028222D01*
X0425493Y0028139D01*
X0425568Y0028053D01*
X0425639Y0027965D01*
X0425707Y0027874D01*
X0425772Y0027781D01*
X0425834Y0027686D01*
X0425893Y0027589D01*
X0425948Y0027490D01*
X0425999Y0027389D01*
X0426047Y0027286D01*
X0426091Y0027181D01*
X0426132Y0027076D01*
X0426169Y0026968D01*
X0426202Y0026860D01*
X0426231Y0026750D01*
X0426257Y0026640D01*
X0426279Y0026528D01*
X0426296Y0026416D01*
X0426310Y0026304D01*
X0426320Y0026191D01*
X0426326Y0026077D01*
X0426328Y0025964D01*
X0426326Y0025851D01*
X0426320Y0025737D01*
X0426310Y0025624D01*
X0426296Y0025512D01*
X0426279Y0025400D01*
X0426257Y0025288D01*
X0426231Y0025178D01*
X0426202Y0025068D01*
X0426169Y0024960D01*
X0426132Y0024852D01*
X0426091Y0024747D01*
X0426047Y0024642D01*
X0425999Y0024539D01*
X0425948Y0024438D01*
X0425893Y0024339D01*
X0425834Y0024242D01*
X0425772Y0024147D01*
X0425707Y0024054D01*
X0425639Y0023963D01*
X0425568Y0023875D01*
X0425493Y0023789D01*
X0425416Y0023706D01*
X0425336Y0023626D01*
X0425253Y0023549D01*
X0425167Y0023474D01*
X0425079Y0023403D01*
X0424988Y0023335D01*
X0424895Y0023270D01*
X0424800Y0023208D01*
X0424703Y0023149D01*
X0424604Y0023094D01*
X0424503Y0023043D01*
X0424400Y0022995D01*
X0424295Y0022951D01*
X0424190Y0022910D01*
X0424082Y0022873D01*
X0423974Y0022840D01*
X0423864Y0022811D01*
X0423754Y0022785D01*
X0423642Y0022763D01*
X0423530Y0022746D01*
X0423418Y0022732D01*
X0423305Y0022722D01*
X0423191Y0022716D01*
X0423078Y0022714D01*
X0422965Y0022716D01*
X0422851Y0022722D01*
X0422738Y0022732D01*
X0422626Y0022746D01*
X0422514Y0022763D01*
X0422402Y0022785D01*
X0422292Y0022811D01*
X0422182Y0022840D01*
X0422074Y0022873D01*
X0421966Y0022910D01*
X0421861Y0022951D01*
X0421756Y0022995D01*
X0421653Y0023043D01*
X0421552Y0023094D01*
X0421453Y0023149D01*
X0421356Y0023208D01*
X0421261Y0023270D01*
X0421168Y0023335D01*
X0421077Y0023403D01*
X0420989Y0023474D01*
X0420903Y0023549D01*
X0420820Y0023626D01*
X0420740Y0023706D01*
X0420663Y0023789D01*
X0420588Y0023875D01*
X0420517Y0023963D01*
X0420449Y0024054D01*
X0420384Y0024147D01*
X0420322Y0024242D01*
X0420263Y0024339D01*
X0420208Y0024438D01*
X0420157Y0024539D01*
X0420109Y0024642D01*
X0420065Y0024747D01*
X0420024Y0024852D01*
X0419987Y0024960D01*
X0419954Y0025068D01*
X0419925Y0025178D01*
X0419899Y0025288D01*
X0419877Y0025400D01*
X0419860Y0025512D01*
X0419846Y0025624D01*
X0419836Y0025737D01*
X0419830Y0025851D01*
X0419828Y0025964D01*
X0410221Y0002343D02*
X0410147Y0002297D01*
X0410070Y0002255D01*
X0409992Y0002215D01*
X0409912Y0002179D01*
X0409830Y0002147D01*
X0409748Y0002118D01*
X0409664Y0002093D01*
X0409579Y0002072D01*
X0409493Y0002055D01*
X0409407Y0002041D01*
X0409320Y0002031D01*
X0409232Y0002024D01*
X0409145Y0002022D01*
X0409057Y0002023D01*
X0408970Y0002029D01*
X0408883Y0002038D01*
X0408796Y0002051D01*
X0408710Y0002067D01*
X0408625Y0002088D01*
X0403975Y0003312D02*
X0403893Y0003332D01*
X0403810Y0003348D01*
X0403726Y0003361D01*
X0403642Y0003370D01*
X0403558Y0003376D01*
X0403473Y0003378D01*
X0410389Y0051899D02*
X0410391Y0052012D01*
X0410397Y0052126D01*
X0410407Y0052239D01*
X0410421Y0052351D01*
X0410438Y0052463D01*
X0410460Y0052575D01*
X0410486Y0052685D01*
X0410515Y0052795D01*
X0410548Y0052903D01*
X0410585Y0053011D01*
X0410626Y0053116D01*
X0410670Y0053221D01*
X0410718Y0053324D01*
X0410769Y0053425D01*
X0410824Y0053524D01*
X0410883Y0053621D01*
X0410945Y0053716D01*
X0411010Y0053809D01*
X0411078Y0053900D01*
X0411149Y0053988D01*
X0411224Y0054074D01*
X0411301Y0054157D01*
X0411381Y0054237D01*
X0411464Y0054314D01*
X0411550Y0054389D01*
X0411638Y0054460D01*
X0411729Y0054528D01*
X0411822Y0054593D01*
X0411917Y0054655D01*
X0412014Y0054714D01*
X0412113Y0054769D01*
X0412214Y0054820D01*
X0412317Y0054868D01*
X0412422Y0054912D01*
X0412527Y0054953D01*
X0412635Y0054990D01*
X0412743Y0055023D01*
X0412853Y0055052D01*
X0412963Y0055078D01*
X0413075Y0055100D01*
X0413187Y0055117D01*
X0413299Y0055131D01*
X0413412Y0055141D01*
X0413526Y0055147D01*
X0413639Y0055149D01*
X0413752Y0055147D01*
X0413866Y0055141D01*
X0413979Y0055131D01*
X0414091Y0055117D01*
X0414203Y0055100D01*
X0414315Y0055078D01*
X0414425Y0055052D01*
X0414535Y0055023D01*
X0414643Y0054990D01*
X0414751Y0054953D01*
X0414856Y0054912D01*
X0414961Y0054868D01*
X0415064Y0054820D01*
X0415165Y0054769D01*
X0415264Y0054714D01*
X0415361Y0054655D01*
X0415456Y0054593D01*
X0415549Y0054528D01*
X0415640Y0054460D01*
X0415728Y0054389D01*
X0415814Y0054314D01*
X0415897Y0054237D01*
X0415977Y0054157D01*
X0416054Y0054074D01*
X0416129Y0053988D01*
X0416200Y0053900D01*
X0416268Y0053809D01*
X0416333Y0053716D01*
X0416395Y0053621D01*
X0416454Y0053524D01*
X0416509Y0053425D01*
X0416560Y0053324D01*
X0416608Y0053221D01*
X0416652Y0053116D01*
X0416693Y0053011D01*
X0416730Y0052903D01*
X0416763Y0052795D01*
X0416792Y0052685D01*
X0416818Y0052575D01*
X0416840Y0052463D01*
X0416857Y0052351D01*
X0416871Y0052239D01*
X0416881Y0052126D01*
X0416887Y0052012D01*
X0416889Y0051899D01*
X0416887Y0051786D01*
X0416881Y0051672D01*
X0416871Y0051559D01*
X0416857Y0051447D01*
X0416840Y0051335D01*
X0416818Y0051223D01*
X0416792Y0051113D01*
X0416763Y0051003D01*
X0416730Y0050895D01*
X0416693Y0050787D01*
X0416652Y0050682D01*
X0416608Y0050577D01*
X0416560Y0050474D01*
X0416509Y0050373D01*
X0416454Y0050274D01*
X0416395Y0050177D01*
X0416333Y0050082D01*
X0416268Y0049989D01*
X0416200Y0049898D01*
X0416129Y0049810D01*
X0416054Y0049724D01*
X0415977Y0049641D01*
X0415897Y0049561D01*
X0415814Y0049484D01*
X0415728Y0049409D01*
X0415640Y0049338D01*
X0415549Y0049270D01*
X0415456Y0049205D01*
X0415361Y0049143D01*
X0415264Y0049084D01*
X0415165Y0049029D01*
X0415064Y0048978D01*
X0414961Y0048930D01*
X0414856Y0048886D01*
X0414751Y0048845D01*
X0414643Y0048808D01*
X0414535Y0048775D01*
X0414425Y0048746D01*
X0414315Y0048720D01*
X0414203Y0048698D01*
X0414091Y0048681D01*
X0413979Y0048667D01*
X0413866Y0048657D01*
X0413752Y0048651D01*
X0413639Y0048649D01*
X0413526Y0048651D01*
X0413412Y0048657D01*
X0413299Y0048667D01*
X0413187Y0048681D01*
X0413075Y0048698D01*
X0412963Y0048720D01*
X0412853Y0048746D01*
X0412743Y0048775D01*
X0412635Y0048808D01*
X0412527Y0048845D01*
X0412422Y0048886D01*
X0412317Y0048930D01*
X0412214Y0048978D01*
X0412113Y0049029D01*
X0412014Y0049084D01*
X0411917Y0049143D01*
X0411822Y0049205D01*
X0411729Y0049270D01*
X0411638Y0049338D01*
X0411550Y0049409D01*
X0411464Y0049484D01*
X0411381Y0049561D01*
X0411301Y0049641D01*
X0411224Y0049724D01*
X0411149Y0049810D01*
X0411078Y0049898D01*
X0411010Y0049989D01*
X0410945Y0050082D01*
X0410883Y0050177D01*
X0410824Y0050274D01*
X0410769Y0050373D01*
X0410718Y0050474D01*
X0410670Y0050577D01*
X0410626Y0050682D01*
X0410585Y0050787D01*
X0410548Y0050895D01*
X0410515Y0051003D01*
X0410486Y0051113D01*
X0410460Y0051223D01*
X0410438Y0051335D01*
X0410421Y0051447D01*
X0410407Y0051559D01*
X0410397Y0051672D01*
X0410391Y0051786D01*
X0410389Y0051899D01*
D11*
X0202369Y0147840D02*
X0201752Y0148457D01*
X0201752Y0150926D01*
X0201135Y0150309D02*
X0202369Y0150309D01*
X0199920Y0149692D02*
X0199920Y0147840D01*
X0198069Y0147840D01*
X0197451Y0148457D01*
X0198069Y0149075D01*
X0199920Y0149075D01*
X0199920Y0149692D02*
X0199303Y0150309D01*
X0198069Y0150309D01*
X0196237Y0149692D02*
X0196237Y0149075D01*
X0193768Y0149075D01*
X0193768Y0149692D02*
X0194385Y0150309D01*
X0195620Y0150309D01*
X0196237Y0149692D01*
X0195620Y0147840D02*
X0194385Y0147840D01*
X0193768Y0148457D01*
X0193768Y0149692D01*
X0192551Y0150309D02*
X0191933Y0150309D01*
X0190699Y0149075D01*
X0190699Y0150309D02*
X0190699Y0147840D01*
X0189485Y0147840D02*
X0187633Y0147840D01*
X0187016Y0148457D01*
X0187016Y0149692D01*
X0187633Y0150309D01*
X0189485Y0150309D01*
X0189485Y0147223D01*
X0188867Y0146606D01*
X0188250Y0146606D01*
X0182118Y0147840D02*
X0180267Y0147840D01*
X0179650Y0148457D01*
X0179650Y0149692D01*
X0180267Y0150309D01*
X0182118Y0150309D01*
X0182118Y0151543D02*
X0182118Y0147840D01*
X0178435Y0149075D02*
X0175966Y0149075D01*
X0175966Y0149692D02*
X0176584Y0150309D01*
X0177818Y0150309D01*
X0178435Y0149692D01*
X0178435Y0149075D01*
X0177818Y0147840D02*
X0176584Y0147840D01*
X0175966Y0148457D01*
X0175966Y0149692D01*
X0174749Y0150309D02*
X0172897Y0149075D01*
X0174749Y0147840D01*
X0172897Y0147840D02*
X0172897Y0151543D01*
X0171679Y0150309D02*
X0171062Y0150309D01*
X0169828Y0149075D01*
X0169828Y0150309D02*
X0169828Y0147840D01*
X0168613Y0148457D02*
X0168613Y0149692D01*
X0167996Y0150309D01*
X0166762Y0150309D01*
X0166145Y0149692D01*
X0166145Y0148457D01*
X0166762Y0147840D01*
X0167996Y0147840D01*
X0168613Y0148457D01*
X0164930Y0148457D02*
X0164930Y0150309D01*
X0164930Y0148457D02*
X0164313Y0147840D01*
X0163696Y0148457D01*
X0163079Y0147840D01*
X0162462Y0148457D01*
X0162462Y0150309D01*
X0157564Y0150309D02*
X0155712Y0150309D01*
X0155095Y0149692D01*
X0155712Y0149075D01*
X0156947Y0149075D01*
X0157564Y0148457D01*
X0156947Y0147840D01*
X0155095Y0147840D01*
X0153878Y0150309D02*
X0153260Y0150309D01*
X0152026Y0149075D01*
X0150812Y0149075D02*
X0148343Y0149075D01*
X0148343Y0149692D02*
X0148960Y0150309D01*
X0150194Y0150309D01*
X0150812Y0149692D01*
X0150812Y0149075D01*
X0150194Y0147840D02*
X0148960Y0147840D01*
X0148343Y0148457D01*
X0148343Y0149692D01*
X0147128Y0149692D02*
X0147128Y0148457D01*
X0146511Y0147840D01*
X0144660Y0147840D01*
X0143439Y0147840D02*
X0142204Y0147840D01*
X0142821Y0147840D02*
X0142821Y0150309D01*
X0142204Y0150309D01*
X0142821Y0151543D02*
X0142821Y0152161D01*
X0143435Y0153840D02*
X0142818Y0154457D01*
X0143435Y0155075D01*
X0145287Y0155075D01*
X0145287Y0155692D02*
X0145287Y0153840D01*
X0143435Y0153840D01*
X0141604Y0154457D02*
X0141604Y0155692D01*
X0140987Y0156309D01*
X0139135Y0156309D01*
X0139135Y0157543D02*
X0139135Y0153840D01*
X0140987Y0153840D01*
X0141604Y0154457D01*
X0143435Y0156309D02*
X0144670Y0156309D01*
X0145287Y0155692D01*
X0145277Y0159840D02*
X0144660Y0160457D01*
X0147128Y0162926D01*
X0147128Y0160457D01*
X0146511Y0159840D01*
X0145277Y0159840D01*
X0144660Y0160457D02*
X0144660Y0162926D01*
X0145277Y0163543D01*
X0146511Y0163543D01*
X0147128Y0162926D01*
X0148343Y0162309D02*
X0149577Y0163543D01*
X0149577Y0159840D01*
X0148343Y0159840D02*
X0150812Y0159840D01*
X0152026Y0160457D02*
X0152643Y0159840D01*
X0153878Y0159840D01*
X0154495Y0160457D01*
X0154495Y0161075D01*
X0153878Y0161692D01*
X0152026Y0161692D01*
X0152026Y0160457D01*
X0152026Y0161692D02*
X0153260Y0162926D01*
X0154495Y0163543D01*
X0154488Y0165840D02*
X0153871Y0166457D01*
X0153871Y0168926D01*
X0153254Y0168309D02*
X0154488Y0168309D01*
X0155709Y0167692D02*
X0156326Y0168309D01*
X0157561Y0168309D01*
X0158178Y0167692D01*
X0158178Y0167075D01*
X0155709Y0167075D01*
X0155709Y0167692D02*
X0155709Y0166457D01*
X0156326Y0165840D01*
X0157561Y0165840D01*
X0159392Y0165840D02*
X0160627Y0165840D01*
X0160009Y0165840D02*
X0160009Y0168309D01*
X0159392Y0168309D01*
X0160009Y0169543D02*
X0160009Y0170161D01*
X0161848Y0168309D02*
X0163699Y0168309D01*
X0164316Y0167692D01*
X0164316Y0165840D01*
X0161848Y0165840D02*
X0161848Y0168309D01*
X0152039Y0168309D02*
X0150188Y0168309D01*
X0149571Y0167692D01*
X0150188Y0167075D01*
X0151422Y0167075D01*
X0152039Y0166457D01*
X0151422Y0165840D01*
X0149571Y0165840D01*
X0148356Y0165840D02*
X0148356Y0167692D01*
X0147739Y0168309D01*
X0145887Y0168309D01*
X0145887Y0165840D01*
X0144666Y0165840D02*
X0143432Y0165840D01*
X0144049Y0165840D02*
X0144049Y0168309D01*
X0143432Y0168309D01*
X0142218Y0167692D02*
X0142218Y0167075D01*
X0139749Y0167075D01*
X0139749Y0167692D02*
X0140366Y0168309D01*
X0141600Y0168309D01*
X0142218Y0167692D01*
X0141600Y0165840D02*
X0140366Y0165840D01*
X0139749Y0166457D01*
X0139749Y0167692D01*
X0138534Y0169543D02*
X0136066Y0169543D01*
X0136066Y0165840D01*
X0136066Y0167692D02*
X0137300Y0167692D01*
X0135462Y0163543D02*
X0134227Y0163543D01*
X0133610Y0162926D01*
X0135462Y0163543D02*
X0136079Y0162926D01*
X0136079Y0162309D01*
X0133610Y0159840D01*
X0136079Y0159840D01*
X0137293Y0159840D02*
X0139762Y0163543D01*
X0140977Y0162926D02*
X0141594Y0163543D01*
X0142828Y0163543D01*
X0143445Y0162926D01*
X0143445Y0162309D01*
X0140977Y0159840D01*
X0143445Y0159840D01*
X0137921Y0155692D02*
X0137921Y0153840D01*
X0136069Y0153840D01*
X0135452Y0154457D01*
X0136069Y0155075D01*
X0137921Y0155075D01*
X0137921Y0155692D02*
X0137303Y0156309D01*
X0136069Y0156309D01*
X0134237Y0156926D02*
X0133620Y0157543D01*
X0132386Y0157543D01*
X0131769Y0156926D01*
X0131769Y0156309D01*
X0132386Y0155692D01*
X0133620Y0155692D01*
X0134237Y0155075D01*
X0134237Y0154457D01*
X0133620Y0153840D01*
X0132386Y0153840D01*
X0131769Y0154457D01*
X0126868Y0156309D02*
X0126251Y0156309D01*
X0125016Y0155075D01*
X0125016Y0156309D02*
X0125016Y0153840D01*
X0123802Y0154457D02*
X0123185Y0153840D01*
X0121950Y0153840D01*
X0121333Y0154457D01*
X0121333Y0155692D01*
X0121950Y0156309D01*
X0123185Y0156309D01*
X0123802Y0155692D01*
X0123802Y0154457D01*
X0121333Y0151543D02*
X0121333Y0147840D01*
X0121333Y0149692D02*
X0121950Y0150309D01*
X0123185Y0150309D01*
X0123802Y0149692D01*
X0123802Y0147840D01*
X0125016Y0148457D02*
X0125016Y0149692D01*
X0125633Y0150309D01*
X0126868Y0150309D01*
X0127485Y0149692D01*
X0127485Y0149075D01*
X0125016Y0149075D01*
X0125016Y0148457D02*
X0125633Y0147840D01*
X0126868Y0147840D01*
X0132383Y0148457D02*
X0132383Y0149692D01*
X0133000Y0150309D01*
X0134851Y0150309D01*
X0136683Y0150309D02*
X0137917Y0150309D01*
X0138534Y0149692D01*
X0138534Y0147840D01*
X0136683Y0147840D01*
X0136066Y0148457D01*
X0136683Y0149075D01*
X0138534Y0149075D01*
X0139749Y0147840D02*
X0140983Y0147840D01*
X0140366Y0147840D02*
X0140366Y0151543D01*
X0139749Y0151543D01*
X0144660Y0150309D02*
X0146511Y0150309D01*
X0147128Y0149692D01*
X0144660Y0150309D02*
X0144660Y0146606D01*
X0152026Y0147840D02*
X0152026Y0150309D01*
X0134851Y0147840D02*
X0133000Y0147840D01*
X0132383Y0148457D01*
X0120119Y0151543D02*
X0117650Y0151543D01*
X0118884Y0151543D02*
X0118884Y0147840D01*
X0117650Y0153840D02*
X0117650Y0157543D01*
X0120119Y0157543D01*
X0118884Y0155692D02*
X0117650Y0155692D01*
X0118884Y0159840D02*
X0117650Y0161075D01*
X0117650Y0162309D01*
X0118884Y0163543D01*
X0120105Y0162926D02*
X0120723Y0163543D01*
X0121957Y0163543D01*
X0122574Y0162926D01*
X0123789Y0163543D02*
X0125023Y0162309D01*
X0125023Y0161075D01*
X0123789Y0159840D01*
X0122574Y0160457D02*
X0121957Y0159840D01*
X0120723Y0159840D01*
X0120105Y0160457D01*
X0120105Y0162926D01*
X0120119Y0165840D02*
X0120119Y0168309D01*
X0118884Y0169543D01*
X0117650Y0168309D01*
X0117650Y0165840D01*
X0117650Y0167692D02*
X0120119Y0167692D01*
X0121333Y0167692D02*
X0121950Y0168309D01*
X0123802Y0168309D01*
X0123802Y0169543D02*
X0123802Y0165840D01*
X0121950Y0165840D01*
X0121333Y0166457D01*
X0121333Y0167692D01*
X0119502Y0170606D02*
X0120119Y0171223D01*
X0120119Y0174309D01*
X0118267Y0174309D01*
X0117650Y0173692D01*
X0117650Y0172457D01*
X0118267Y0171840D01*
X0120119Y0171840D01*
X0121333Y0171840D02*
X0121333Y0175543D01*
X0121333Y0174309D02*
X0123185Y0174309D01*
X0123802Y0173692D01*
X0123802Y0172457D01*
X0123185Y0171840D01*
X0121333Y0171840D01*
X0119502Y0170606D02*
X0118884Y0170606D01*
X0125016Y0172457D02*
X0125633Y0173075D01*
X0127485Y0173075D01*
X0127485Y0173692D02*
X0127485Y0171840D01*
X0125633Y0171840D01*
X0125016Y0172457D01*
X0125633Y0174309D02*
X0126868Y0174309D01*
X0127485Y0173692D01*
X0128699Y0172457D02*
X0128699Y0171840D01*
X0131168Y0171840D01*
X0132383Y0172457D02*
X0132383Y0173692D01*
X0133000Y0174309D01*
X0134234Y0174309D01*
X0134851Y0173692D01*
X0134851Y0173075D01*
X0132383Y0173075D01*
X0132383Y0172457D02*
X0133000Y0171840D01*
X0134234Y0171840D01*
X0136066Y0171840D02*
X0136066Y0174309D01*
X0136066Y0173075D02*
X0137300Y0174309D01*
X0137917Y0174309D01*
X0139135Y0173692D02*
X0139135Y0172457D01*
X0139752Y0171840D01*
X0140987Y0171840D01*
X0141604Y0172457D01*
X0141604Y0173692D01*
X0140987Y0174309D01*
X0139752Y0174309D01*
X0139135Y0173692D01*
X0144049Y0170161D02*
X0144049Y0169543D01*
X0131168Y0167692D02*
X0131168Y0165840D01*
X0129934Y0165840D02*
X0129934Y0167692D01*
X0130551Y0168309D01*
X0131168Y0167692D01*
X0129934Y0167692D02*
X0129317Y0168309D01*
X0128699Y0168309D01*
X0128699Y0165840D01*
X0127485Y0165840D02*
X0125633Y0165840D01*
X0125016Y0166457D01*
X0125633Y0167075D01*
X0127485Y0167075D01*
X0127485Y0167692D02*
X0127485Y0165840D01*
X0127485Y0167692D02*
X0126868Y0168309D01*
X0125633Y0168309D01*
X0131162Y0163543D02*
X0131162Y0159840D01*
X0132396Y0159840D02*
X0129927Y0159840D01*
X0129927Y0162309D02*
X0131162Y0163543D01*
X0128699Y0172457D02*
X0131168Y0174926D01*
X0131168Y0175543D01*
X0128699Y0175543D01*
D12*
X0246598Y0133972D02*
X0247031Y0133104D01*
X0247899Y0132237D01*
X0247899Y0133538D01*
X0248333Y0133972D01*
X0248766Y0133972D01*
X0249200Y0133538D01*
X0249200Y0132670D01*
X0248766Y0132237D01*
X0247899Y0132237D01*
X0248766Y0131025D02*
X0249200Y0130591D01*
X0249200Y0129724D01*
X0248766Y0129290D01*
X0247031Y0129290D01*
X0246598Y0129724D01*
X0246598Y0130591D01*
X0247031Y0131025D01*
X0254598Y0130591D02*
X0254598Y0129724D01*
X0255031Y0129290D01*
X0256766Y0129290D01*
X0257200Y0129724D01*
X0257200Y0130591D01*
X0256766Y0131025D01*
X0256766Y0132237D02*
X0256333Y0132237D01*
X0255899Y0132670D01*
X0255899Y0133538D01*
X0256333Y0133972D01*
X0256766Y0133972D01*
X0257200Y0133538D01*
X0257200Y0132670D01*
X0256766Y0132237D01*
X0255899Y0132670D02*
X0255465Y0132237D01*
X0255031Y0132237D01*
X0254598Y0132670D01*
X0254598Y0133538D01*
X0255031Y0133972D01*
X0255465Y0133972D01*
X0255899Y0133538D01*
X0255031Y0131025D02*
X0254598Y0130591D01*
X0274140Y0123202D02*
X0274140Y0121034D01*
X0274574Y0120600D01*
X0275441Y0120600D01*
X0275875Y0121034D01*
X0275875Y0123202D01*
X0277087Y0122335D02*
X0277954Y0123202D01*
X0277954Y0120600D01*
X0277087Y0120600D02*
X0278821Y0120600D01*
X0288298Y0113155D02*
X0288731Y0113589D01*
X0289165Y0113589D01*
X0289599Y0113155D01*
X0289599Y0112287D01*
X0289165Y0111854D01*
X0288731Y0111854D01*
X0288298Y0112287D01*
X0288298Y0113155D01*
X0289599Y0113155D02*
X0290033Y0113589D01*
X0290466Y0113589D01*
X0290900Y0113155D01*
X0290900Y0112287D01*
X0290466Y0111854D01*
X0290033Y0111854D01*
X0289599Y0112287D01*
X0289599Y0110642D02*
X0288731Y0110642D01*
X0288298Y0110208D01*
X0288298Y0108907D01*
X0290900Y0108907D01*
X0290033Y0108907D02*
X0290033Y0110208D01*
X0289599Y0110642D01*
X0290033Y0109775D02*
X0290900Y0110642D01*
X0286027Y0104449D02*
X0286027Y0102714D01*
X0286027Y0103582D02*
X0283425Y0103582D01*
X0284292Y0102714D01*
X0283858Y0101503D02*
X0283425Y0101069D01*
X0283425Y0099768D01*
X0286027Y0099768D01*
X0286027Y0101069D01*
X0285593Y0101503D01*
X0283858Y0101503D01*
X0280381Y0088582D02*
X0280381Y0085980D01*
X0281248Y0085980D02*
X0279513Y0085980D01*
X0278302Y0085980D02*
X0277434Y0086848D01*
X0276567Y0086414D02*
X0277001Y0085980D01*
X0277868Y0085980D01*
X0278302Y0086414D01*
X0278302Y0088149D01*
X0277868Y0088582D01*
X0277001Y0088582D01*
X0276567Y0088149D01*
X0276567Y0086414D01*
X0279513Y0087715D02*
X0280381Y0088582D01*
X0282734Y0078092D02*
X0282300Y0077659D01*
X0282300Y0075924D01*
X0282734Y0075490D01*
X0283601Y0075490D01*
X0284035Y0075924D01*
X0285247Y0075924D02*
X0285680Y0075490D01*
X0286548Y0075490D01*
X0286981Y0075924D01*
X0286981Y0077659D01*
X0286548Y0078092D01*
X0285680Y0078092D01*
X0285247Y0077659D01*
X0285247Y0077225D01*
X0285680Y0076791D01*
X0286981Y0076791D01*
X0284035Y0077659D02*
X0283601Y0078092D01*
X0282734Y0078092D01*
X0312800Y0091490D02*
X0312800Y0094092D01*
X0314101Y0094092D01*
X0314535Y0093659D01*
X0314535Y0092791D01*
X0314101Y0092358D01*
X0312800Y0092358D01*
X0313667Y0092358D02*
X0314535Y0091490D01*
X0315747Y0091924D02*
X0316180Y0091490D01*
X0317048Y0091490D01*
X0317481Y0091924D01*
X0317481Y0092358D01*
X0317048Y0092791D01*
X0316614Y0092791D01*
X0317048Y0092791D02*
X0317481Y0093225D01*
X0317481Y0093659D01*
X0317048Y0094092D01*
X0316180Y0094092D01*
X0315747Y0093659D01*
X0315747Y0105490D02*
X0317481Y0105490D01*
X0316614Y0105490D02*
X0316614Y0108092D01*
X0315747Y0107225D01*
X0314535Y0106791D02*
X0314101Y0106358D01*
X0312800Y0106358D01*
X0313667Y0106358D02*
X0314535Y0105490D01*
X0314535Y0106791D02*
X0314535Y0107659D01*
X0314101Y0108092D01*
X0312800Y0108092D01*
X0312800Y0105490D01*
X0267700Y0106580D02*
X0265098Y0106580D01*
X0265098Y0107881D01*
X0265531Y0108315D01*
X0266399Y0108315D01*
X0266833Y0107881D01*
X0266833Y0106580D01*
X0266833Y0107448D02*
X0267700Y0108315D01*
X0267700Y0109527D02*
X0265965Y0111262D01*
X0265531Y0111262D01*
X0265098Y0110828D01*
X0265098Y0109960D01*
X0265531Y0109527D01*
X0267700Y0109527D02*
X0267700Y0111262D01*
X0243998Y0111119D02*
X0242263Y0109384D01*
X0242263Y0108950D01*
X0241052Y0108950D02*
X0240184Y0109818D01*
X0240618Y0109818D02*
X0239317Y0109818D01*
X0239317Y0108950D02*
X0239317Y0111552D01*
X0240618Y0111552D01*
X0241052Y0111119D01*
X0241052Y0110251D01*
X0240618Y0109818D01*
X0242263Y0111552D02*
X0243998Y0111552D01*
X0243998Y0111119D01*
X0243998Y0103552D02*
X0243131Y0103119D01*
X0242263Y0102251D01*
X0243565Y0102251D01*
X0243998Y0101818D01*
X0243998Y0101384D01*
X0243565Y0100950D01*
X0242697Y0100950D01*
X0242263Y0101384D01*
X0242263Y0102251D01*
X0241052Y0102251D02*
X0240618Y0101818D01*
X0239317Y0101818D01*
X0240184Y0101818D02*
X0241052Y0100950D01*
X0241052Y0102251D02*
X0241052Y0103119D01*
X0240618Y0103552D01*
X0239317Y0103552D01*
X0239317Y0100950D01*
X0239317Y0095552D02*
X0240618Y0095552D01*
X0241052Y0095119D01*
X0241052Y0094251D01*
X0240618Y0093818D01*
X0239317Y0093818D01*
X0240184Y0093818D02*
X0241052Y0092950D01*
X0242263Y0093384D02*
X0242697Y0092950D01*
X0243565Y0092950D01*
X0243998Y0093384D01*
X0243998Y0094251D01*
X0243565Y0094685D01*
X0243131Y0094685D01*
X0242263Y0094251D01*
X0242263Y0095552D01*
X0243998Y0095552D01*
X0239317Y0095552D02*
X0239317Y0092950D01*
X0239317Y0087552D02*
X0240618Y0087552D01*
X0241052Y0087119D01*
X0241052Y0086251D01*
X0240618Y0085818D01*
X0239317Y0085818D01*
X0240184Y0085818D02*
X0241052Y0084950D01*
X0239317Y0084950D02*
X0239317Y0087552D01*
X0242263Y0086251D02*
X0243998Y0086251D01*
X0243565Y0084950D02*
X0243565Y0087552D01*
X0242263Y0086251D01*
X0253210Y0176950D02*
X0253210Y0179552D01*
X0254511Y0179552D01*
X0254945Y0179119D01*
X0254945Y0178251D01*
X0254511Y0177818D01*
X0253210Y0177818D01*
X0254077Y0177818D02*
X0254945Y0176950D01*
X0256157Y0176950D02*
X0257891Y0176950D01*
X0257024Y0176950D02*
X0257024Y0179552D01*
X0256157Y0178685D01*
X0259103Y0178685D02*
X0259537Y0178251D01*
X0260838Y0178251D01*
X0260838Y0177384D02*
X0260838Y0179119D01*
X0260404Y0179552D01*
X0259537Y0179552D01*
X0259103Y0179119D01*
X0259103Y0178685D01*
X0259103Y0177384D02*
X0259537Y0176950D01*
X0260404Y0176950D01*
X0260838Y0177384D01*
X0261105Y0182450D02*
X0260238Y0183318D01*
X0260672Y0183318D02*
X0259370Y0183318D01*
X0259370Y0182450D02*
X0259370Y0185052D01*
X0260672Y0185052D01*
X0261105Y0184619D01*
X0261105Y0183751D01*
X0260672Y0183318D01*
X0262317Y0184185D02*
X0263184Y0185052D01*
X0263184Y0182450D01*
X0262317Y0182450D02*
X0264052Y0182450D01*
X0265263Y0182884D02*
X0265263Y0183318D01*
X0265697Y0183751D01*
X0266565Y0183751D01*
X0266998Y0183318D01*
X0266998Y0182884D01*
X0266565Y0182450D01*
X0265697Y0182450D01*
X0265263Y0182884D01*
X0265697Y0183751D02*
X0265263Y0184185D01*
X0265263Y0184619D01*
X0265697Y0185052D01*
X0266565Y0185052D01*
X0266998Y0184619D01*
X0266998Y0184185D01*
X0266565Y0183751D01*
D13*
X0266537Y0186350D02*
X0267471Y0187284D01*
X0267471Y0187518D01*
X0267237Y0187751D01*
X0266770Y0187751D01*
X0266537Y0187518D01*
X0265998Y0187518D02*
X0265764Y0187751D01*
X0265297Y0187751D01*
X0265063Y0187518D01*
X0265998Y0187518D02*
X0265998Y0187284D01*
X0265063Y0186350D01*
X0265998Y0186350D01*
X0266537Y0186350D02*
X0267471Y0186350D01*
X0255417Y0182318D02*
X0255184Y0182551D01*
X0254717Y0182551D01*
X0254483Y0182318D01*
X0253944Y0182318D02*
X0253711Y0182551D01*
X0253244Y0182551D01*
X0253010Y0182318D01*
X0253944Y0182318D02*
X0253944Y0182084D01*
X0253010Y0181150D01*
X0253944Y0181150D01*
X0254483Y0181150D02*
X0255417Y0182084D01*
X0255417Y0182318D01*
X0255417Y0181150D02*
X0254483Y0181150D01*
X0258499Y0135181D02*
X0258499Y0134247D01*
X0259900Y0134247D01*
X0259666Y0133708D02*
X0259199Y0133708D01*
X0259666Y0133708D02*
X0259900Y0133474D01*
X0259900Y0133240D01*
X0259666Y0133007D01*
X0260134Y0133007D01*
X0260367Y0132773D01*
X0259900Y0132234D02*
X0259900Y0131300D01*
X0259900Y0131767D02*
X0258499Y0131767D01*
X0258966Y0131300D01*
X0259666Y0130797D02*
X0259900Y0130797D01*
X0259900Y0130564D01*
X0259666Y0130564D01*
X0259666Y0130797D01*
X0259666Y0130024D02*
X0259900Y0129791D01*
X0259900Y0129324D01*
X0259666Y0129090D01*
X0258732Y0130024D01*
X0259666Y0130024D01*
X0258732Y0130024D02*
X0258499Y0129791D01*
X0258499Y0129324D01*
X0258732Y0129090D01*
X0259666Y0129090D01*
X0259666Y0133007D02*
X0259199Y0133007D01*
X0259199Y0134247D02*
X0259199Y0134714D01*
X0252367Y0132037D02*
X0252134Y0132270D01*
X0251666Y0132270D01*
X0251900Y0132504D01*
X0251900Y0132737D01*
X0251666Y0132971D01*
X0251199Y0132971D01*
X0251199Y0133510D02*
X0251199Y0133977D01*
X0250499Y0133510D02*
X0250499Y0134444D01*
X0250499Y0133510D02*
X0251900Y0133510D01*
X0251666Y0132270D02*
X0251199Y0132270D01*
X0250732Y0131498D02*
X0251666Y0130564D01*
X0251900Y0130797D01*
X0251900Y0131264D01*
X0251666Y0131498D01*
X0250732Y0131498D01*
X0250499Y0131264D01*
X0250499Y0130797D01*
X0250732Y0130564D01*
X0251666Y0130564D01*
X0251900Y0130024D02*
X0251900Y0129090D01*
X0251900Y0129557D02*
X0250499Y0129557D01*
X0250966Y0129090D01*
X0244237Y0114251D02*
X0244471Y0114018D01*
X0243537Y0113084D01*
X0243770Y0112850D01*
X0244237Y0112850D01*
X0244471Y0113084D01*
X0244471Y0114018D01*
X0244237Y0114251D02*
X0243770Y0114251D01*
X0243537Y0114018D01*
X0243537Y0113084D01*
X0242998Y0113084D02*
X0242764Y0112850D01*
X0242297Y0112850D01*
X0242063Y0113084D01*
X0242998Y0114018D01*
X0242998Y0113084D01*
X0242998Y0114018D02*
X0242764Y0114251D01*
X0242297Y0114251D01*
X0242063Y0114018D01*
X0242063Y0113084D01*
X0241524Y0112850D02*
X0240590Y0112850D01*
X0241057Y0112850D02*
X0241057Y0114251D01*
X0240590Y0113784D01*
X0241057Y0106251D02*
X0241057Y0104850D01*
X0240590Y0104850D02*
X0241524Y0104850D01*
X0242063Y0105084D02*
X0242998Y0106018D01*
X0242998Y0105084D01*
X0242764Y0104850D01*
X0242297Y0104850D01*
X0242063Y0105084D01*
X0242063Y0106018D01*
X0242297Y0106251D01*
X0242764Y0106251D01*
X0242998Y0106018D01*
X0243537Y0106018D02*
X0243770Y0106251D01*
X0244237Y0106251D01*
X0244471Y0106018D01*
X0243537Y0105084D01*
X0243770Y0104850D01*
X0244237Y0104850D01*
X0244471Y0105084D01*
X0244471Y0106018D01*
X0243537Y0106018D02*
X0243537Y0105084D01*
X0241057Y0106251D02*
X0240590Y0105784D01*
X0241057Y0098251D02*
X0241057Y0096850D01*
X0240590Y0096850D02*
X0241524Y0096850D01*
X0242063Y0097084D02*
X0242998Y0098018D01*
X0242998Y0097084D01*
X0242764Y0096850D01*
X0242297Y0096850D01*
X0242063Y0097084D01*
X0242063Y0098018D01*
X0242297Y0098251D01*
X0242764Y0098251D01*
X0242998Y0098018D01*
X0243537Y0098018D02*
X0243770Y0098251D01*
X0244237Y0098251D01*
X0244471Y0098018D01*
X0243537Y0097084D01*
X0243770Y0096850D01*
X0244237Y0096850D01*
X0244471Y0097084D01*
X0244471Y0098018D01*
X0243537Y0098018D02*
X0243537Y0097084D01*
X0241057Y0098251D02*
X0240590Y0097784D01*
X0241057Y0090251D02*
X0241057Y0088850D01*
X0240590Y0088850D02*
X0241524Y0088850D01*
X0242063Y0089084D02*
X0242998Y0090018D01*
X0242998Y0089084D01*
X0242764Y0088850D01*
X0242297Y0088850D01*
X0242063Y0089084D01*
X0242063Y0090018D01*
X0242297Y0090251D01*
X0242764Y0090251D01*
X0242998Y0090018D01*
X0243537Y0090018D02*
X0243770Y0090251D01*
X0244237Y0090251D01*
X0244471Y0090018D01*
X0243537Y0089084D01*
X0243770Y0088850D01*
X0244237Y0088850D01*
X0244471Y0089084D01*
X0244471Y0090018D01*
X0243537Y0090018D02*
X0243537Y0089084D01*
X0241057Y0090251D02*
X0240590Y0089784D01*
X0272234Y0097088D02*
X0273635Y0097088D01*
X0273635Y0096621D02*
X0273635Y0097556D01*
X0273635Y0098095D02*
X0272234Y0098095D01*
X0273635Y0099029D01*
X0272234Y0099029D01*
X0272934Y0099568D02*
X0272934Y0100502D01*
X0272701Y0101041D02*
X0272234Y0101508D01*
X0273635Y0101508D01*
X0273635Y0101041D02*
X0273635Y0101975D01*
X0272934Y0102514D02*
X0272934Y0103449D01*
X0272701Y0103988D02*
X0272467Y0103988D01*
X0272234Y0104221D01*
X0272234Y0104688D01*
X0272467Y0104922D01*
X0272701Y0104922D01*
X0272934Y0104688D01*
X0272934Y0104221D01*
X0272701Y0103988D01*
X0272934Y0104221D02*
X0273168Y0103988D01*
X0273401Y0103988D01*
X0273635Y0104221D01*
X0273635Y0104688D01*
X0273401Y0104922D01*
X0273168Y0104922D01*
X0272934Y0104688D01*
X0272234Y0103215D02*
X0272934Y0102514D01*
X0272234Y0103215D02*
X0273635Y0103215D01*
X0273635Y0100269D02*
X0272234Y0100269D01*
X0272934Y0099568D01*
X0272234Y0097088D02*
X0272701Y0096621D01*
X0273420Y0091281D02*
X0274121Y0091281D01*
X0274355Y0091048D01*
X0274355Y0090814D01*
X0274121Y0090581D01*
X0273420Y0090581D01*
X0273420Y0091281D02*
X0273420Y0089880D01*
X0274121Y0089880D01*
X0274355Y0090114D01*
X0274355Y0090347D01*
X0274121Y0090581D01*
X0274894Y0090814D02*
X0275127Y0090581D01*
X0275594Y0090581D01*
X0275828Y0090347D01*
X0275828Y0090114D01*
X0275594Y0089880D01*
X0275127Y0089880D01*
X0274894Y0090114D01*
X0274894Y0090814D02*
X0274894Y0091048D01*
X0275127Y0091281D01*
X0275594Y0091281D01*
X0275828Y0091048D01*
X0276367Y0091048D02*
X0276367Y0090814D01*
X0276600Y0090581D01*
X0277068Y0090581D01*
X0277301Y0090347D01*
X0277301Y0090114D01*
X0277068Y0089880D01*
X0276600Y0089880D01*
X0276367Y0090114D01*
X0276367Y0091048D02*
X0276600Y0091281D01*
X0277068Y0091281D01*
X0277301Y0091048D01*
X0277840Y0090814D02*
X0278307Y0091281D01*
X0278307Y0089880D01*
X0277840Y0089880D02*
X0278774Y0089880D01*
X0279313Y0090114D02*
X0279547Y0089880D01*
X0280014Y0089880D01*
X0280248Y0090114D01*
X0280248Y0090347D01*
X0280014Y0090581D01*
X0279781Y0090581D01*
X0280014Y0090581D02*
X0280248Y0090814D01*
X0280248Y0091048D01*
X0280014Y0091281D01*
X0279547Y0091281D01*
X0279313Y0091048D01*
X0280787Y0091048D02*
X0280787Y0090814D01*
X0281020Y0090581D01*
X0281487Y0090581D01*
X0281721Y0090347D01*
X0281721Y0090114D01*
X0281487Y0089880D01*
X0281020Y0089880D01*
X0280787Y0090114D01*
X0280787Y0090347D01*
X0281020Y0090581D01*
X0281487Y0090581D02*
X0281721Y0090814D01*
X0281721Y0091048D01*
X0281487Y0091281D01*
X0281020Y0091281D01*
X0280787Y0091048D01*
X0270166Y0106380D02*
X0270400Y0106614D01*
X0270400Y0107081D01*
X0270166Y0107314D01*
X0269933Y0107314D01*
X0269699Y0107081D01*
X0269699Y0106847D01*
X0269699Y0107081D02*
X0269466Y0107314D01*
X0269232Y0107314D01*
X0268999Y0107081D01*
X0268999Y0106614D01*
X0269232Y0106380D01*
X0270166Y0107854D02*
X0270166Y0108087D01*
X0270400Y0108087D01*
X0270400Y0107854D01*
X0270166Y0107854D01*
X0270166Y0108590D02*
X0270400Y0108824D01*
X0270400Y0109291D01*
X0270166Y0109524D01*
X0269232Y0109524D01*
X0268999Y0109291D01*
X0268999Y0108824D01*
X0269232Y0108590D01*
X0269466Y0108590D01*
X0269699Y0108824D01*
X0269699Y0109524D01*
X0269933Y0110063D02*
X0268999Y0110998D01*
X0268999Y0110063D02*
X0270400Y0110063D01*
X0269699Y0110297D02*
X0270400Y0110998D01*
X0285599Y0110648D02*
X0287000Y0110648D01*
X0287000Y0111115D02*
X0287000Y0110180D01*
X0286066Y0110180D02*
X0285599Y0110648D01*
X0285832Y0111654D02*
X0285599Y0111887D01*
X0285599Y0112354D01*
X0285832Y0112588D01*
X0286766Y0111654D01*
X0287000Y0111887D01*
X0287000Y0112354D01*
X0286766Y0112588D01*
X0285832Y0112588D01*
X0285599Y0113127D02*
X0287000Y0113127D01*
X0286533Y0113127D02*
X0285599Y0114061D01*
X0286299Y0113361D02*
X0287000Y0114061D01*
X0286766Y0111654D02*
X0285832Y0111654D01*
X0282007Y0124500D02*
X0281540Y0124500D01*
X0281306Y0124734D01*
X0280767Y0124734D02*
X0280534Y0124500D01*
X0280067Y0124500D01*
X0279833Y0124734D01*
X0280767Y0125668D01*
X0280767Y0124734D01*
X0280767Y0125668D02*
X0280534Y0125901D01*
X0280067Y0125901D01*
X0279833Y0125668D01*
X0279833Y0124734D01*
X0279294Y0124734D02*
X0279060Y0124500D01*
X0278593Y0124500D01*
X0278360Y0124734D01*
X0278360Y0124967D01*
X0278593Y0125201D01*
X0279060Y0125201D01*
X0279294Y0124967D01*
X0279294Y0124734D01*
X0279060Y0125201D02*
X0279294Y0125434D01*
X0279294Y0125668D01*
X0279060Y0125901D01*
X0278593Y0125901D01*
X0278360Y0125668D01*
X0278360Y0125434D01*
X0278593Y0125201D01*
X0277821Y0125901D02*
X0276887Y0124500D01*
X0276347Y0125201D02*
X0276114Y0124967D01*
X0275413Y0124967D01*
X0275413Y0124500D02*
X0275413Y0125901D01*
X0276114Y0125901D01*
X0276347Y0125668D01*
X0276347Y0125201D01*
X0276887Y0125901D02*
X0277821Y0124500D01*
X0274874Y0124500D02*
X0274874Y0125434D01*
X0274407Y0125901D01*
X0273940Y0125434D01*
X0273940Y0124500D01*
X0273940Y0125201D02*
X0274874Y0125201D01*
X0281306Y0125668D02*
X0281540Y0125901D01*
X0282007Y0125901D01*
X0282240Y0125668D01*
X0282240Y0125434D01*
X0282007Y0125201D01*
X0282240Y0124967D01*
X0282240Y0124734D01*
X0282007Y0124500D01*
X0282007Y0125201D02*
X0281773Y0125201D01*
X0312600Y0103958D02*
X0312834Y0104191D01*
X0313301Y0104191D01*
X0313534Y0103958D01*
X0312600Y0103024D01*
X0312834Y0102790D01*
X0313301Y0102790D01*
X0313534Y0103024D01*
X0313534Y0103958D01*
X0312600Y0103958D02*
X0312600Y0103024D01*
X0312834Y0090191D02*
X0313301Y0090191D01*
X0313534Y0089958D01*
X0312600Y0089024D01*
X0312834Y0088790D01*
X0313301Y0088790D01*
X0313534Y0089024D01*
X0313534Y0089958D01*
X0312834Y0090191D02*
X0312600Y0089958D01*
X0312600Y0089024D01*
X0287454Y0074191D02*
X0286520Y0074191D01*
X0286520Y0072790D01*
X0285981Y0073024D02*
X0285747Y0072790D01*
X0285514Y0072790D01*
X0285280Y0073024D01*
X0285280Y0072557D01*
X0285047Y0072323D01*
X0285280Y0073024D02*
X0285280Y0073491D01*
X0285981Y0073491D02*
X0285981Y0073024D01*
X0286520Y0073491D02*
X0286987Y0073491D01*
X0284507Y0073958D02*
X0283573Y0073024D01*
X0283807Y0072790D01*
X0284274Y0072790D01*
X0284507Y0073024D01*
X0284507Y0073958D01*
X0284274Y0074191D01*
X0283807Y0074191D01*
X0283573Y0073958D01*
X0283573Y0073024D01*
X0283034Y0072790D02*
X0282100Y0072790D01*
X0282567Y0072790D02*
X0282567Y0074191D01*
X0282100Y0073724D01*
D14*
X0228352Y0102123D02*
X0228352Y0110784D01*
X0234730Y0112359D02*
X0236698Y0110390D01*
X0236698Y0114327D01*
X0234730Y0112359D01*
X0234734Y0112363D02*
X0236698Y0112363D01*
X0236698Y0112861D02*
X0235232Y0112861D01*
X0235731Y0113360D02*
X0236698Y0113360D01*
X0236698Y0113858D02*
X0236229Y0113858D01*
X0236698Y0111864D02*
X0235224Y0111864D01*
X0235723Y0111366D02*
X0236698Y0111366D01*
X0236698Y0110867D02*
X0236221Y0110867D01*
X0228352Y0102123D02*
X0224415Y0102123D01*
X0213194Y0102123D02*
X0208667Y0102123D01*
X0208667Y0218658D01*
X0213194Y0218658D01*
X0224415Y0218658D02*
X0228352Y0218658D01*
X0228352Y0209997D01*
D15*
X0276434Y0104967D02*
X0276434Y0097093D01*
X0277615Y0099652D02*
X0279190Y0102015D01*
X0280765Y0099652D01*
X0277615Y0099652D01*
X0278403Y0100243D02*
X0279190Y0101424D01*
X0279977Y0100243D01*
X0278403Y0100243D01*
X0278845Y0100907D02*
X0279535Y0100907D01*
X0281946Y0097093D02*
X0281946Y0104967D01*
X0283076Y0091449D02*
X0283076Y0086280D01*
X0286851Y0086280D01*
X0292469Y0086280D02*
X0296244Y0086280D01*
X0296244Y0091449D01*
X0290591Y0091480D02*
X0288784Y0091480D01*
D16*
X0279190Y0102408D03*
D17*
X0418999Y0135543D02*
X0419361Y0134005D01*
X0421623Y0132558D01*
X0444419Y0122336D01*
X0449032Y0131382D01*
X0450842Y0131563D01*
X0457445Y0124145D01*
X0479789Y0142418D01*
X0481237Y0143052D01*
X0511541Y0142871D01*
X0513079Y0143504D01*
X0513079Y0153455D01*
X0517059Y0156168D01*
X0470110Y0198323D02*
X0468843Y0197509D01*
X0468120Y0198142D01*
X0467667Y0198957D01*
X0464592Y0202032D01*
X0461697Y0203842D01*
X0457445Y0204294D01*
X0453917Y0203661D01*
X0450661Y0201670D01*
X0448671Y0199047D01*
X0420899Y0185930D01*
X0419361Y0184664D01*
X0419180Y0182855D01*
X0422889Y0175075D01*
X0420989Y0171818D01*
X0419452Y0168290D01*
X0418276Y0162953D01*
X0417914Y0155716D01*
X0419180Y0150379D01*
X0420989Y0146670D01*
X0422708Y0143956D01*
X0418999Y0135543D01*
X0470110Y0198323D02*
X0482684Y0210717D01*
X0483860Y0211621D01*
X0485126Y0211350D01*
X0486664Y0210264D01*
X0492001Y0205198D01*
X0495620Y0205832D01*
X0500414Y0214968D01*
X0517059Y0207369D01*
X0117642Y0106031D02*
X0117642Y0042346D01*
X0117640Y0042221D01*
X0117634Y0042096D01*
X0117624Y0041971D01*
X0117611Y0041847D01*
X0117593Y0041723D01*
X0117572Y0041600D01*
X0117546Y0041478D01*
X0117517Y0041356D01*
X0117484Y0041236D01*
X0117447Y0041116D01*
X0117407Y0040998D01*
X0117363Y0040881D01*
X0117315Y0040765D01*
X0117263Y0040651D01*
X0117208Y0040539D01*
X0117150Y0040429D01*
X0117088Y0040320D01*
X0117022Y0040213D01*
X0116954Y0040109D01*
X0116882Y0040007D01*
X0116807Y0039907D01*
X0116729Y0039809D01*
X0116647Y0039714D01*
X0116563Y0039621D01*
X0116476Y0039532D01*
X0116386Y0039445D01*
X0116294Y0039361D01*
X0116199Y0039279D01*
X0116101Y0039201D01*
X0116001Y0039126D01*
X0115899Y0039054D01*
X0115795Y0038986D01*
X0115688Y0038920D01*
X0115579Y0038858D01*
X0115469Y0038800D01*
X0115357Y0038745D01*
X0115243Y0038693D01*
X0115127Y0038645D01*
X0115010Y0038601D01*
X0114892Y0038561D01*
X0114772Y0038524D01*
X0114652Y0038491D01*
X0114530Y0038462D01*
X0114408Y0038436D01*
X0114285Y0038415D01*
X0114161Y0038397D01*
X0114037Y0038384D01*
X0113912Y0038374D01*
X0113787Y0038368D01*
X0113662Y0038366D01*
X0098917Y0038366D01*
X0085619Y0042346D02*
X0083538Y0044246D01*
X0081186Y0046869D01*
X0079468Y0049764D01*
X0078111Y0053654D01*
X0077658Y0057272D01*
X0077658Y0068128D01*
X0077568Y0079616D02*
X0077568Y0090743D01*
X0078201Y0094633D01*
X0079196Y0097708D01*
X0081548Y0101327D01*
X0084533Y0104764D01*
X0088242Y0107297D01*
X0092946Y0109107D01*
X0096112Y0109468D01*
X0114205Y0109468D01*
X0114205Y0109469D02*
X0114320Y0109467D01*
X0114435Y0109461D01*
X0114549Y0109452D01*
X0114663Y0109438D01*
X0114777Y0109421D01*
X0114890Y0109400D01*
X0115002Y0109375D01*
X0115113Y0109347D01*
X0115224Y0109315D01*
X0115333Y0109279D01*
X0115441Y0109239D01*
X0115547Y0109196D01*
X0115652Y0109150D01*
X0115756Y0109099D01*
X0115857Y0109046D01*
X0115957Y0108989D01*
X0116055Y0108929D01*
X0116151Y0108865D01*
X0116244Y0108799D01*
X0116336Y0108729D01*
X0116425Y0108656D01*
X0116511Y0108581D01*
X0116595Y0108502D01*
X0116676Y0108421D01*
X0116755Y0108337D01*
X0116830Y0108251D01*
X0116903Y0108162D01*
X0116973Y0108070D01*
X0117039Y0107977D01*
X0117103Y0107881D01*
X0117163Y0107783D01*
X0117220Y0107683D01*
X0117273Y0107582D01*
X0117324Y0107478D01*
X0117370Y0107373D01*
X0117413Y0107267D01*
X0117453Y0107159D01*
X0117489Y0107050D01*
X0117521Y0106939D01*
X0117549Y0106828D01*
X0117574Y0106716D01*
X0117595Y0106603D01*
X0117612Y0106489D01*
X0117626Y0106375D01*
X0117635Y0106261D01*
X0117641Y0106146D01*
X0117643Y0106031D01*
X0095555Y0130981D02*
X0091304Y0126910D01*
X0060547Y0105471D01*
X0058376Y0104295D01*
X0055662Y0103390D01*
X0053853Y0103390D01*
X0051048Y0104385D01*
X0048877Y0106104D01*
X0040103Y0118316D01*
X0037208Y0119583D01*
X0032232Y0122025D01*
X0027348Y0125101D01*
X0022553Y0128720D01*
X0017578Y0133514D01*
X0013597Y0138489D01*
X0045938Y0137087D02*
X0045942Y0137377D01*
X0045952Y0137666D01*
X0045970Y0137955D01*
X0045995Y0138244D01*
X0046027Y0138532D01*
X0046066Y0138819D01*
X0046112Y0139105D01*
X0046165Y0139390D01*
X0046225Y0139673D01*
X0046292Y0139955D01*
X0046366Y0140236D01*
X0046446Y0140514D01*
X0046534Y0140790D01*
X0046628Y0141064D01*
X0046729Y0141336D01*
X0046837Y0141605D01*
X0046951Y0141871D01*
X0047071Y0142134D01*
X0047198Y0142395D01*
X0047332Y0142652D01*
X0047472Y0142906D01*
X0047618Y0143156D01*
X0047770Y0143403D01*
X0047928Y0143646D01*
X0048091Y0143884D01*
X0048261Y0144119D01*
X0048437Y0144350D01*
X0048618Y0144576D01*
X0048804Y0144798D01*
X0048996Y0145015D01*
X0049193Y0145227D01*
X0049396Y0145434D01*
X0049603Y0145637D01*
X0049815Y0145834D01*
X0050032Y0146026D01*
X0050254Y0146212D01*
X0050480Y0146393D01*
X0050711Y0146569D01*
X0050946Y0146739D01*
X0051184Y0146902D01*
X0051427Y0147060D01*
X0051674Y0147212D01*
X0051924Y0147358D01*
X0052178Y0147498D01*
X0052435Y0147632D01*
X0052696Y0147759D01*
X0052959Y0147879D01*
X0053225Y0147993D01*
X0053494Y0148101D01*
X0053766Y0148202D01*
X0054040Y0148296D01*
X0054316Y0148384D01*
X0054594Y0148464D01*
X0054875Y0148538D01*
X0055157Y0148605D01*
X0055440Y0148665D01*
X0055725Y0148718D01*
X0056011Y0148764D01*
X0056298Y0148803D01*
X0056586Y0148835D01*
X0056875Y0148860D01*
X0057164Y0148878D01*
X0057453Y0148888D01*
X0057743Y0148892D01*
X0058033Y0148888D01*
X0058322Y0148878D01*
X0058611Y0148860D01*
X0058900Y0148835D01*
X0059188Y0148803D01*
X0059475Y0148764D01*
X0059761Y0148718D01*
X0060046Y0148665D01*
X0060329Y0148605D01*
X0060611Y0148538D01*
X0060892Y0148464D01*
X0061170Y0148384D01*
X0061446Y0148296D01*
X0061720Y0148202D01*
X0061992Y0148101D01*
X0062261Y0147993D01*
X0062527Y0147879D01*
X0062790Y0147759D01*
X0063051Y0147632D01*
X0063308Y0147498D01*
X0063562Y0147358D01*
X0063812Y0147212D01*
X0064059Y0147060D01*
X0064302Y0146902D01*
X0064540Y0146739D01*
X0064775Y0146569D01*
X0065006Y0146393D01*
X0065232Y0146212D01*
X0065454Y0146026D01*
X0065671Y0145834D01*
X0065883Y0145637D01*
X0066090Y0145434D01*
X0066293Y0145227D01*
X0066490Y0145015D01*
X0066682Y0144798D01*
X0066868Y0144576D01*
X0067049Y0144350D01*
X0067225Y0144119D01*
X0067395Y0143884D01*
X0067558Y0143646D01*
X0067716Y0143403D01*
X0067868Y0143156D01*
X0068014Y0142906D01*
X0068154Y0142652D01*
X0068288Y0142395D01*
X0068415Y0142134D01*
X0068535Y0141871D01*
X0068649Y0141605D01*
X0068757Y0141336D01*
X0068858Y0141064D01*
X0068952Y0140790D01*
X0069040Y0140514D01*
X0069120Y0140236D01*
X0069194Y0139955D01*
X0069261Y0139673D01*
X0069321Y0139390D01*
X0069374Y0139105D01*
X0069420Y0138819D01*
X0069459Y0138532D01*
X0069491Y0138244D01*
X0069516Y0137955D01*
X0069534Y0137666D01*
X0069544Y0137377D01*
X0069548Y0137087D01*
X0069544Y0136797D01*
X0069534Y0136508D01*
X0069516Y0136219D01*
X0069491Y0135930D01*
X0069459Y0135642D01*
X0069420Y0135355D01*
X0069374Y0135069D01*
X0069321Y0134784D01*
X0069261Y0134501D01*
X0069194Y0134219D01*
X0069120Y0133938D01*
X0069040Y0133660D01*
X0068952Y0133384D01*
X0068858Y0133110D01*
X0068757Y0132838D01*
X0068649Y0132569D01*
X0068535Y0132303D01*
X0068415Y0132040D01*
X0068288Y0131779D01*
X0068154Y0131522D01*
X0068014Y0131268D01*
X0067868Y0131018D01*
X0067716Y0130771D01*
X0067558Y0130528D01*
X0067395Y0130290D01*
X0067225Y0130055D01*
X0067049Y0129824D01*
X0066868Y0129598D01*
X0066682Y0129376D01*
X0066490Y0129159D01*
X0066293Y0128947D01*
X0066090Y0128740D01*
X0065883Y0128537D01*
X0065671Y0128340D01*
X0065454Y0128148D01*
X0065232Y0127962D01*
X0065006Y0127781D01*
X0064775Y0127605D01*
X0064540Y0127435D01*
X0064302Y0127272D01*
X0064059Y0127114D01*
X0063812Y0126962D01*
X0063562Y0126816D01*
X0063308Y0126676D01*
X0063051Y0126542D01*
X0062790Y0126415D01*
X0062527Y0126295D01*
X0062261Y0126181D01*
X0061992Y0126073D01*
X0061720Y0125972D01*
X0061446Y0125878D01*
X0061170Y0125790D01*
X0060892Y0125710D01*
X0060611Y0125636D01*
X0060329Y0125569D01*
X0060046Y0125509D01*
X0059761Y0125456D01*
X0059475Y0125410D01*
X0059188Y0125371D01*
X0058900Y0125339D01*
X0058611Y0125314D01*
X0058322Y0125296D01*
X0058033Y0125286D01*
X0057743Y0125282D01*
X0057453Y0125286D01*
X0057164Y0125296D01*
X0056875Y0125314D01*
X0056586Y0125339D01*
X0056298Y0125371D01*
X0056011Y0125410D01*
X0055725Y0125456D01*
X0055440Y0125509D01*
X0055157Y0125569D01*
X0054875Y0125636D01*
X0054594Y0125710D01*
X0054316Y0125790D01*
X0054040Y0125878D01*
X0053766Y0125972D01*
X0053494Y0126073D01*
X0053225Y0126181D01*
X0052959Y0126295D01*
X0052696Y0126415D01*
X0052435Y0126542D01*
X0052178Y0126676D01*
X0051924Y0126816D01*
X0051674Y0126962D01*
X0051427Y0127114D01*
X0051184Y0127272D01*
X0050946Y0127435D01*
X0050711Y0127605D01*
X0050480Y0127781D01*
X0050254Y0127962D01*
X0050032Y0128148D01*
X0049815Y0128340D01*
X0049603Y0128537D01*
X0049396Y0128740D01*
X0049193Y0128947D01*
X0048996Y0129159D01*
X0048804Y0129376D01*
X0048618Y0129598D01*
X0048437Y0129824D01*
X0048261Y0130055D01*
X0048091Y0130290D01*
X0047928Y0130528D01*
X0047770Y0130771D01*
X0047618Y0131018D01*
X0047472Y0131268D01*
X0047332Y0131522D01*
X0047198Y0131779D01*
X0047071Y0132040D01*
X0046951Y0132303D01*
X0046837Y0132569D01*
X0046729Y0132838D01*
X0046628Y0133110D01*
X0046534Y0133384D01*
X0046446Y0133660D01*
X0046366Y0133938D01*
X0046292Y0134219D01*
X0046225Y0134501D01*
X0046165Y0134784D01*
X0046112Y0135069D01*
X0046066Y0135355D01*
X0046027Y0135642D01*
X0045995Y0135930D01*
X0045970Y0136219D01*
X0045952Y0136508D01*
X0045942Y0136797D01*
X0045938Y0137087D01*
X0014674Y0168432D02*
X0014678Y0168722D01*
X0014688Y0169011D01*
X0014706Y0169300D01*
X0014731Y0169589D01*
X0014763Y0169877D01*
X0014802Y0170164D01*
X0014848Y0170450D01*
X0014901Y0170735D01*
X0014961Y0171018D01*
X0015028Y0171300D01*
X0015102Y0171581D01*
X0015182Y0171859D01*
X0015270Y0172135D01*
X0015364Y0172409D01*
X0015465Y0172681D01*
X0015573Y0172950D01*
X0015687Y0173216D01*
X0015807Y0173479D01*
X0015934Y0173740D01*
X0016068Y0173997D01*
X0016208Y0174251D01*
X0016354Y0174501D01*
X0016506Y0174748D01*
X0016664Y0174991D01*
X0016827Y0175229D01*
X0016997Y0175464D01*
X0017173Y0175695D01*
X0017354Y0175921D01*
X0017540Y0176143D01*
X0017732Y0176360D01*
X0017929Y0176572D01*
X0018132Y0176779D01*
X0018339Y0176982D01*
X0018551Y0177179D01*
X0018768Y0177371D01*
X0018990Y0177557D01*
X0019216Y0177738D01*
X0019447Y0177914D01*
X0019682Y0178084D01*
X0019920Y0178247D01*
X0020163Y0178405D01*
X0020410Y0178557D01*
X0020660Y0178703D01*
X0020914Y0178843D01*
X0021171Y0178977D01*
X0021432Y0179104D01*
X0021695Y0179224D01*
X0021961Y0179338D01*
X0022230Y0179446D01*
X0022502Y0179547D01*
X0022776Y0179641D01*
X0023052Y0179729D01*
X0023330Y0179809D01*
X0023611Y0179883D01*
X0023893Y0179950D01*
X0024176Y0180010D01*
X0024461Y0180063D01*
X0024747Y0180109D01*
X0025034Y0180148D01*
X0025322Y0180180D01*
X0025611Y0180205D01*
X0025900Y0180223D01*
X0026189Y0180233D01*
X0026479Y0180237D01*
X0026769Y0180233D01*
X0027058Y0180223D01*
X0027347Y0180205D01*
X0027636Y0180180D01*
X0027924Y0180148D01*
X0028211Y0180109D01*
X0028497Y0180063D01*
X0028782Y0180010D01*
X0029065Y0179950D01*
X0029347Y0179883D01*
X0029628Y0179809D01*
X0029906Y0179729D01*
X0030182Y0179641D01*
X0030456Y0179547D01*
X0030728Y0179446D01*
X0030997Y0179338D01*
X0031263Y0179224D01*
X0031526Y0179104D01*
X0031787Y0178977D01*
X0032044Y0178843D01*
X0032298Y0178703D01*
X0032548Y0178557D01*
X0032795Y0178405D01*
X0033038Y0178247D01*
X0033276Y0178084D01*
X0033511Y0177914D01*
X0033742Y0177738D01*
X0033968Y0177557D01*
X0034190Y0177371D01*
X0034407Y0177179D01*
X0034619Y0176982D01*
X0034826Y0176779D01*
X0035029Y0176572D01*
X0035226Y0176360D01*
X0035418Y0176143D01*
X0035604Y0175921D01*
X0035785Y0175695D01*
X0035961Y0175464D01*
X0036131Y0175229D01*
X0036294Y0174991D01*
X0036452Y0174748D01*
X0036604Y0174501D01*
X0036750Y0174251D01*
X0036890Y0173997D01*
X0037024Y0173740D01*
X0037151Y0173479D01*
X0037271Y0173216D01*
X0037385Y0172950D01*
X0037493Y0172681D01*
X0037594Y0172409D01*
X0037688Y0172135D01*
X0037776Y0171859D01*
X0037856Y0171581D01*
X0037930Y0171300D01*
X0037997Y0171018D01*
X0038057Y0170735D01*
X0038110Y0170450D01*
X0038156Y0170164D01*
X0038195Y0169877D01*
X0038227Y0169589D01*
X0038252Y0169300D01*
X0038270Y0169011D01*
X0038280Y0168722D01*
X0038284Y0168432D01*
X0038280Y0168142D01*
X0038270Y0167853D01*
X0038252Y0167564D01*
X0038227Y0167275D01*
X0038195Y0166987D01*
X0038156Y0166700D01*
X0038110Y0166414D01*
X0038057Y0166129D01*
X0037997Y0165846D01*
X0037930Y0165564D01*
X0037856Y0165283D01*
X0037776Y0165005D01*
X0037688Y0164729D01*
X0037594Y0164455D01*
X0037493Y0164183D01*
X0037385Y0163914D01*
X0037271Y0163648D01*
X0037151Y0163385D01*
X0037024Y0163124D01*
X0036890Y0162867D01*
X0036750Y0162613D01*
X0036604Y0162363D01*
X0036452Y0162116D01*
X0036294Y0161873D01*
X0036131Y0161635D01*
X0035961Y0161400D01*
X0035785Y0161169D01*
X0035604Y0160943D01*
X0035418Y0160721D01*
X0035226Y0160504D01*
X0035029Y0160292D01*
X0034826Y0160085D01*
X0034619Y0159882D01*
X0034407Y0159685D01*
X0034190Y0159493D01*
X0033968Y0159307D01*
X0033742Y0159126D01*
X0033511Y0158950D01*
X0033276Y0158780D01*
X0033038Y0158617D01*
X0032795Y0158459D01*
X0032548Y0158307D01*
X0032298Y0158161D01*
X0032044Y0158021D01*
X0031787Y0157887D01*
X0031526Y0157760D01*
X0031263Y0157640D01*
X0030997Y0157526D01*
X0030728Y0157418D01*
X0030456Y0157317D01*
X0030182Y0157223D01*
X0029906Y0157135D01*
X0029628Y0157055D01*
X0029347Y0156981D01*
X0029065Y0156914D01*
X0028782Y0156854D01*
X0028497Y0156801D01*
X0028211Y0156755D01*
X0027924Y0156716D01*
X0027636Y0156684D01*
X0027347Y0156659D01*
X0027058Y0156641D01*
X0026769Y0156631D01*
X0026479Y0156627D01*
X0026189Y0156631D01*
X0025900Y0156641D01*
X0025611Y0156659D01*
X0025322Y0156684D01*
X0025034Y0156716D01*
X0024747Y0156755D01*
X0024461Y0156801D01*
X0024176Y0156854D01*
X0023893Y0156914D01*
X0023611Y0156981D01*
X0023330Y0157055D01*
X0023052Y0157135D01*
X0022776Y0157223D01*
X0022502Y0157317D01*
X0022230Y0157418D01*
X0021961Y0157526D01*
X0021695Y0157640D01*
X0021432Y0157760D01*
X0021171Y0157887D01*
X0020914Y0158021D01*
X0020660Y0158161D01*
X0020410Y0158307D01*
X0020163Y0158459D01*
X0019920Y0158617D01*
X0019682Y0158780D01*
X0019447Y0158950D01*
X0019216Y0159126D01*
X0018990Y0159307D01*
X0018768Y0159493D01*
X0018551Y0159685D01*
X0018339Y0159882D01*
X0018132Y0160085D01*
X0017929Y0160292D01*
X0017732Y0160504D01*
X0017540Y0160721D01*
X0017354Y0160943D01*
X0017173Y0161169D01*
X0016997Y0161400D01*
X0016827Y0161635D01*
X0016664Y0161873D01*
X0016506Y0162116D01*
X0016354Y0162363D01*
X0016208Y0162613D01*
X0016068Y0162867D01*
X0015934Y0163124D01*
X0015807Y0163385D01*
X0015687Y0163648D01*
X0015573Y0163914D01*
X0015465Y0164183D01*
X0015364Y0164455D01*
X0015270Y0164729D01*
X0015182Y0165005D01*
X0015102Y0165283D01*
X0015028Y0165564D01*
X0014961Y0165846D01*
X0014901Y0166129D01*
X0014848Y0166414D01*
X0014802Y0166700D01*
X0014763Y0166987D01*
X0014731Y0167275D01*
X0014706Y0167564D01*
X0014688Y0167853D01*
X0014678Y0168142D01*
X0014674Y0168432D01*
X0045938Y0199777D02*
X0045942Y0200067D01*
X0045952Y0200356D01*
X0045970Y0200645D01*
X0045995Y0200934D01*
X0046027Y0201222D01*
X0046066Y0201509D01*
X0046112Y0201795D01*
X0046165Y0202080D01*
X0046225Y0202363D01*
X0046292Y0202645D01*
X0046366Y0202926D01*
X0046446Y0203204D01*
X0046534Y0203480D01*
X0046628Y0203754D01*
X0046729Y0204026D01*
X0046837Y0204295D01*
X0046951Y0204561D01*
X0047071Y0204824D01*
X0047198Y0205085D01*
X0047332Y0205342D01*
X0047472Y0205596D01*
X0047618Y0205846D01*
X0047770Y0206093D01*
X0047928Y0206336D01*
X0048091Y0206574D01*
X0048261Y0206809D01*
X0048437Y0207040D01*
X0048618Y0207266D01*
X0048804Y0207488D01*
X0048996Y0207705D01*
X0049193Y0207917D01*
X0049396Y0208124D01*
X0049603Y0208327D01*
X0049815Y0208524D01*
X0050032Y0208716D01*
X0050254Y0208902D01*
X0050480Y0209083D01*
X0050711Y0209259D01*
X0050946Y0209429D01*
X0051184Y0209592D01*
X0051427Y0209750D01*
X0051674Y0209902D01*
X0051924Y0210048D01*
X0052178Y0210188D01*
X0052435Y0210322D01*
X0052696Y0210449D01*
X0052959Y0210569D01*
X0053225Y0210683D01*
X0053494Y0210791D01*
X0053766Y0210892D01*
X0054040Y0210986D01*
X0054316Y0211074D01*
X0054594Y0211154D01*
X0054875Y0211228D01*
X0055157Y0211295D01*
X0055440Y0211355D01*
X0055725Y0211408D01*
X0056011Y0211454D01*
X0056298Y0211493D01*
X0056586Y0211525D01*
X0056875Y0211550D01*
X0057164Y0211568D01*
X0057453Y0211578D01*
X0057743Y0211582D01*
X0058033Y0211578D01*
X0058322Y0211568D01*
X0058611Y0211550D01*
X0058900Y0211525D01*
X0059188Y0211493D01*
X0059475Y0211454D01*
X0059761Y0211408D01*
X0060046Y0211355D01*
X0060329Y0211295D01*
X0060611Y0211228D01*
X0060892Y0211154D01*
X0061170Y0211074D01*
X0061446Y0210986D01*
X0061720Y0210892D01*
X0061992Y0210791D01*
X0062261Y0210683D01*
X0062527Y0210569D01*
X0062790Y0210449D01*
X0063051Y0210322D01*
X0063308Y0210188D01*
X0063562Y0210048D01*
X0063812Y0209902D01*
X0064059Y0209750D01*
X0064302Y0209592D01*
X0064540Y0209429D01*
X0064775Y0209259D01*
X0065006Y0209083D01*
X0065232Y0208902D01*
X0065454Y0208716D01*
X0065671Y0208524D01*
X0065883Y0208327D01*
X0066090Y0208124D01*
X0066293Y0207917D01*
X0066490Y0207705D01*
X0066682Y0207488D01*
X0066868Y0207266D01*
X0067049Y0207040D01*
X0067225Y0206809D01*
X0067395Y0206574D01*
X0067558Y0206336D01*
X0067716Y0206093D01*
X0067868Y0205846D01*
X0068014Y0205596D01*
X0068154Y0205342D01*
X0068288Y0205085D01*
X0068415Y0204824D01*
X0068535Y0204561D01*
X0068649Y0204295D01*
X0068757Y0204026D01*
X0068858Y0203754D01*
X0068952Y0203480D01*
X0069040Y0203204D01*
X0069120Y0202926D01*
X0069194Y0202645D01*
X0069261Y0202363D01*
X0069321Y0202080D01*
X0069374Y0201795D01*
X0069420Y0201509D01*
X0069459Y0201222D01*
X0069491Y0200934D01*
X0069516Y0200645D01*
X0069534Y0200356D01*
X0069544Y0200067D01*
X0069548Y0199777D01*
X0069544Y0199487D01*
X0069534Y0199198D01*
X0069516Y0198909D01*
X0069491Y0198620D01*
X0069459Y0198332D01*
X0069420Y0198045D01*
X0069374Y0197759D01*
X0069321Y0197474D01*
X0069261Y0197191D01*
X0069194Y0196909D01*
X0069120Y0196628D01*
X0069040Y0196350D01*
X0068952Y0196074D01*
X0068858Y0195800D01*
X0068757Y0195528D01*
X0068649Y0195259D01*
X0068535Y0194993D01*
X0068415Y0194730D01*
X0068288Y0194469D01*
X0068154Y0194212D01*
X0068014Y0193958D01*
X0067868Y0193708D01*
X0067716Y0193461D01*
X0067558Y0193218D01*
X0067395Y0192980D01*
X0067225Y0192745D01*
X0067049Y0192514D01*
X0066868Y0192288D01*
X0066682Y0192066D01*
X0066490Y0191849D01*
X0066293Y0191637D01*
X0066090Y0191430D01*
X0065883Y0191227D01*
X0065671Y0191030D01*
X0065454Y0190838D01*
X0065232Y0190652D01*
X0065006Y0190471D01*
X0064775Y0190295D01*
X0064540Y0190125D01*
X0064302Y0189962D01*
X0064059Y0189804D01*
X0063812Y0189652D01*
X0063562Y0189506D01*
X0063308Y0189366D01*
X0063051Y0189232D01*
X0062790Y0189105D01*
X0062527Y0188985D01*
X0062261Y0188871D01*
X0061992Y0188763D01*
X0061720Y0188662D01*
X0061446Y0188568D01*
X0061170Y0188480D01*
X0060892Y0188400D01*
X0060611Y0188326D01*
X0060329Y0188259D01*
X0060046Y0188199D01*
X0059761Y0188146D01*
X0059475Y0188100D01*
X0059188Y0188061D01*
X0058900Y0188029D01*
X0058611Y0188004D01*
X0058322Y0187986D01*
X0058033Y0187976D01*
X0057743Y0187972D01*
X0057453Y0187976D01*
X0057164Y0187986D01*
X0056875Y0188004D01*
X0056586Y0188029D01*
X0056298Y0188061D01*
X0056011Y0188100D01*
X0055725Y0188146D01*
X0055440Y0188199D01*
X0055157Y0188259D01*
X0054875Y0188326D01*
X0054594Y0188400D01*
X0054316Y0188480D01*
X0054040Y0188568D01*
X0053766Y0188662D01*
X0053494Y0188763D01*
X0053225Y0188871D01*
X0052959Y0188985D01*
X0052696Y0189105D01*
X0052435Y0189232D01*
X0052178Y0189366D01*
X0051924Y0189506D01*
X0051674Y0189652D01*
X0051427Y0189804D01*
X0051184Y0189962D01*
X0050946Y0190125D01*
X0050711Y0190295D01*
X0050480Y0190471D01*
X0050254Y0190652D01*
X0050032Y0190838D01*
X0049815Y0191030D01*
X0049603Y0191227D01*
X0049396Y0191430D01*
X0049193Y0191637D01*
X0048996Y0191849D01*
X0048804Y0192066D01*
X0048618Y0192288D01*
X0048437Y0192514D01*
X0048261Y0192745D01*
X0048091Y0192980D01*
X0047928Y0193218D01*
X0047770Y0193461D01*
X0047618Y0193708D01*
X0047472Y0193958D01*
X0047332Y0194212D01*
X0047198Y0194469D01*
X0047071Y0194730D01*
X0046951Y0194993D01*
X0046837Y0195259D01*
X0046729Y0195528D01*
X0046628Y0195800D01*
X0046534Y0196074D01*
X0046446Y0196350D01*
X0046366Y0196628D01*
X0046292Y0196909D01*
X0046225Y0197191D01*
X0046165Y0197474D01*
X0046112Y0197759D01*
X0046066Y0198045D01*
X0046027Y0198332D01*
X0045995Y0198620D01*
X0045970Y0198909D01*
X0045952Y0199198D01*
X0045942Y0199487D01*
X0045938Y0199777D01*
X0037932Y0218005D02*
X0021648Y0213482D01*
X0049149Y0220447D02*
X0055752Y0221352D01*
X0059823Y0221261D01*
X0064346Y0220899D01*
X0068779Y0220266D01*
X0074206Y0218909D01*
X0080629Y0216286D01*
X0086419Y0213391D01*
X0091394Y0209592D01*
X0096279Y0205431D01*
X0099807Y0201088D01*
X0102883Y0197289D01*
X0105416Y0192495D01*
X0107768Y0186977D01*
X0110029Y0180373D01*
X0110934Y0173136D01*
X0111024Y0165990D01*
X0110391Y0159205D01*
X0108491Y0151787D01*
X0105868Y0145636D01*
X0103335Y0140660D01*
X0099807Y0135775D01*
X0095555Y0130981D01*
X0077282Y0168432D02*
X0077286Y0168722D01*
X0077296Y0169011D01*
X0077314Y0169300D01*
X0077339Y0169589D01*
X0077371Y0169877D01*
X0077410Y0170164D01*
X0077456Y0170450D01*
X0077509Y0170735D01*
X0077569Y0171018D01*
X0077636Y0171300D01*
X0077710Y0171581D01*
X0077790Y0171859D01*
X0077878Y0172135D01*
X0077972Y0172409D01*
X0078073Y0172681D01*
X0078181Y0172950D01*
X0078295Y0173216D01*
X0078415Y0173479D01*
X0078542Y0173740D01*
X0078676Y0173997D01*
X0078816Y0174251D01*
X0078962Y0174501D01*
X0079114Y0174748D01*
X0079272Y0174991D01*
X0079435Y0175229D01*
X0079605Y0175464D01*
X0079781Y0175695D01*
X0079962Y0175921D01*
X0080148Y0176143D01*
X0080340Y0176360D01*
X0080537Y0176572D01*
X0080740Y0176779D01*
X0080947Y0176982D01*
X0081159Y0177179D01*
X0081376Y0177371D01*
X0081598Y0177557D01*
X0081824Y0177738D01*
X0082055Y0177914D01*
X0082290Y0178084D01*
X0082528Y0178247D01*
X0082771Y0178405D01*
X0083018Y0178557D01*
X0083268Y0178703D01*
X0083522Y0178843D01*
X0083779Y0178977D01*
X0084040Y0179104D01*
X0084303Y0179224D01*
X0084569Y0179338D01*
X0084838Y0179446D01*
X0085110Y0179547D01*
X0085384Y0179641D01*
X0085660Y0179729D01*
X0085938Y0179809D01*
X0086219Y0179883D01*
X0086501Y0179950D01*
X0086784Y0180010D01*
X0087069Y0180063D01*
X0087355Y0180109D01*
X0087642Y0180148D01*
X0087930Y0180180D01*
X0088219Y0180205D01*
X0088508Y0180223D01*
X0088797Y0180233D01*
X0089087Y0180237D01*
X0089377Y0180233D01*
X0089666Y0180223D01*
X0089955Y0180205D01*
X0090244Y0180180D01*
X0090532Y0180148D01*
X0090819Y0180109D01*
X0091105Y0180063D01*
X0091390Y0180010D01*
X0091673Y0179950D01*
X0091955Y0179883D01*
X0092236Y0179809D01*
X0092514Y0179729D01*
X0092790Y0179641D01*
X0093064Y0179547D01*
X0093336Y0179446D01*
X0093605Y0179338D01*
X0093871Y0179224D01*
X0094134Y0179104D01*
X0094395Y0178977D01*
X0094652Y0178843D01*
X0094906Y0178703D01*
X0095156Y0178557D01*
X0095403Y0178405D01*
X0095646Y0178247D01*
X0095884Y0178084D01*
X0096119Y0177914D01*
X0096350Y0177738D01*
X0096576Y0177557D01*
X0096798Y0177371D01*
X0097015Y0177179D01*
X0097227Y0176982D01*
X0097434Y0176779D01*
X0097637Y0176572D01*
X0097834Y0176360D01*
X0098026Y0176143D01*
X0098212Y0175921D01*
X0098393Y0175695D01*
X0098569Y0175464D01*
X0098739Y0175229D01*
X0098902Y0174991D01*
X0099060Y0174748D01*
X0099212Y0174501D01*
X0099358Y0174251D01*
X0099498Y0173997D01*
X0099632Y0173740D01*
X0099759Y0173479D01*
X0099879Y0173216D01*
X0099993Y0172950D01*
X0100101Y0172681D01*
X0100202Y0172409D01*
X0100296Y0172135D01*
X0100384Y0171859D01*
X0100464Y0171581D01*
X0100538Y0171300D01*
X0100605Y0171018D01*
X0100665Y0170735D01*
X0100718Y0170450D01*
X0100764Y0170164D01*
X0100803Y0169877D01*
X0100835Y0169589D01*
X0100860Y0169300D01*
X0100878Y0169011D01*
X0100888Y0168722D01*
X0100892Y0168432D01*
X0100888Y0168142D01*
X0100878Y0167853D01*
X0100860Y0167564D01*
X0100835Y0167275D01*
X0100803Y0166987D01*
X0100764Y0166700D01*
X0100718Y0166414D01*
X0100665Y0166129D01*
X0100605Y0165846D01*
X0100538Y0165564D01*
X0100464Y0165283D01*
X0100384Y0165005D01*
X0100296Y0164729D01*
X0100202Y0164455D01*
X0100101Y0164183D01*
X0099993Y0163914D01*
X0099879Y0163648D01*
X0099759Y0163385D01*
X0099632Y0163124D01*
X0099498Y0162867D01*
X0099358Y0162613D01*
X0099212Y0162363D01*
X0099060Y0162116D01*
X0098902Y0161873D01*
X0098739Y0161635D01*
X0098569Y0161400D01*
X0098393Y0161169D01*
X0098212Y0160943D01*
X0098026Y0160721D01*
X0097834Y0160504D01*
X0097637Y0160292D01*
X0097434Y0160085D01*
X0097227Y0159882D01*
X0097015Y0159685D01*
X0096798Y0159493D01*
X0096576Y0159307D01*
X0096350Y0159126D01*
X0096119Y0158950D01*
X0095884Y0158780D01*
X0095646Y0158617D01*
X0095403Y0158459D01*
X0095156Y0158307D01*
X0094906Y0158161D01*
X0094652Y0158021D01*
X0094395Y0157887D01*
X0094134Y0157760D01*
X0093871Y0157640D01*
X0093605Y0157526D01*
X0093336Y0157418D01*
X0093064Y0157317D01*
X0092790Y0157223D01*
X0092514Y0157135D01*
X0092236Y0157055D01*
X0091955Y0156981D01*
X0091673Y0156914D01*
X0091390Y0156854D01*
X0091105Y0156801D01*
X0090819Y0156755D01*
X0090532Y0156716D01*
X0090244Y0156684D01*
X0089955Y0156659D01*
X0089666Y0156641D01*
X0089377Y0156631D01*
X0089087Y0156627D01*
X0088797Y0156631D01*
X0088508Y0156641D01*
X0088219Y0156659D01*
X0087930Y0156684D01*
X0087642Y0156716D01*
X0087355Y0156755D01*
X0087069Y0156801D01*
X0086784Y0156854D01*
X0086501Y0156914D01*
X0086219Y0156981D01*
X0085938Y0157055D01*
X0085660Y0157135D01*
X0085384Y0157223D01*
X0085110Y0157317D01*
X0084838Y0157418D01*
X0084569Y0157526D01*
X0084303Y0157640D01*
X0084040Y0157760D01*
X0083779Y0157887D01*
X0083522Y0158021D01*
X0083268Y0158161D01*
X0083018Y0158307D01*
X0082771Y0158459D01*
X0082528Y0158617D01*
X0082290Y0158780D01*
X0082055Y0158950D01*
X0081824Y0159126D01*
X0081598Y0159307D01*
X0081376Y0159493D01*
X0081159Y0159685D01*
X0080947Y0159882D01*
X0080740Y0160085D01*
X0080537Y0160292D01*
X0080340Y0160504D01*
X0080148Y0160721D01*
X0079962Y0160943D01*
X0079781Y0161169D01*
X0079605Y0161400D01*
X0079435Y0161635D01*
X0079272Y0161873D01*
X0079114Y0162116D01*
X0078962Y0162363D01*
X0078816Y0162613D01*
X0078676Y0162867D01*
X0078542Y0163124D01*
X0078415Y0163385D01*
X0078295Y0163648D01*
X0078181Y0163914D01*
X0078073Y0164183D01*
X0077972Y0164455D01*
X0077878Y0164729D01*
X0077790Y0165005D01*
X0077710Y0165283D01*
X0077636Y0165564D01*
X0077569Y0165846D01*
X0077509Y0166129D01*
X0077456Y0166414D01*
X0077410Y0166700D01*
X0077371Y0166987D01*
X0077339Y0167275D01*
X0077314Y0167564D01*
X0077296Y0167853D01*
X0077286Y0168142D01*
X0077282Y0168432D01*
D18*
X0489564Y0119938D02*
X0489564Y0088442D01*
X0513186Y0088442D01*
X0513186Y0119938D01*
X0489564Y0119938D01*
D19*
X0494468Y0085372D02*
X0493701Y0084605D01*
X0493701Y0083837D01*
X0494468Y0083070D01*
X0496003Y0083070D01*
X0496770Y0082303D01*
X0496770Y0081536D01*
X0496003Y0080768D01*
X0494468Y0080768D01*
X0493701Y0081536D01*
X0494468Y0085372D02*
X0496003Y0085372D01*
X0496770Y0084605D01*
X0498305Y0085372D02*
X0500607Y0085372D01*
X0501374Y0084605D01*
X0501374Y0083070D01*
X0500607Y0082303D01*
X0498305Y0082303D01*
X0498305Y0080768D02*
X0498305Y0085372D01*
X0502909Y0083837D02*
X0504443Y0085372D01*
X0504443Y0080768D01*
X0502909Y0080768D02*
X0505978Y0080768D01*
M02*
