%
M48
M72
T01C0.02362
T02C0.03200
T03C0.03300
T04C0.03500
T05C0.03937
T06C0.04724
T07C0.05000
T08C0.05500
T09C0.06500
T10C0.09843
T11C0.10000
T12C0.11811
T13C0.14961
T14C0.15748
%
T01
X134500Y72690
X138500Y91690
X143500Y95690
X148500Y99690
X153500Y103690
X180300Y113690
X165500Y125690
X220500Y114690
X265500Y87350
X265500Y75690
X340300Y105690
X366500Y143690
X366500Y154690
X400500Y180690
X387500Y194690
X350500Y215690
X367500Y219690
X372500Y231690
X372500Y242690
X367500Y249690
X357220Y257690
X362339Y262690
X351500Y252690
X390339Y262690
X430500Y244690
X430500Y237690
X430500Y228690
X461500Y242470
X464500Y143690
X469500Y139690
X438500Y118690
X441500Y101139
X420500Y139690
X409500Y143690
X330500Y180690
X285500Y190690
X279500Y178690
X270300Y175154
X260300Y179850
X265500Y183690
X250300Y194690
X255500Y198690
X215500Y224690
X230300Y236690
X220300Y240690
X205500Y244690
X200300Y244690
X218000Y248690
X240300Y228690
X289935Y252690
X298500Y244690
X300300Y232690
X304500Y224690
X190300Y198776
X180300Y202713
X170300Y190902
X85500Y248690
X169500Y254690
X181500Y254690
X175500Y271690
T02
X62500Y76690
X32500Y76690
X32500Y96690
X62500Y96690
T03
X289935Y276957
X298435Y276957
X306935Y276957
X306935Y268457
X298435Y268457
X289935Y268457
T04
X31863Y236966
X48999Y239987
X481017Y239062
X498153Y236040
T05
X188000Y262690
X198000Y262690
X208000Y262690
X218000Y262690
X228000Y262690
X238000Y262690
X248000Y262690
X258000Y262690
X501375Y111080
X501375Y97300
X480261Y78576
X472656Y76538
X465050Y74500
X457444Y72462
X449839Y70424
T06
X494254Y41567
X456225Y31377
T07
X69267Y53998
X97957Y45227
X24667Y225949
X59529Y232096
X470487Y231171
X505349Y225023
T08
X278335Y277957
X318535Y277957
T09
X423078Y25964
X413639Y51899
T10
X77966Y73956
X55207Y110519
X477803Y149283
T11
X127224Y280733
X403390Y280323
T12
X17287Y58065
X86914Y226182
X442562Y225964
X513843Y56983
T13
X457622Y191481
T14
X25664Y115245
X500664Y130557
M30
