%
M48
M72
T01C0.02362
T02C0.03200
T03C0.03300
T04C0.03937
T05C0.04331
T06C0.04724
T07C0.05000
T08C0.05500
T09C0.05512
T10C0.06500
T11C0.09843
T12C0.10000
T13C0.11811
T14C0.14961
%
T01
X141500Y101690
X147500Y104690
X144500Y113690
X180300Y137690
X235300Y107690
X284500Y107690
X340300Y121690
X366500Y146690
X366500Y157690
X350500Y180990
X411500Y197690
X420500Y209690
X430500Y228690
X430500Y237690
X430500Y244690
X402500Y135690
X285500Y186690
X280300Y184690
X270500Y177690
X265500Y181060
X260300Y177690
X249500Y190902
X255500Y199690
X275300Y202713
X302500Y224690
X286300Y232690
X298500Y244690
X289935Y252690
X310500Y257690
X351500Y252690
X357220Y257690
X367500Y262690
X379500Y237690
X374500Y234690
X362500Y237690
X374500Y223690
X275300Y153990
X250500Y158690
X190300Y195776
X180300Y198713
X170300Y190902
X215500Y224690
X230300Y236690
X220300Y240690
X205500Y244690
X200300Y244690
X218000Y248690
X240300Y228690
X181500Y254690
X169500Y254690
X175500Y271690
X85500Y248690
T02
X62500Y76690
X32500Y76690
X32500Y96690
X62500Y96690
T03
X289935Y276957
X298435Y276957
X306935Y276957
X306935Y268457
X298435Y268457
X289935Y268457
T04
X188000Y262690
X198000Y262690
X208000Y262690
X218000Y262690
X228000Y262690
X238000Y262690
X248000Y262690
X258000Y262690
X501375Y111080
X501375Y97300
X480261Y78576
X472656Y76538
X465050Y74500
X457444Y72462
X449839Y70424
T05
X31665Y237177
X49113Y240254
X480904Y239328
X498351Y236252
T06
X494254Y41567
X456225Y31377
T07
X69267Y53998
X97957Y45227
T08
X278335Y277957
X318535Y277957
T09
X28528Y226630
X55668Y231415
X474348Y230490
X501488Y225704
T10
X423078Y25964
X413639Y51899
T11
X77966Y73956
X55207Y110519
X477803Y149283
T12
X22664Y116245
X127224Y280733
X403390Y280323
X506664Y131557
T13
X17287Y58065
X86914Y226182
X442562Y225964
X513843Y56983
T14
X457622Y191481
M30
