G75*
%MOIN*%
%OFA0B0*%
%FSLAX25Y25*%
%IPPOS*%
%LPD*%
%AMOC8*
5,1,8,0,0,1.08239X$1,22.5*
%
%ADD10C,0.00000*%
D10*
X0012302Y0049630D02*
X0058595Y0035783D01*
X0063045Y0049233D01*
X0101103Y0037846D01*
X0097188Y0024403D01*
X0117930Y0018090D01*
X0117930Y0097690D01*
X0390870Y0097690D01*
X0390870Y0003378D01*
X0403473Y0003378D01*
X0403975Y0003312D02*
X0408625Y0002088D01*
X0410221Y0002343D02*
X0417983Y0007370D01*
X0418055Y0007419D01*
X0418125Y0007471D01*
X0418193Y0007526D01*
X0418258Y0007584D01*
X0418321Y0007645D01*
X0418380Y0007709D01*
X0418437Y0007775D01*
X0418492Y0007843D01*
X0418543Y0007914D01*
X0418591Y0007987D01*
X0418635Y0008062D01*
X0418677Y0008138D01*
X0418715Y0008217D01*
X0418749Y0008297D01*
X0418780Y0008379D01*
X0418808Y0008461D01*
X0418832Y0008545D01*
X0418852Y0008630D01*
X0418868Y0008716D01*
X0418881Y0008802D01*
X0418890Y0008889D01*
X0418895Y0008976D01*
X0418896Y0009063D01*
X0418893Y0009150D01*
X0418887Y0009237D01*
X0418877Y0009324D01*
X0418421Y0012607D01*
X0431137Y0017261D01*
X0436537Y0014608D01*
X0498428Y0031413D01*
X0498773Y0032197D01*
X0500524Y0036480D01*
X0504089Y0038115D01*
X0506643Y0039804D01*
X0508209Y0042029D01*
X0508992Y0044172D01*
X0508992Y0047913D01*
X0517365Y0047913D01*
X0520266Y0049924D01*
X0522178Y0051968D01*
X0522816Y0055034D01*
X0522816Y0099617D01*
X0516706Y0099617D01*
X0516706Y0161850D01*
X0518684Y0164734D01*
X0520374Y0167948D01*
X0521074Y0171327D01*
X0521404Y0176231D01*
X0521404Y0178662D01*
X0520374Y0183030D01*
X0518519Y0187398D01*
X0516720Y0189788D01*
X0516720Y0211736D01*
X0512231Y0211736D01*
X0512231Y0227654D01*
X0500899Y0242829D01*
X0462944Y0248835D01*
X0462944Y0257405D01*
X0442876Y0257405D01*
X0441310Y0255222D01*
X0439127Y0253491D01*
X0436242Y0252131D01*
X0433605Y0251472D01*
X0424169Y0251472D01*
X0422191Y0252626D01*
X0420914Y0254315D01*
X0410355Y0283262D01*
X0409376Y0285734D01*
X0407110Y0287640D01*
X0405204Y0288309D01*
X0389597Y0288309D01*
X0389597Y0274967D01*
X0348592Y0274967D01*
X0348592Y0285719D01*
X0337647Y0285719D01*
X0337647Y0269816D01*
X0325092Y0269816D01*
X0325092Y0285479D01*
X0182443Y0285479D01*
X0182450Y0276744D01*
X0168204Y0276744D01*
X0168204Y0269986D01*
X0155677Y0269986D01*
X0155677Y0276670D01*
X0143349Y0276670D01*
X0141964Y0277329D01*
X0141371Y0278648D01*
X0141371Y0289076D01*
X0125899Y0289076D01*
X0122932Y0287552D01*
X0120954Y0285286D01*
X0110084Y0254534D01*
X0109106Y0252989D01*
X0107200Y0251649D01*
X0105140Y0251139D01*
X0096476Y0251139D01*
X0095599Y0251424D01*
X0092055Y0253196D01*
X0089377Y0255256D01*
X0088141Y0257523D01*
X0067579Y0257523D01*
X0067579Y0249694D01*
X0029711Y0243613D01*
X0018944Y0228117D01*
X0018944Y0212930D01*
X0021027Y0212561D01*
X0023111Y0211453D01*
X0024588Y0210134D01*
X0024957Y0207919D01*
X0024772Y0206126D01*
X0023586Y0204570D01*
X0022161Y0204005D01*
X0014233Y0204005D01*
X0014233Y0191901D01*
X0014090Y0191551D01*
X0012837Y0188749D01*
X0011123Y0184563D01*
X0009640Y0180640D01*
X0008618Y0172893D01*
X0008288Y0167520D01*
X0009046Y0160136D01*
X0010398Y0153510D01*
X0012112Y0148400D01*
X0014423Y0143884D01*
X0014423Y0101097D01*
X0024176Y0101097D01*
X0024176Y0067634D01*
X0008549Y0067634D01*
X0008549Y0055693D01*
X0008825Y0053944D01*
X0010242Y0051433D01*
X0012302Y0049630D01*
X0011381Y0058065D02*
X0011383Y0058218D01*
X0011389Y0058372D01*
X0011399Y0058525D01*
X0011413Y0058677D01*
X0011431Y0058830D01*
X0011453Y0058981D01*
X0011478Y0059132D01*
X0011508Y0059283D01*
X0011542Y0059433D01*
X0011579Y0059581D01*
X0011620Y0059729D01*
X0011665Y0059875D01*
X0011714Y0060021D01*
X0011767Y0060165D01*
X0011823Y0060307D01*
X0011883Y0060448D01*
X0011947Y0060588D01*
X0012014Y0060726D01*
X0012085Y0060862D01*
X0012160Y0060996D01*
X0012237Y0061128D01*
X0012319Y0061258D01*
X0012403Y0061386D01*
X0012491Y0061512D01*
X0012582Y0061635D01*
X0012676Y0061756D01*
X0012774Y0061874D01*
X0012874Y0061990D01*
X0012978Y0062103D01*
X0013084Y0062214D01*
X0013193Y0062322D01*
X0013305Y0062427D01*
X0013419Y0062528D01*
X0013537Y0062627D01*
X0013656Y0062723D01*
X0013778Y0062816D01*
X0013903Y0062905D01*
X0014030Y0062992D01*
X0014159Y0063074D01*
X0014290Y0063154D01*
X0014423Y0063230D01*
X0014558Y0063303D01*
X0014695Y0063372D01*
X0014834Y0063437D01*
X0014974Y0063499D01*
X0015116Y0063557D01*
X0015259Y0063612D01*
X0015404Y0063663D01*
X0015550Y0063710D01*
X0015697Y0063753D01*
X0015845Y0063792D01*
X0015994Y0063828D01*
X0016144Y0063859D01*
X0016295Y0063887D01*
X0016446Y0063911D01*
X0016599Y0063931D01*
X0016751Y0063947D01*
X0016904Y0063959D01*
X0017057Y0063967D01*
X0017210Y0063971D01*
X0017364Y0063971D01*
X0017517Y0063967D01*
X0017670Y0063959D01*
X0017823Y0063947D01*
X0017975Y0063931D01*
X0018128Y0063911D01*
X0018279Y0063887D01*
X0018430Y0063859D01*
X0018580Y0063828D01*
X0018729Y0063792D01*
X0018877Y0063753D01*
X0019024Y0063710D01*
X0019170Y0063663D01*
X0019315Y0063612D01*
X0019458Y0063557D01*
X0019600Y0063499D01*
X0019740Y0063437D01*
X0019879Y0063372D01*
X0020016Y0063303D01*
X0020151Y0063230D01*
X0020284Y0063154D01*
X0020415Y0063074D01*
X0020544Y0062992D01*
X0020671Y0062905D01*
X0020796Y0062816D01*
X0020918Y0062723D01*
X0021037Y0062627D01*
X0021155Y0062528D01*
X0021269Y0062427D01*
X0021381Y0062322D01*
X0021490Y0062214D01*
X0021596Y0062103D01*
X0021700Y0061990D01*
X0021800Y0061874D01*
X0021898Y0061756D01*
X0021992Y0061635D01*
X0022083Y0061512D01*
X0022171Y0061386D01*
X0022255Y0061258D01*
X0022337Y0061128D01*
X0022414Y0060996D01*
X0022489Y0060862D01*
X0022560Y0060726D01*
X0022627Y0060588D01*
X0022691Y0060448D01*
X0022751Y0060307D01*
X0022807Y0060165D01*
X0022860Y0060021D01*
X0022909Y0059875D01*
X0022954Y0059729D01*
X0022995Y0059581D01*
X0023032Y0059433D01*
X0023066Y0059283D01*
X0023096Y0059132D01*
X0023121Y0058981D01*
X0023143Y0058830D01*
X0023161Y0058677D01*
X0023175Y0058525D01*
X0023185Y0058372D01*
X0023191Y0058218D01*
X0023193Y0058065D01*
X0023191Y0057912D01*
X0023185Y0057758D01*
X0023175Y0057605D01*
X0023161Y0057453D01*
X0023143Y0057300D01*
X0023121Y0057149D01*
X0023096Y0056998D01*
X0023066Y0056847D01*
X0023032Y0056697D01*
X0022995Y0056549D01*
X0022954Y0056401D01*
X0022909Y0056255D01*
X0022860Y0056109D01*
X0022807Y0055965D01*
X0022751Y0055823D01*
X0022691Y0055682D01*
X0022627Y0055542D01*
X0022560Y0055404D01*
X0022489Y0055268D01*
X0022414Y0055134D01*
X0022337Y0055002D01*
X0022255Y0054872D01*
X0022171Y0054744D01*
X0022083Y0054618D01*
X0021992Y0054495D01*
X0021898Y0054374D01*
X0021800Y0054256D01*
X0021700Y0054140D01*
X0021596Y0054027D01*
X0021490Y0053916D01*
X0021381Y0053808D01*
X0021269Y0053703D01*
X0021155Y0053602D01*
X0021037Y0053503D01*
X0020918Y0053407D01*
X0020796Y0053314D01*
X0020671Y0053225D01*
X0020544Y0053138D01*
X0020415Y0053056D01*
X0020284Y0052976D01*
X0020151Y0052900D01*
X0020016Y0052827D01*
X0019879Y0052758D01*
X0019740Y0052693D01*
X0019600Y0052631D01*
X0019458Y0052573D01*
X0019315Y0052518D01*
X0019170Y0052467D01*
X0019024Y0052420D01*
X0018877Y0052377D01*
X0018729Y0052338D01*
X0018580Y0052302D01*
X0018430Y0052271D01*
X0018279Y0052243D01*
X0018128Y0052219D01*
X0017975Y0052199D01*
X0017823Y0052183D01*
X0017670Y0052171D01*
X0017517Y0052163D01*
X0017364Y0052159D01*
X0017210Y0052159D01*
X0017057Y0052163D01*
X0016904Y0052171D01*
X0016751Y0052183D01*
X0016599Y0052199D01*
X0016446Y0052219D01*
X0016295Y0052243D01*
X0016144Y0052271D01*
X0015994Y0052302D01*
X0015845Y0052338D01*
X0015697Y0052377D01*
X0015550Y0052420D01*
X0015404Y0052467D01*
X0015259Y0052518D01*
X0015116Y0052573D01*
X0014974Y0052631D01*
X0014834Y0052693D01*
X0014695Y0052758D01*
X0014558Y0052827D01*
X0014423Y0052900D01*
X0014290Y0052976D01*
X0014159Y0053056D01*
X0014030Y0053138D01*
X0013903Y0053225D01*
X0013778Y0053314D01*
X0013656Y0053407D01*
X0013537Y0053503D01*
X0013419Y0053602D01*
X0013305Y0053703D01*
X0013193Y0053808D01*
X0013084Y0053916D01*
X0012978Y0054027D01*
X0012874Y0054140D01*
X0012774Y0054256D01*
X0012676Y0054374D01*
X0012582Y0054495D01*
X0012491Y0054618D01*
X0012403Y0054744D01*
X0012319Y0054872D01*
X0012237Y0055002D01*
X0012160Y0055134D01*
X0012085Y0055268D01*
X0012014Y0055404D01*
X0011947Y0055542D01*
X0011883Y0055682D01*
X0011823Y0055823D01*
X0011767Y0055965D01*
X0011714Y0056109D01*
X0011665Y0056255D01*
X0011620Y0056401D01*
X0011579Y0056549D01*
X0011542Y0056697D01*
X0011508Y0056847D01*
X0011478Y0056998D01*
X0011453Y0057149D01*
X0011431Y0057300D01*
X0011413Y0057453D01*
X0011399Y0057605D01*
X0011389Y0057758D01*
X0011383Y0057912D01*
X0011381Y0058065D01*
X0066767Y0053998D02*
X0066769Y0054097D01*
X0066775Y0054197D01*
X0066785Y0054296D01*
X0066799Y0054394D01*
X0066816Y0054492D01*
X0066838Y0054589D01*
X0066863Y0054685D01*
X0066892Y0054780D01*
X0066925Y0054874D01*
X0066962Y0054966D01*
X0067002Y0055057D01*
X0067046Y0055146D01*
X0067094Y0055234D01*
X0067145Y0055319D01*
X0067199Y0055402D01*
X0067256Y0055484D01*
X0067317Y0055562D01*
X0067381Y0055639D01*
X0067447Y0055712D01*
X0067517Y0055783D01*
X0067589Y0055851D01*
X0067664Y0055917D01*
X0067742Y0055979D01*
X0067822Y0056038D01*
X0067904Y0056094D01*
X0067988Y0056146D01*
X0068075Y0056195D01*
X0068163Y0056241D01*
X0068253Y0056283D01*
X0068345Y0056322D01*
X0068438Y0056357D01*
X0068532Y0056388D01*
X0068628Y0056415D01*
X0068725Y0056438D01*
X0068822Y0056458D01*
X0068920Y0056474D01*
X0069019Y0056486D01*
X0069118Y0056494D01*
X0069217Y0056498D01*
X0069317Y0056498D01*
X0069416Y0056494D01*
X0069515Y0056486D01*
X0069614Y0056474D01*
X0069712Y0056458D01*
X0069809Y0056438D01*
X0069906Y0056415D01*
X0070002Y0056388D01*
X0070096Y0056357D01*
X0070189Y0056322D01*
X0070281Y0056283D01*
X0070371Y0056241D01*
X0070459Y0056195D01*
X0070546Y0056146D01*
X0070630Y0056094D01*
X0070712Y0056038D01*
X0070792Y0055979D01*
X0070870Y0055917D01*
X0070945Y0055851D01*
X0071017Y0055783D01*
X0071087Y0055712D01*
X0071153Y0055639D01*
X0071217Y0055562D01*
X0071278Y0055484D01*
X0071335Y0055402D01*
X0071389Y0055319D01*
X0071440Y0055234D01*
X0071488Y0055146D01*
X0071532Y0055057D01*
X0071572Y0054966D01*
X0071609Y0054874D01*
X0071642Y0054780D01*
X0071671Y0054685D01*
X0071696Y0054589D01*
X0071718Y0054492D01*
X0071735Y0054394D01*
X0071749Y0054296D01*
X0071759Y0054197D01*
X0071765Y0054097D01*
X0071767Y0053998D01*
X0071765Y0053899D01*
X0071759Y0053799D01*
X0071749Y0053700D01*
X0071735Y0053602D01*
X0071718Y0053504D01*
X0071696Y0053407D01*
X0071671Y0053311D01*
X0071642Y0053216D01*
X0071609Y0053122D01*
X0071572Y0053030D01*
X0071532Y0052939D01*
X0071488Y0052850D01*
X0071440Y0052762D01*
X0071389Y0052677D01*
X0071335Y0052594D01*
X0071278Y0052512D01*
X0071217Y0052434D01*
X0071153Y0052357D01*
X0071087Y0052284D01*
X0071017Y0052213D01*
X0070945Y0052145D01*
X0070870Y0052079D01*
X0070792Y0052017D01*
X0070712Y0051958D01*
X0070630Y0051902D01*
X0070546Y0051850D01*
X0070459Y0051801D01*
X0070371Y0051755D01*
X0070281Y0051713D01*
X0070189Y0051674D01*
X0070096Y0051639D01*
X0070002Y0051608D01*
X0069906Y0051581D01*
X0069809Y0051558D01*
X0069712Y0051538D01*
X0069614Y0051522D01*
X0069515Y0051510D01*
X0069416Y0051502D01*
X0069317Y0051498D01*
X0069217Y0051498D01*
X0069118Y0051502D01*
X0069019Y0051510D01*
X0068920Y0051522D01*
X0068822Y0051538D01*
X0068725Y0051558D01*
X0068628Y0051581D01*
X0068532Y0051608D01*
X0068438Y0051639D01*
X0068345Y0051674D01*
X0068253Y0051713D01*
X0068163Y0051755D01*
X0068075Y0051801D01*
X0067988Y0051850D01*
X0067904Y0051902D01*
X0067822Y0051958D01*
X0067742Y0052017D01*
X0067664Y0052079D01*
X0067589Y0052145D01*
X0067517Y0052213D01*
X0067447Y0052284D01*
X0067381Y0052357D01*
X0067317Y0052434D01*
X0067256Y0052512D01*
X0067199Y0052594D01*
X0067145Y0052677D01*
X0067094Y0052762D01*
X0067046Y0052850D01*
X0067002Y0052939D01*
X0066962Y0053030D01*
X0066925Y0053122D01*
X0066892Y0053216D01*
X0066863Y0053311D01*
X0066838Y0053407D01*
X0066816Y0053504D01*
X0066799Y0053602D01*
X0066785Y0053700D01*
X0066775Y0053799D01*
X0066769Y0053899D01*
X0066767Y0053998D01*
X0095457Y0045227D02*
X0095459Y0045326D01*
X0095465Y0045426D01*
X0095475Y0045525D01*
X0095489Y0045623D01*
X0095506Y0045721D01*
X0095528Y0045818D01*
X0095553Y0045914D01*
X0095582Y0046009D01*
X0095615Y0046103D01*
X0095652Y0046195D01*
X0095692Y0046286D01*
X0095736Y0046375D01*
X0095784Y0046463D01*
X0095835Y0046548D01*
X0095889Y0046631D01*
X0095946Y0046713D01*
X0096007Y0046791D01*
X0096071Y0046868D01*
X0096137Y0046941D01*
X0096207Y0047012D01*
X0096279Y0047080D01*
X0096354Y0047146D01*
X0096432Y0047208D01*
X0096512Y0047267D01*
X0096594Y0047323D01*
X0096678Y0047375D01*
X0096765Y0047424D01*
X0096853Y0047470D01*
X0096943Y0047512D01*
X0097035Y0047551D01*
X0097128Y0047586D01*
X0097222Y0047617D01*
X0097318Y0047644D01*
X0097415Y0047667D01*
X0097512Y0047687D01*
X0097610Y0047703D01*
X0097709Y0047715D01*
X0097808Y0047723D01*
X0097907Y0047727D01*
X0098007Y0047727D01*
X0098106Y0047723D01*
X0098205Y0047715D01*
X0098304Y0047703D01*
X0098402Y0047687D01*
X0098499Y0047667D01*
X0098596Y0047644D01*
X0098692Y0047617D01*
X0098786Y0047586D01*
X0098879Y0047551D01*
X0098971Y0047512D01*
X0099061Y0047470D01*
X0099149Y0047424D01*
X0099236Y0047375D01*
X0099320Y0047323D01*
X0099402Y0047267D01*
X0099482Y0047208D01*
X0099560Y0047146D01*
X0099635Y0047080D01*
X0099707Y0047012D01*
X0099777Y0046941D01*
X0099843Y0046868D01*
X0099907Y0046791D01*
X0099968Y0046713D01*
X0100025Y0046631D01*
X0100079Y0046548D01*
X0100130Y0046463D01*
X0100178Y0046375D01*
X0100222Y0046286D01*
X0100262Y0046195D01*
X0100299Y0046103D01*
X0100332Y0046009D01*
X0100361Y0045914D01*
X0100386Y0045818D01*
X0100408Y0045721D01*
X0100425Y0045623D01*
X0100439Y0045525D01*
X0100449Y0045426D01*
X0100455Y0045326D01*
X0100457Y0045227D01*
X0100455Y0045128D01*
X0100449Y0045028D01*
X0100439Y0044929D01*
X0100425Y0044831D01*
X0100408Y0044733D01*
X0100386Y0044636D01*
X0100361Y0044540D01*
X0100332Y0044445D01*
X0100299Y0044351D01*
X0100262Y0044259D01*
X0100222Y0044168D01*
X0100178Y0044079D01*
X0100130Y0043991D01*
X0100079Y0043906D01*
X0100025Y0043823D01*
X0099968Y0043741D01*
X0099907Y0043663D01*
X0099843Y0043586D01*
X0099777Y0043513D01*
X0099707Y0043442D01*
X0099635Y0043374D01*
X0099560Y0043308D01*
X0099482Y0043246D01*
X0099402Y0043187D01*
X0099320Y0043131D01*
X0099236Y0043079D01*
X0099149Y0043030D01*
X0099061Y0042984D01*
X0098971Y0042942D01*
X0098879Y0042903D01*
X0098786Y0042868D01*
X0098692Y0042837D01*
X0098596Y0042810D01*
X0098499Y0042787D01*
X0098402Y0042767D01*
X0098304Y0042751D01*
X0098205Y0042739D01*
X0098106Y0042731D01*
X0098007Y0042727D01*
X0097907Y0042727D01*
X0097808Y0042731D01*
X0097709Y0042739D01*
X0097610Y0042751D01*
X0097512Y0042767D01*
X0097415Y0042787D01*
X0097318Y0042810D01*
X0097222Y0042837D01*
X0097128Y0042868D01*
X0097035Y0042903D01*
X0096943Y0042942D01*
X0096853Y0042984D01*
X0096765Y0043030D01*
X0096678Y0043079D01*
X0096594Y0043131D01*
X0096512Y0043187D01*
X0096432Y0043246D01*
X0096354Y0043308D01*
X0096279Y0043374D01*
X0096207Y0043442D01*
X0096137Y0043513D01*
X0096071Y0043586D01*
X0096007Y0043663D01*
X0095946Y0043741D01*
X0095889Y0043823D01*
X0095835Y0043906D01*
X0095784Y0043991D01*
X0095736Y0044079D01*
X0095692Y0044168D01*
X0095652Y0044259D01*
X0095615Y0044351D01*
X0095582Y0044445D01*
X0095553Y0044540D01*
X0095528Y0044636D01*
X0095506Y0044733D01*
X0095489Y0044831D01*
X0095475Y0044929D01*
X0095465Y0045028D01*
X0095459Y0045128D01*
X0095457Y0045227D01*
X0073045Y0073956D02*
X0073047Y0074096D01*
X0073053Y0074236D01*
X0073063Y0074375D01*
X0073077Y0074514D01*
X0073095Y0074653D01*
X0073116Y0074791D01*
X0073142Y0074929D01*
X0073172Y0075066D01*
X0073205Y0075201D01*
X0073243Y0075336D01*
X0073284Y0075470D01*
X0073329Y0075603D01*
X0073377Y0075734D01*
X0073430Y0075863D01*
X0073486Y0075992D01*
X0073545Y0076118D01*
X0073609Y0076243D01*
X0073675Y0076366D01*
X0073746Y0076487D01*
X0073819Y0076606D01*
X0073896Y0076723D01*
X0073977Y0076837D01*
X0074060Y0076949D01*
X0074147Y0077059D01*
X0074237Y0077167D01*
X0074329Y0077271D01*
X0074425Y0077373D01*
X0074524Y0077473D01*
X0074625Y0077569D01*
X0074729Y0077663D01*
X0074836Y0077753D01*
X0074945Y0077840D01*
X0075057Y0077925D01*
X0075171Y0078006D01*
X0075287Y0078084D01*
X0075405Y0078158D01*
X0075526Y0078229D01*
X0075648Y0078297D01*
X0075773Y0078361D01*
X0075899Y0078422D01*
X0076026Y0078479D01*
X0076156Y0078532D01*
X0076287Y0078582D01*
X0076419Y0078627D01*
X0076552Y0078670D01*
X0076687Y0078708D01*
X0076822Y0078742D01*
X0076959Y0078773D01*
X0077096Y0078800D01*
X0077234Y0078822D01*
X0077373Y0078841D01*
X0077512Y0078856D01*
X0077651Y0078867D01*
X0077791Y0078874D01*
X0077931Y0078877D01*
X0078071Y0078876D01*
X0078211Y0078871D01*
X0078350Y0078862D01*
X0078490Y0078849D01*
X0078629Y0078832D01*
X0078767Y0078811D01*
X0078905Y0078787D01*
X0079042Y0078758D01*
X0079178Y0078726D01*
X0079313Y0078689D01*
X0079447Y0078649D01*
X0079580Y0078605D01*
X0079711Y0078557D01*
X0079841Y0078506D01*
X0079970Y0078451D01*
X0080097Y0078392D01*
X0080222Y0078329D01*
X0080345Y0078264D01*
X0080467Y0078194D01*
X0080586Y0078121D01*
X0080704Y0078045D01*
X0080819Y0077966D01*
X0080932Y0077883D01*
X0081042Y0077797D01*
X0081150Y0077708D01*
X0081255Y0077616D01*
X0081358Y0077521D01*
X0081458Y0077423D01*
X0081555Y0077323D01*
X0081649Y0077219D01*
X0081741Y0077113D01*
X0081829Y0077005D01*
X0081914Y0076894D01*
X0081996Y0076780D01*
X0082075Y0076664D01*
X0082150Y0076547D01*
X0082222Y0076427D01*
X0082290Y0076305D01*
X0082355Y0076181D01*
X0082417Y0076055D01*
X0082475Y0075928D01*
X0082529Y0075799D01*
X0082580Y0075668D01*
X0082626Y0075536D01*
X0082669Y0075403D01*
X0082709Y0075269D01*
X0082744Y0075134D01*
X0082776Y0074997D01*
X0082803Y0074860D01*
X0082827Y0074722D01*
X0082847Y0074584D01*
X0082863Y0074445D01*
X0082875Y0074305D01*
X0082883Y0074166D01*
X0082887Y0074026D01*
X0082887Y0073886D01*
X0082883Y0073746D01*
X0082875Y0073607D01*
X0082863Y0073467D01*
X0082847Y0073328D01*
X0082827Y0073190D01*
X0082803Y0073052D01*
X0082776Y0072915D01*
X0082744Y0072778D01*
X0082709Y0072643D01*
X0082669Y0072509D01*
X0082626Y0072376D01*
X0082580Y0072244D01*
X0082529Y0072113D01*
X0082475Y0071984D01*
X0082417Y0071857D01*
X0082355Y0071731D01*
X0082290Y0071607D01*
X0082222Y0071485D01*
X0082150Y0071365D01*
X0082075Y0071248D01*
X0081996Y0071132D01*
X0081914Y0071018D01*
X0081829Y0070907D01*
X0081741Y0070799D01*
X0081649Y0070693D01*
X0081555Y0070589D01*
X0081458Y0070489D01*
X0081358Y0070391D01*
X0081255Y0070296D01*
X0081150Y0070204D01*
X0081042Y0070115D01*
X0080932Y0070029D01*
X0080819Y0069946D01*
X0080704Y0069867D01*
X0080586Y0069791D01*
X0080467Y0069718D01*
X0080345Y0069648D01*
X0080222Y0069583D01*
X0080097Y0069520D01*
X0079970Y0069461D01*
X0079841Y0069406D01*
X0079711Y0069355D01*
X0079580Y0069307D01*
X0079447Y0069263D01*
X0079313Y0069223D01*
X0079178Y0069186D01*
X0079042Y0069154D01*
X0078905Y0069125D01*
X0078767Y0069101D01*
X0078629Y0069080D01*
X0078490Y0069063D01*
X0078350Y0069050D01*
X0078211Y0069041D01*
X0078071Y0069036D01*
X0077931Y0069035D01*
X0077791Y0069038D01*
X0077651Y0069045D01*
X0077512Y0069056D01*
X0077373Y0069071D01*
X0077234Y0069090D01*
X0077096Y0069112D01*
X0076959Y0069139D01*
X0076822Y0069170D01*
X0076687Y0069204D01*
X0076552Y0069242D01*
X0076419Y0069285D01*
X0076287Y0069330D01*
X0076156Y0069380D01*
X0076026Y0069433D01*
X0075899Y0069490D01*
X0075773Y0069551D01*
X0075648Y0069615D01*
X0075526Y0069683D01*
X0075405Y0069754D01*
X0075287Y0069828D01*
X0075171Y0069906D01*
X0075057Y0069987D01*
X0074945Y0070072D01*
X0074836Y0070159D01*
X0074729Y0070249D01*
X0074625Y0070343D01*
X0074524Y0070439D01*
X0074425Y0070539D01*
X0074329Y0070641D01*
X0074237Y0070745D01*
X0074147Y0070853D01*
X0074060Y0070963D01*
X0073977Y0071075D01*
X0073896Y0071189D01*
X0073819Y0071306D01*
X0073746Y0071425D01*
X0073675Y0071546D01*
X0073609Y0071669D01*
X0073545Y0071794D01*
X0073486Y0071920D01*
X0073430Y0072049D01*
X0073377Y0072178D01*
X0073329Y0072309D01*
X0073284Y0072442D01*
X0073243Y0072576D01*
X0073205Y0072711D01*
X0073172Y0072846D01*
X0073142Y0072983D01*
X0073116Y0073121D01*
X0073095Y0073259D01*
X0073077Y0073398D01*
X0073063Y0073537D01*
X0073053Y0073676D01*
X0073047Y0073816D01*
X0073045Y0073956D01*
X0050286Y0110519D02*
X0050288Y0110659D01*
X0050294Y0110799D01*
X0050304Y0110938D01*
X0050318Y0111077D01*
X0050336Y0111216D01*
X0050357Y0111354D01*
X0050383Y0111492D01*
X0050413Y0111629D01*
X0050446Y0111764D01*
X0050484Y0111899D01*
X0050525Y0112033D01*
X0050570Y0112166D01*
X0050618Y0112297D01*
X0050671Y0112426D01*
X0050727Y0112555D01*
X0050786Y0112681D01*
X0050850Y0112806D01*
X0050916Y0112929D01*
X0050987Y0113050D01*
X0051060Y0113169D01*
X0051137Y0113286D01*
X0051218Y0113400D01*
X0051301Y0113512D01*
X0051388Y0113622D01*
X0051478Y0113730D01*
X0051570Y0113834D01*
X0051666Y0113936D01*
X0051765Y0114036D01*
X0051866Y0114132D01*
X0051970Y0114226D01*
X0052077Y0114316D01*
X0052186Y0114403D01*
X0052298Y0114488D01*
X0052412Y0114569D01*
X0052528Y0114647D01*
X0052646Y0114721D01*
X0052767Y0114792D01*
X0052889Y0114860D01*
X0053014Y0114924D01*
X0053140Y0114985D01*
X0053267Y0115042D01*
X0053397Y0115095D01*
X0053528Y0115145D01*
X0053660Y0115190D01*
X0053793Y0115233D01*
X0053928Y0115271D01*
X0054063Y0115305D01*
X0054200Y0115336D01*
X0054337Y0115363D01*
X0054475Y0115385D01*
X0054614Y0115404D01*
X0054753Y0115419D01*
X0054892Y0115430D01*
X0055032Y0115437D01*
X0055172Y0115440D01*
X0055312Y0115439D01*
X0055452Y0115434D01*
X0055591Y0115425D01*
X0055731Y0115412D01*
X0055870Y0115395D01*
X0056008Y0115374D01*
X0056146Y0115350D01*
X0056283Y0115321D01*
X0056419Y0115289D01*
X0056554Y0115252D01*
X0056688Y0115212D01*
X0056821Y0115168D01*
X0056952Y0115120D01*
X0057082Y0115069D01*
X0057211Y0115014D01*
X0057338Y0114955D01*
X0057463Y0114892D01*
X0057586Y0114827D01*
X0057708Y0114757D01*
X0057827Y0114684D01*
X0057945Y0114608D01*
X0058060Y0114529D01*
X0058173Y0114446D01*
X0058283Y0114360D01*
X0058391Y0114271D01*
X0058496Y0114179D01*
X0058599Y0114084D01*
X0058699Y0113986D01*
X0058796Y0113886D01*
X0058890Y0113782D01*
X0058982Y0113676D01*
X0059070Y0113568D01*
X0059155Y0113457D01*
X0059237Y0113343D01*
X0059316Y0113227D01*
X0059391Y0113110D01*
X0059463Y0112990D01*
X0059531Y0112868D01*
X0059596Y0112744D01*
X0059658Y0112618D01*
X0059716Y0112491D01*
X0059770Y0112362D01*
X0059821Y0112231D01*
X0059867Y0112099D01*
X0059910Y0111966D01*
X0059950Y0111832D01*
X0059985Y0111697D01*
X0060017Y0111560D01*
X0060044Y0111423D01*
X0060068Y0111285D01*
X0060088Y0111147D01*
X0060104Y0111008D01*
X0060116Y0110868D01*
X0060124Y0110729D01*
X0060128Y0110589D01*
X0060128Y0110449D01*
X0060124Y0110309D01*
X0060116Y0110170D01*
X0060104Y0110030D01*
X0060088Y0109891D01*
X0060068Y0109753D01*
X0060044Y0109615D01*
X0060017Y0109478D01*
X0059985Y0109341D01*
X0059950Y0109206D01*
X0059910Y0109072D01*
X0059867Y0108939D01*
X0059821Y0108807D01*
X0059770Y0108676D01*
X0059716Y0108547D01*
X0059658Y0108420D01*
X0059596Y0108294D01*
X0059531Y0108170D01*
X0059463Y0108048D01*
X0059391Y0107928D01*
X0059316Y0107811D01*
X0059237Y0107695D01*
X0059155Y0107581D01*
X0059070Y0107470D01*
X0058982Y0107362D01*
X0058890Y0107256D01*
X0058796Y0107152D01*
X0058699Y0107052D01*
X0058599Y0106954D01*
X0058496Y0106859D01*
X0058391Y0106767D01*
X0058283Y0106678D01*
X0058173Y0106592D01*
X0058060Y0106509D01*
X0057945Y0106430D01*
X0057827Y0106354D01*
X0057708Y0106281D01*
X0057586Y0106211D01*
X0057463Y0106146D01*
X0057338Y0106083D01*
X0057211Y0106024D01*
X0057082Y0105969D01*
X0056952Y0105918D01*
X0056821Y0105870D01*
X0056688Y0105826D01*
X0056554Y0105786D01*
X0056419Y0105749D01*
X0056283Y0105717D01*
X0056146Y0105688D01*
X0056008Y0105664D01*
X0055870Y0105643D01*
X0055731Y0105626D01*
X0055591Y0105613D01*
X0055452Y0105604D01*
X0055312Y0105599D01*
X0055172Y0105598D01*
X0055032Y0105601D01*
X0054892Y0105608D01*
X0054753Y0105619D01*
X0054614Y0105634D01*
X0054475Y0105653D01*
X0054337Y0105675D01*
X0054200Y0105702D01*
X0054063Y0105733D01*
X0053928Y0105767D01*
X0053793Y0105805D01*
X0053660Y0105848D01*
X0053528Y0105893D01*
X0053397Y0105943D01*
X0053267Y0105996D01*
X0053140Y0106053D01*
X0053014Y0106114D01*
X0052889Y0106178D01*
X0052767Y0106246D01*
X0052646Y0106317D01*
X0052528Y0106391D01*
X0052412Y0106469D01*
X0052298Y0106550D01*
X0052186Y0106635D01*
X0052077Y0106722D01*
X0051970Y0106812D01*
X0051866Y0106906D01*
X0051765Y0107002D01*
X0051666Y0107102D01*
X0051570Y0107204D01*
X0051478Y0107308D01*
X0051388Y0107416D01*
X0051301Y0107526D01*
X0051218Y0107638D01*
X0051137Y0107752D01*
X0051060Y0107869D01*
X0050987Y0107988D01*
X0050916Y0108109D01*
X0050850Y0108232D01*
X0050786Y0108357D01*
X0050727Y0108483D01*
X0050671Y0108612D01*
X0050618Y0108741D01*
X0050570Y0108872D01*
X0050525Y0109005D01*
X0050484Y0109139D01*
X0050446Y0109274D01*
X0050413Y0109409D01*
X0050383Y0109546D01*
X0050357Y0109684D01*
X0050336Y0109822D01*
X0050318Y0109961D01*
X0050304Y0110100D01*
X0050294Y0110239D01*
X0050288Y0110379D01*
X0050286Y0110519D01*
X0017664Y0116245D02*
X0017666Y0116386D01*
X0017672Y0116527D01*
X0017682Y0116667D01*
X0017696Y0116807D01*
X0017714Y0116947D01*
X0017735Y0117086D01*
X0017761Y0117225D01*
X0017790Y0117363D01*
X0017824Y0117499D01*
X0017861Y0117635D01*
X0017902Y0117770D01*
X0017947Y0117904D01*
X0017996Y0118036D01*
X0018048Y0118167D01*
X0018104Y0118296D01*
X0018164Y0118423D01*
X0018227Y0118549D01*
X0018293Y0118673D01*
X0018364Y0118796D01*
X0018437Y0118916D01*
X0018514Y0119034D01*
X0018594Y0119150D01*
X0018678Y0119263D01*
X0018764Y0119374D01*
X0018854Y0119483D01*
X0018947Y0119589D01*
X0019042Y0119692D01*
X0019141Y0119793D01*
X0019242Y0119891D01*
X0019346Y0119986D01*
X0019453Y0120078D01*
X0019562Y0120167D01*
X0019674Y0120252D01*
X0019788Y0120335D01*
X0019904Y0120415D01*
X0020023Y0120491D01*
X0020144Y0120563D01*
X0020266Y0120633D01*
X0020391Y0120698D01*
X0020517Y0120761D01*
X0020645Y0120819D01*
X0020775Y0120874D01*
X0020906Y0120926D01*
X0021039Y0120973D01*
X0021173Y0121017D01*
X0021308Y0121058D01*
X0021444Y0121094D01*
X0021581Y0121126D01*
X0021719Y0121155D01*
X0021857Y0121180D01*
X0021997Y0121200D01*
X0022137Y0121217D01*
X0022277Y0121230D01*
X0022418Y0121239D01*
X0022558Y0121244D01*
X0022699Y0121245D01*
X0022840Y0121242D01*
X0022981Y0121235D01*
X0023121Y0121224D01*
X0023261Y0121209D01*
X0023401Y0121190D01*
X0023540Y0121168D01*
X0023678Y0121141D01*
X0023816Y0121111D01*
X0023952Y0121076D01*
X0024088Y0121038D01*
X0024222Y0120996D01*
X0024356Y0120950D01*
X0024488Y0120901D01*
X0024618Y0120847D01*
X0024747Y0120790D01*
X0024874Y0120730D01*
X0025000Y0120666D01*
X0025123Y0120598D01*
X0025245Y0120527D01*
X0025365Y0120453D01*
X0025482Y0120375D01*
X0025597Y0120294D01*
X0025710Y0120210D01*
X0025821Y0120123D01*
X0025929Y0120032D01*
X0026034Y0119939D01*
X0026137Y0119842D01*
X0026237Y0119743D01*
X0026334Y0119641D01*
X0026428Y0119536D01*
X0026519Y0119429D01*
X0026607Y0119319D01*
X0026692Y0119207D01*
X0026774Y0119092D01*
X0026853Y0118975D01*
X0026928Y0118856D01*
X0027000Y0118735D01*
X0027068Y0118612D01*
X0027133Y0118487D01*
X0027195Y0118360D01*
X0027252Y0118231D01*
X0027307Y0118101D01*
X0027357Y0117970D01*
X0027404Y0117837D01*
X0027447Y0117703D01*
X0027486Y0117567D01*
X0027521Y0117431D01*
X0027553Y0117294D01*
X0027580Y0117156D01*
X0027604Y0117017D01*
X0027624Y0116877D01*
X0027640Y0116737D01*
X0027652Y0116597D01*
X0027660Y0116456D01*
X0027664Y0116315D01*
X0027664Y0116175D01*
X0027660Y0116034D01*
X0027652Y0115893D01*
X0027640Y0115753D01*
X0027624Y0115613D01*
X0027604Y0115473D01*
X0027580Y0115334D01*
X0027553Y0115196D01*
X0027521Y0115059D01*
X0027486Y0114923D01*
X0027447Y0114787D01*
X0027404Y0114653D01*
X0027357Y0114520D01*
X0027307Y0114389D01*
X0027252Y0114259D01*
X0027195Y0114130D01*
X0027133Y0114003D01*
X0027068Y0113878D01*
X0027000Y0113755D01*
X0026928Y0113634D01*
X0026853Y0113515D01*
X0026774Y0113398D01*
X0026692Y0113283D01*
X0026607Y0113171D01*
X0026519Y0113061D01*
X0026428Y0112954D01*
X0026334Y0112849D01*
X0026237Y0112747D01*
X0026137Y0112648D01*
X0026034Y0112551D01*
X0025929Y0112458D01*
X0025821Y0112367D01*
X0025710Y0112280D01*
X0025597Y0112196D01*
X0025482Y0112115D01*
X0025365Y0112037D01*
X0025245Y0111963D01*
X0025123Y0111892D01*
X0025000Y0111824D01*
X0024874Y0111760D01*
X0024747Y0111700D01*
X0024618Y0111643D01*
X0024488Y0111589D01*
X0024356Y0111540D01*
X0024222Y0111494D01*
X0024088Y0111452D01*
X0023952Y0111414D01*
X0023816Y0111379D01*
X0023678Y0111349D01*
X0023540Y0111322D01*
X0023401Y0111300D01*
X0023261Y0111281D01*
X0023121Y0111266D01*
X0022981Y0111255D01*
X0022840Y0111248D01*
X0022699Y0111245D01*
X0022558Y0111246D01*
X0022418Y0111251D01*
X0022277Y0111260D01*
X0022137Y0111273D01*
X0021997Y0111290D01*
X0021857Y0111310D01*
X0021719Y0111335D01*
X0021581Y0111364D01*
X0021444Y0111396D01*
X0021308Y0111432D01*
X0021173Y0111473D01*
X0021039Y0111517D01*
X0020906Y0111564D01*
X0020775Y0111616D01*
X0020645Y0111671D01*
X0020517Y0111729D01*
X0020391Y0111792D01*
X0020266Y0111857D01*
X0020144Y0111927D01*
X0020023Y0111999D01*
X0019904Y0112075D01*
X0019788Y0112155D01*
X0019674Y0112238D01*
X0019562Y0112323D01*
X0019453Y0112412D01*
X0019346Y0112504D01*
X0019242Y0112599D01*
X0019141Y0112697D01*
X0019042Y0112798D01*
X0018947Y0112901D01*
X0018854Y0113007D01*
X0018764Y0113116D01*
X0018678Y0113227D01*
X0018594Y0113340D01*
X0018514Y0113456D01*
X0018437Y0113574D01*
X0018364Y0113694D01*
X0018293Y0113817D01*
X0018227Y0113941D01*
X0018164Y0114067D01*
X0018104Y0114194D01*
X0018048Y0114323D01*
X0017996Y0114454D01*
X0017947Y0114586D01*
X0017902Y0114720D01*
X0017861Y0114855D01*
X0017824Y0114991D01*
X0017790Y0115127D01*
X0017761Y0115265D01*
X0017735Y0115404D01*
X0017714Y0115543D01*
X0017696Y0115683D01*
X0017682Y0115823D01*
X0017672Y0115963D01*
X0017666Y0116104D01*
X0017664Y0116245D01*
X0041425Y0218445D02*
X0046349Y0219313D01*
X0046445Y0219332D01*
X0046541Y0219355D01*
X0046635Y0219381D01*
X0046729Y0219411D01*
X0046821Y0219445D01*
X0046912Y0219482D01*
X0047001Y0219523D01*
X0047089Y0219568D01*
X0047174Y0219615D01*
X0047258Y0219667D01*
X0047340Y0219721D01*
X0047420Y0219778D01*
X0047497Y0219839D01*
X0047572Y0219903D01*
X0047644Y0219969D01*
X0047713Y0220038D01*
X0047780Y0220110D01*
X0047844Y0220185D01*
X0047905Y0220262D01*
X0047963Y0220341D01*
X0048018Y0220423D01*
X0048069Y0220506D01*
X0048117Y0220592D01*
X0048162Y0220679D01*
X0048203Y0220768D01*
X0048241Y0220859D01*
X0048275Y0220951D01*
X0048306Y0221044D01*
X0048333Y0221138D01*
X0048356Y0221234D01*
X0048375Y0221330D01*
X0048391Y0221427D01*
X0048402Y0221525D01*
X0048410Y0221622D01*
X0048414Y0221720D01*
X0048415Y0221819D01*
X0048411Y0221917D01*
X0048403Y0222015D01*
X0048392Y0222112D01*
X0048377Y0222209D01*
X0046640Y0232057D01*
X0046621Y0232153D01*
X0046598Y0232249D01*
X0046572Y0232343D01*
X0046542Y0232437D01*
X0046508Y0232529D01*
X0046471Y0232620D01*
X0046430Y0232709D01*
X0046385Y0232797D01*
X0046338Y0232882D01*
X0046286Y0232966D01*
X0046232Y0233048D01*
X0046175Y0233128D01*
X0046114Y0233205D01*
X0046050Y0233280D01*
X0045984Y0233352D01*
X0045915Y0233421D01*
X0045843Y0233488D01*
X0045768Y0233552D01*
X0045691Y0233613D01*
X0045612Y0233671D01*
X0045530Y0233726D01*
X0045447Y0233777D01*
X0045361Y0233825D01*
X0045274Y0233870D01*
X0045185Y0233911D01*
X0045094Y0233949D01*
X0045002Y0233983D01*
X0044909Y0234014D01*
X0044815Y0234041D01*
X0044719Y0234064D01*
X0044623Y0234083D01*
X0044526Y0234099D01*
X0044428Y0234110D01*
X0044331Y0234118D01*
X0044233Y0234122D01*
X0044134Y0234123D01*
X0044036Y0234119D01*
X0043938Y0234111D01*
X0043841Y0234100D01*
X0043744Y0234085D01*
X0038820Y0233217D01*
X0038724Y0233198D01*
X0038628Y0233175D01*
X0038534Y0233149D01*
X0038440Y0233119D01*
X0038348Y0233085D01*
X0038257Y0233048D01*
X0038168Y0233007D01*
X0038080Y0232962D01*
X0037995Y0232915D01*
X0037911Y0232863D01*
X0037829Y0232809D01*
X0037749Y0232752D01*
X0037672Y0232691D01*
X0037597Y0232627D01*
X0037525Y0232561D01*
X0037456Y0232492D01*
X0037389Y0232420D01*
X0037325Y0232345D01*
X0037264Y0232268D01*
X0037206Y0232189D01*
X0037151Y0232107D01*
X0037100Y0232024D01*
X0037052Y0231938D01*
X0037007Y0231851D01*
X0036966Y0231762D01*
X0036928Y0231671D01*
X0036894Y0231579D01*
X0036863Y0231486D01*
X0036836Y0231391D01*
X0036813Y0231296D01*
X0036794Y0231200D01*
X0036778Y0231103D01*
X0036767Y0231005D01*
X0036759Y0230908D01*
X0036755Y0230810D01*
X0036754Y0230711D01*
X0036758Y0230613D01*
X0036766Y0230515D01*
X0036777Y0230418D01*
X0036792Y0230321D01*
X0038529Y0220473D01*
X0038548Y0220377D01*
X0038571Y0220281D01*
X0038597Y0220187D01*
X0038627Y0220093D01*
X0038661Y0220001D01*
X0038698Y0219910D01*
X0038739Y0219821D01*
X0038784Y0219733D01*
X0038831Y0219648D01*
X0038883Y0219564D01*
X0038937Y0219482D01*
X0038994Y0219402D01*
X0039055Y0219325D01*
X0039119Y0219250D01*
X0039185Y0219178D01*
X0039254Y0219109D01*
X0039326Y0219042D01*
X0039401Y0218978D01*
X0039478Y0218917D01*
X0039557Y0218859D01*
X0039639Y0218804D01*
X0039722Y0218753D01*
X0039808Y0218705D01*
X0039895Y0218660D01*
X0039984Y0218619D01*
X0040075Y0218581D01*
X0040167Y0218547D01*
X0040260Y0218516D01*
X0040354Y0218489D01*
X0040450Y0218466D01*
X0040546Y0218447D01*
X0040643Y0218431D01*
X0040741Y0218420D01*
X0040838Y0218412D01*
X0040936Y0218408D01*
X0041035Y0218407D01*
X0041133Y0218411D01*
X0041231Y0218419D01*
X0041328Y0218430D01*
X0041425Y0218445D01*
X0081008Y0226182D02*
X0081010Y0226335D01*
X0081016Y0226489D01*
X0081026Y0226642D01*
X0081040Y0226794D01*
X0081058Y0226947D01*
X0081080Y0227098D01*
X0081105Y0227249D01*
X0081135Y0227400D01*
X0081169Y0227550D01*
X0081206Y0227698D01*
X0081247Y0227846D01*
X0081292Y0227992D01*
X0081341Y0228138D01*
X0081394Y0228282D01*
X0081450Y0228424D01*
X0081510Y0228565D01*
X0081574Y0228705D01*
X0081641Y0228843D01*
X0081712Y0228979D01*
X0081787Y0229113D01*
X0081864Y0229245D01*
X0081946Y0229375D01*
X0082030Y0229503D01*
X0082118Y0229629D01*
X0082209Y0229752D01*
X0082303Y0229873D01*
X0082401Y0229991D01*
X0082501Y0230107D01*
X0082605Y0230220D01*
X0082711Y0230331D01*
X0082820Y0230439D01*
X0082932Y0230544D01*
X0083046Y0230645D01*
X0083164Y0230744D01*
X0083283Y0230840D01*
X0083405Y0230933D01*
X0083530Y0231022D01*
X0083657Y0231109D01*
X0083786Y0231191D01*
X0083917Y0231271D01*
X0084050Y0231347D01*
X0084185Y0231420D01*
X0084322Y0231489D01*
X0084461Y0231554D01*
X0084601Y0231616D01*
X0084743Y0231674D01*
X0084886Y0231729D01*
X0085031Y0231780D01*
X0085177Y0231827D01*
X0085324Y0231870D01*
X0085472Y0231909D01*
X0085621Y0231945D01*
X0085771Y0231976D01*
X0085922Y0232004D01*
X0086073Y0232028D01*
X0086226Y0232048D01*
X0086378Y0232064D01*
X0086531Y0232076D01*
X0086684Y0232084D01*
X0086837Y0232088D01*
X0086991Y0232088D01*
X0087144Y0232084D01*
X0087297Y0232076D01*
X0087450Y0232064D01*
X0087602Y0232048D01*
X0087755Y0232028D01*
X0087906Y0232004D01*
X0088057Y0231976D01*
X0088207Y0231945D01*
X0088356Y0231909D01*
X0088504Y0231870D01*
X0088651Y0231827D01*
X0088797Y0231780D01*
X0088942Y0231729D01*
X0089085Y0231674D01*
X0089227Y0231616D01*
X0089367Y0231554D01*
X0089506Y0231489D01*
X0089643Y0231420D01*
X0089778Y0231347D01*
X0089911Y0231271D01*
X0090042Y0231191D01*
X0090171Y0231109D01*
X0090298Y0231022D01*
X0090423Y0230933D01*
X0090545Y0230840D01*
X0090664Y0230744D01*
X0090782Y0230645D01*
X0090896Y0230544D01*
X0091008Y0230439D01*
X0091117Y0230331D01*
X0091223Y0230220D01*
X0091327Y0230107D01*
X0091427Y0229991D01*
X0091525Y0229873D01*
X0091619Y0229752D01*
X0091710Y0229629D01*
X0091798Y0229503D01*
X0091882Y0229375D01*
X0091964Y0229245D01*
X0092041Y0229113D01*
X0092116Y0228979D01*
X0092187Y0228843D01*
X0092254Y0228705D01*
X0092318Y0228565D01*
X0092378Y0228424D01*
X0092434Y0228282D01*
X0092487Y0228138D01*
X0092536Y0227992D01*
X0092581Y0227846D01*
X0092622Y0227698D01*
X0092659Y0227550D01*
X0092693Y0227400D01*
X0092723Y0227249D01*
X0092748Y0227098D01*
X0092770Y0226947D01*
X0092788Y0226794D01*
X0092802Y0226642D01*
X0092812Y0226489D01*
X0092818Y0226335D01*
X0092820Y0226182D01*
X0092818Y0226029D01*
X0092812Y0225875D01*
X0092802Y0225722D01*
X0092788Y0225570D01*
X0092770Y0225417D01*
X0092748Y0225266D01*
X0092723Y0225115D01*
X0092693Y0224964D01*
X0092659Y0224814D01*
X0092622Y0224666D01*
X0092581Y0224518D01*
X0092536Y0224372D01*
X0092487Y0224226D01*
X0092434Y0224082D01*
X0092378Y0223940D01*
X0092318Y0223799D01*
X0092254Y0223659D01*
X0092187Y0223521D01*
X0092116Y0223385D01*
X0092041Y0223251D01*
X0091964Y0223119D01*
X0091882Y0222989D01*
X0091798Y0222861D01*
X0091710Y0222735D01*
X0091619Y0222612D01*
X0091525Y0222491D01*
X0091427Y0222373D01*
X0091327Y0222257D01*
X0091223Y0222144D01*
X0091117Y0222033D01*
X0091008Y0221925D01*
X0090896Y0221820D01*
X0090782Y0221719D01*
X0090664Y0221620D01*
X0090545Y0221524D01*
X0090423Y0221431D01*
X0090298Y0221342D01*
X0090171Y0221255D01*
X0090042Y0221173D01*
X0089911Y0221093D01*
X0089778Y0221017D01*
X0089643Y0220944D01*
X0089506Y0220875D01*
X0089367Y0220810D01*
X0089227Y0220748D01*
X0089085Y0220690D01*
X0088942Y0220635D01*
X0088797Y0220584D01*
X0088651Y0220537D01*
X0088504Y0220494D01*
X0088356Y0220455D01*
X0088207Y0220419D01*
X0088057Y0220388D01*
X0087906Y0220360D01*
X0087755Y0220336D01*
X0087602Y0220316D01*
X0087450Y0220300D01*
X0087297Y0220288D01*
X0087144Y0220280D01*
X0086991Y0220276D01*
X0086837Y0220276D01*
X0086684Y0220280D01*
X0086531Y0220288D01*
X0086378Y0220300D01*
X0086226Y0220316D01*
X0086073Y0220336D01*
X0085922Y0220360D01*
X0085771Y0220388D01*
X0085621Y0220419D01*
X0085472Y0220455D01*
X0085324Y0220494D01*
X0085177Y0220537D01*
X0085031Y0220584D01*
X0084886Y0220635D01*
X0084743Y0220690D01*
X0084601Y0220748D01*
X0084461Y0220810D01*
X0084322Y0220875D01*
X0084185Y0220944D01*
X0084050Y0221017D01*
X0083917Y0221093D01*
X0083786Y0221173D01*
X0083657Y0221255D01*
X0083530Y0221342D01*
X0083405Y0221431D01*
X0083283Y0221524D01*
X0083164Y0221620D01*
X0083046Y0221719D01*
X0082932Y0221820D01*
X0082820Y0221925D01*
X0082711Y0222033D01*
X0082605Y0222144D01*
X0082501Y0222257D01*
X0082401Y0222373D01*
X0082303Y0222491D01*
X0082209Y0222612D01*
X0082118Y0222735D01*
X0082030Y0222861D01*
X0081946Y0222989D01*
X0081864Y0223119D01*
X0081787Y0223251D01*
X0081712Y0223385D01*
X0081641Y0223521D01*
X0081574Y0223659D01*
X0081510Y0223799D01*
X0081450Y0223940D01*
X0081394Y0224082D01*
X0081341Y0224226D01*
X0081292Y0224372D01*
X0081247Y0224518D01*
X0081206Y0224666D01*
X0081169Y0224814D01*
X0081135Y0224964D01*
X0081105Y0225115D01*
X0081080Y0225266D01*
X0081058Y0225417D01*
X0081040Y0225570D01*
X0081026Y0225722D01*
X0081016Y0225875D01*
X0081010Y0226029D01*
X0081008Y0226182D01*
X0122224Y0280733D02*
X0122226Y0280874D01*
X0122232Y0281015D01*
X0122242Y0281155D01*
X0122256Y0281295D01*
X0122274Y0281435D01*
X0122295Y0281574D01*
X0122321Y0281713D01*
X0122350Y0281851D01*
X0122384Y0281987D01*
X0122421Y0282123D01*
X0122462Y0282258D01*
X0122507Y0282392D01*
X0122556Y0282524D01*
X0122608Y0282655D01*
X0122664Y0282784D01*
X0122724Y0282911D01*
X0122787Y0283037D01*
X0122853Y0283161D01*
X0122924Y0283284D01*
X0122997Y0283404D01*
X0123074Y0283522D01*
X0123154Y0283638D01*
X0123238Y0283751D01*
X0123324Y0283862D01*
X0123414Y0283971D01*
X0123507Y0284077D01*
X0123602Y0284180D01*
X0123701Y0284281D01*
X0123802Y0284379D01*
X0123906Y0284474D01*
X0124013Y0284566D01*
X0124122Y0284655D01*
X0124234Y0284740D01*
X0124348Y0284823D01*
X0124464Y0284903D01*
X0124583Y0284979D01*
X0124704Y0285051D01*
X0124826Y0285121D01*
X0124951Y0285186D01*
X0125077Y0285249D01*
X0125205Y0285307D01*
X0125335Y0285362D01*
X0125466Y0285414D01*
X0125599Y0285461D01*
X0125733Y0285505D01*
X0125868Y0285546D01*
X0126004Y0285582D01*
X0126141Y0285614D01*
X0126279Y0285643D01*
X0126417Y0285668D01*
X0126557Y0285688D01*
X0126697Y0285705D01*
X0126837Y0285718D01*
X0126978Y0285727D01*
X0127118Y0285732D01*
X0127259Y0285733D01*
X0127400Y0285730D01*
X0127541Y0285723D01*
X0127681Y0285712D01*
X0127821Y0285697D01*
X0127961Y0285678D01*
X0128100Y0285656D01*
X0128238Y0285629D01*
X0128376Y0285599D01*
X0128512Y0285564D01*
X0128648Y0285526D01*
X0128782Y0285484D01*
X0128916Y0285438D01*
X0129048Y0285389D01*
X0129178Y0285335D01*
X0129307Y0285278D01*
X0129434Y0285218D01*
X0129560Y0285154D01*
X0129683Y0285086D01*
X0129805Y0285015D01*
X0129925Y0284941D01*
X0130042Y0284863D01*
X0130157Y0284782D01*
X0130270Y0284698D01*
X0130381Y0284611D01*
X0130489Y0284520D01*
X0130594Y0284427D01*
X0130697Y0284330D01*
X0130797Y0284231D01*
X0130894Y0284129D01*
X0130988Y0284024D01*
X0131079Y0283917D01*
X0131167Y0283807D01*
X0131252Y0283695D01*
X0131334Y0283580D01*
X0131413Y0283463D01*
X0131488Y0283344D01*
X0131560Y0283223D01*
X0131628Y0283100D01*
X0131693Y0282975D01*
X0131755Y0282848D01*
X0131812Y0282719D01*
X0131867Y0282589D01*
X0131917Y0282458D01*
X0131964Y0282325D01*
X0132007Y0282191D01*
X0132046Y0282055D01*
X0132081Y0281919D01*
X0132113Y0281782D01*
X0132140Y0281644D01*
X0132164Y0281505D01*
X0132184Y0281365D01*
X0132200Y0281225D01*
X0132212Y0281085D01*
X0132220Y0280944D01*
X0132224Y0280803D01*
X0132224Y0280663D01*
X0132220Y0280522D01*
X0132212Y0280381D01*
X0132200Y0280241D01*
X0132184Y0280101D01*
X0132164Y0279961D01*
X0132140Y0279822D01*
X0132113Y0279684D01*
X0132081Y0279547D01*
X0132046Y0279411D01*
X0132007Y0279275D01*
X0131964Y0279141D01*
X0131917Y0279008D01*
X0131867Y0278877D01*
X0131812Y0278747D01*
X0131755Y0278618D01*
X0131693Y0278491D01*
X0131628Y0278366D01*
X0131560Y0278243D01*
X0131488Y0278122D01*
X0131413Y0278003D01*
X0131334Y0277886D01*
X0131252Y0277771D01*
X0131167Y0277659D01*
X0131079Y0277549D01*
X0130988Y0277442D01*
X0130894Y0277337D01*
X0130797Y0277235D01*
X0130697Y0277136D01*
X0130594Y0277039D01*
X0130489Y0276946D01*
X0130381Y0276855D01*
X0130270Y0276768D01*
X0130157Y0276684D01*
X0130042Y0276603D01*
X0129925Y0276525D01*
X0129805Y0276451D01*
X0129683Y0276380D01*
X0129560Y0276312D01*
X0129434Y0276248D01*
X0129307Y0276188D01*
X0129178Y0276131D01*
X0129048Y0276077D01*
X0128916Y0276028D01*
X0128782Y0275982D01*
X0128648Y0275940D01*
X0128512Y0275902D01*
X0128376Y0275867D01*
X0128238Y0275837D01*
X0128100Y0275810D01*
X0127961Y0275788D01*
X0127821Y0275769D01*
X0127681Y0275754D01*
X0127541Y0275743D01*
X0127400Y0275736D01*
X0127259Y0275733D01*
X0127118Y0275734D01*
X0126978Y0275739D01*
X0126837Y0275748D01*
X0126697Y0275761D01*
X0126557Y0275778D01*
X0126417Y0275798D01*
X0126279Y0275823D01*
X0126141Y0275852D01*
X0126004Y0275884D01*
X0125868Y0275920D01*
X0125733Y0275961D01*
X0125599Y0276005D01*
X0125466Y0276052D01*
X0125335Y0276104D01*
X0125205Y0276159D01*
X0125077Y0276217D01*
X0124951Y0276280D01*
X0124826Y0276345D01*
X0124704Y0276415D01*
X0124583Y0276487D01*
X0124464Y0276563D01*
X0124348Y0276643D01*
X0124234Y0276726D01*
X0124122Y0276811D01*
X0124013Y0276900D01*
X0123906Y0276992D01*
X0123802Y0277087D01*
X0123701Y0277185D01*
X0123602Y0277286D01*
X0123507Y0277389D01*
X0123414Y0277495D01*
X0123324Y0277604D01*
X0123238Y0277715D01*
X0123154Y0277828D01*
X0123074Y0277944D01*
X0122997Y0278062D01*
X0122924Y0278182D01*
X0122853Y0278305D01*
X0122787Y0278429D01*
X0122724Y0278555D01*
X0122664Y0278682D01*
X0122608Y0278811D01*
X0122556Y0278942D01*
X0122507Y0279074D01*
X0122462Y0279208D01*
X0122421Y0279343D01*
X0122384Y0279479D01*
X0122350Y0279615D01*
X0122321Y0279753D01*
X0122295Y0279892D01*
X0122274Y0280031D01*
X0122256Y0280171D01*
X0122242Y0280311D01*
X0122232Y0280451D01*
X0122226Y0280592D01*
X0122224Y0280733D01*
X0398390Y0280323D02*
X0398392Y0280464D01*
X0398398Y0280605D01*
X0398408Y0280745D01*
X0398422Y0280885D01*
X0398440Y0281025D01*
X0398461Y0281164D01*
X0398487Y0281303D01*
X0398516Y0281441D01*
X0398550Y0281577D01*
X0398587Y0281713D01*
X0398628Y0281848D01*
X0398673Y0281982D01*
X0398722Y0282114D01*
X0398774Y0282245D01*
X0398830Y0282374D01*
X0398890Y0282501D01*
X0398953Y0282627D01*
X0399019Y0282751D01*
X0399090Y0282874D01*
X0399163Y0282994D01*
X0399240Y0283112D01*
X0399320Y0283228D01*
X0399404Y0283341D01*
X0399490Y0283452D01*
X0399580Y0283561D01*
X0399673Y0283667D01*
X0399768Y0283770D01*
X0399867Y0283871D01*
X0399968Y0283969D01*
X0400072Y0284064D01*
X0400179Y0284156D01*
X0400288Y0284245D01*
X0400400Y0284330D01*
X0400514Y0284413D01*
X0400630Y0284493D01*
X0400749Y0284569D01*
X0400870Y0284641D01*
X0400992Y0284711D01*
X0401117Y0284776D01*
X0401243Y0284839D01*
X0401371Y0284897D01*
X0401501Y0284952D01*
X0401632Y0285004D01*
X0401765Y0285051D01*
X0401899Y0285095D01*
X0402034Y0285136D01*
X0402170Y0285172D01*
X0402307Y0285204D01*
X0402445Y0285233D01*
X0402583Y0285258D01*
X0402723Y0285278D01*
X0402863Y0285295D01*
X0403003Y0285308D01*
X0403144Y0285317D01*
X0403284Y0285322D01*
X0403425Y0285323D01*
X0403566Y0285320D01*
X0403707Y0285313D01*
X0403847Y0285302D01*
X0403987Y0285287D01*
X0404127Y0285268D01*
X0404266Y0285246D01*
X0404404Y0285219D01*
X0404542Y0285189D01*
X0404678Y0285154D01*
X0404814Y0285116D01*
X0404948Y0285074D01*
X0405082Y0285028D01*
X0405214Y0284979D01*
X0405344Y0284925D01*
X0405473Y0284868D01*
X0405600Y0284808D01*
X0405726Y0284744D01*
X0405849Y0284676D01*
X0405971Y0284605D01*
X0406091Y0284531D01*
X0406208Y0284453D01*
X0406323Y0284372D01*
X0406436Y0284288D01*
X0406547Y0284201D01*
X0406655Y0284110D01*
X0406760Y0284017D01*
X0406863Y0283920D01*
X0406963Y0283821D01*
X0407060Y0283719D01*
X0407154Y0283614D01*
X0407245Y0283507D01*
X0407333Y0283397D01*
X0407418Y0283285D01*
X0407500Y0283170D01*
X0407579Y0283053D01*
X0407654Y0282934D01*
X0407726Y0282813D01*
X0407794Y0282690D01*
X0407859Y0282565D01*
X0407921Y0282438D01*
X0407978Y0282309D01*
X0408033Y0282179D01*
X0408083Y0282048D01*
X0408130Y0281915D01*
X0408173Y0281781D01*
X0408212Y0281645D01*
X0408247Y0281509D01*
X0408279Y0281372D01*
X0408306Y0281234D01*
X0408330Y0281095D01*
X0408350Y0280955D01*
X0408366Y0280815D01*
X0408378Y0280675D01*
X0408386Y0280534D01*
X0408390Y0280393D01*
X0408390Y0280253D01*
X0408386Y0280112D01*
X0408378Y0279971D01*
X0408366Y0279831D01*
X0408350Y0279691D01*
X0408330Y0279551D01*
X0408306Y0279412D01*
X0408279Y0279274D01*
X0408247Y0279137D01*
X0408212Y0279001D01*
X0408173Y0278865D01*
X0408130Y0278731D01*
X0408083Y0278598D01*
X0408033Y0278467D01*
X0407978Y0278337D01*
X0407921Y0278208D01*
X0407859Y0278081D01*
X0407794Y0277956D01*
X0407726Y0277833D01*
X0407654Y0277712D01*
X0407579Y0277593D01*
X0407500Y0277476D01*
X0407418Y0277361D01*
X0407333Y0277249D01*
X0407245Y0277139D01*
X0407154Y0277032D01*
X0407060Y0276927D01*
X0406963Y0276825D01*
X0406863Y0276726D01*
X0406760Y0276629D01*
X0406655Y0276536D01*
X0406547Y0276445D01*
X0406436Y0276358D01*
X0406323Y0276274D01*
X0406208Y0276193D01*
X0406091Y0276115D01*
X0405971Y0276041D01*
X0405849Y0275970D01*
X0405726Y0275902D01*
X0405600Y0275838D01*
X0405473Y0275778D01*
X0405344Y0275721D01*
X0405214Y0275667D01*
X0405082Y0275618D01*
X0404948Y0275572D01*
X0404814Y0275530D01*
X0404678Y0275492D01*
X0404542Y0275457D01*
X0404404Y0275427D01*
X0404266Y0275400D01*
X0404127Y0275378D01*
X0403987Y0275359D01*
X0403847Y0275344D01*
X0403707Y0275333D01*
X0403566Y0275326D01*
X0403425Y0275323D01*
X0403284Y0275324D01*
X0403144Y0275329D01*
X0403003Y0275338D01*
X0402863Y0275351D01*
X0402723Y0275368D01*
X0402583Y0275388D01*
X0402445Y0275413D01*
X0402307Y0275442D01*
X0402170Y0275474D01*
X0402034Y0275510D01*
X0401899Y0275551D01*
X0401765Y0275595D01*
X0401632Y0275642D01*
X0401501Y0275694D01*
X0401371Y0275749D01*
X0401243Y0275807D01*
X0401117Y0275870D01*
X0400992Y0275935D01*
X0400870Y0276005D01*
X0400749Y0276077D01*
X0400630Y0276153D01*
X0400514Y0276233D01*
X0400400Y0276316D01*
X0400288Y0276401D01*
X0400179Y0276490D01*
X0400072Y0276582D01*
X0399968Y0276677D01*
X0399867Y0276775D01*
X0399768Y0276876D01*
X0399673Y0276979D01*
X0399580Y0277085D01*
X0399490Y0277194D01*
X0399404Y0277305D01*
X0399320Y0277418D01*
X0399240Y0277534D01*
X0399163Y0277652D01*
X0399090Y0277772D01*
X0399019Y0277895D01*
X0398953Y0278019D01*
X0398890Y0278145D01*
X0398830Y0278272D01*
X0398774Y0278401D01*
X0398722Y0278532D01*
X0398673Y0278664D01*
X0398628Y0278798D01*
X0398587Y0278933D01*
X0398550Y0279069D01*
X0398516Y0279205D01*
X0398487Y0279343D01*
X0398461Y0279482D01*
X0398440Y0279621D01*
X0398422Y0279761D01*
X0398408Y0279901D01*
X0398398Y0280041D01*
X0398392Y0280182D01*
X0398390Y0280323D01*
X0483376Y0231132D02*
X0481640Y0221284D01*
X0481625Y0221187D01*
X0481614Y0221090D01*
X0481606Y0220992D01*
X0481602Y0220894D01*
X0481603Y0220795D01*
X0481607Y0220697D01*
X0481615Y0220600D01*
X0481626Y0220502D01*
X0481642Y0220405D01*
X0481661Y0220309D01*
X0481684Y0220213D01*
X0481711Y0220119D01*
X0481742Y0220026D01*
X0481776Y0219934D01*
X0481814Y0219843D01*
X0481855Y0219754D01*
X0481900Y0219667D01*
X0481948Y0219581D01*
X0481999Y0219498D01*
X0482054Y0219416D01*
X0482112Y0219337D01*
X0482173Y0219260D01*
X0482237Y0219185D01*
X0482304Y0219113D01*
X0482373Y0219044D01*
X0482445Y0218978D01*
X0482520Y0218914D01*
X0482597Y0218853D01*
X0482677Y0218796D01*
X0482759Y0218742D01*
X0482843Y0218690D01*
X0482928Y0218643D01*
X0483016Y0218598D01*
X0483105Y0218557D01*
X0483196Y0218520D01*
X0483288Y0218486D01*
X0483382Y0218456D01*
X0483476Y0218430D01*
X0483572Y0218407D01*
X0483668Y0218388D01*
X0488592Y0217519D01*
X0488689Y0217504D01*
X0488786Y0217493D01*
X0488884Y0217485D01*
X0488982Y0217481D01*
X0489081Y0217482D01*
X0489179Y0217486D01*
X0489276Y0217494D01*
X0489374Y0217505D01*
X0489471Y0217521D01*
X0489567Y0217540D01*
X0489663Y0217563D01*
X0489757Y0217590D01*
X0489850Y0217621D01*
X0489942Y0217655D01*
X0490033Y0217693D01*
X0490122Y0217734D01*
X0490209Y0217779D01*
X0490295Y0217827D01*
X0490378Y0217878D01*
X0490460Y0217933D01*
X0490539Y0217991D01*
X0490616Y0218052D01*
X0490691Y0218116D01*
X0490763Y0218183D01*
X0490832Y0218252D01*
X0490898Y0218324D01*
X0490962Y0218399D01*
X0491023Y0218476D01*
X0491080Y0218556D01*
X0491134Y0218638D01*
X0491186Y0218722D01*
X0491233Y0218807D01*
X0491278Y0218895D01*
X0491319Y0218984D01*
X0491356Y0219075D01*
X0491390Y0219167D01*
X0491420Y0219261D01*
X0491446Y0219355D01*
X0491469Y0219451D01*
X0491488Y0219547D01*
X0493224Y0229395D01*
X0493239Y0229492D01*
X0493250Y0229589D01*
X0493258Y0229687D01*
X0493262Y0229785D01*
X0493261Y0229884D01*
X0493257Y0229982D01*
X0493249Y0230079D01*
X0493238Y0230177D01*
X0493222Y0230274D01*
X0493203Y0230370D01*
X0493180Y0230465D01*
X0493153Y0230560D01*
X0493122Y0230653D01*
X0493088Y0230745D01*
X0493050Y0230836D01*
X0493009Y0230925D01*
X0492964Y0231012D01*
X0492916Y0231098D01*
X0492865Y0231181D01*
X0492810Y0231263D01*
X0492752Y0231342D01*
X0492691Y0231419D01*
X0492627Y0231494D01*
X0492560Y0231566D01*
X0492491Y0231635D01*
X0492419Y0231701D01*
X0492344Y0231765D01*
X0492267Y0231826D01*
X0492187Y0231883D01*
X0492105Y0231937D01*
X0492021Y0231989D01*
X0491936Y0232036D01*
X0491848Y0232081D01*
X0491759Y0232122D01*
X0491668Y0232159D01*
X0491576Y0232193D01*
X0491482Y0232223D01*
X0491388Y0232249D01*
X0491292Y0232272D01*
X0491196Y0232291D01*
X0486272Y0233160D01*
X0486175Y0233175D01*
X0486078Y0233186D01*
X0485980Y0233194D01*
X0485882Y0233198D01*
X0485783Y0233197D01*
X0485685Y0233193D01*
X0485588Y0233185D01*
X0485490Y0233174D01*
X0485393Y0233158D01*
X0485297Y0233139D01*
X0485201Y0233116D01*
X0485107Y0233089D01*
X0485014Y0233058D01*
X0484922Y0233024D01*
X0484831Y0232986D01*
X0484742Y0232945D01*
X0484655Y0232900D01*
X0484569Y0232852D01*
X0484486Y0232801D01*
X0484404Y0232746D01*
X0484325Y0232688D01*
X0484248Y0232627D01*
X0484173Y0232563D01*
X0484101Y0232496D01*
X0484032Y0232427D01*
X0483966Y0232355D01*
X0483902Y0232280D01*
X0483841Y0232203D01*
X0483784Y0232123D01*
X0483730Y0232041D01*
X0483678Y0231957D01*
X0483631Y0231872D01*
X0483586Y0231784D01*
X0483545Y0231695D01*
X0483508Y0231604D01*
X0483474Y0231512D01*
X0483444Y0231418D01*
X0483418Y0231324D01*
X0483395Y0231228D01*
X0483376Y0231132D01*
X0436656Y0225964D02*
X0436658Y0226117D01*
X0436664Y0226271D01*
X0436674Y0226424D01*
X0436688Y0226576D01*
X0436706Y0226729D01*
X0436728Y0226880D01*
X0436753Y0227031D01*
X0436783Y0227182D01*
X0436817Y0227332D01*
X0436854Y0227480D01*
X0436895Y0227628D01*
X0436940Y0227774D01*
X0436989Y0227920D01*
X0437042Y0228064D01*
X0437098Y0228206D01*
X0437158Y0228347D01*
X0437222Y0228487D01*
X0437289Y0228625D01*
X0437360Y0228761D01*
X0437435Y0228895D01*
X0437512Y0229027D01*
X0437594Y0229157D01*
X0437678Y0229285D01*
X0437766Y0229411D01*
X0437857Y0229534D01*
X0437951Y0229655D01*
X0438049Y0229773D01*
X0438149Y0229889D01*
X0438253Y0230002D01*
X0438359Y0230113D01*
X0438468Y0230221D01*
X0438580Y0230326D01*
X0438694Y0230427D01*
X0438812Y0230526D01*
X0438931Y0230622D01*
X0439053Y0230715D01*
X0439178Y0230804D01*
X0439305Y0230891D01*
X0439434Y0230973D01*
X0439565Y0231053D01*
X0439698Y0231129D01*
X0439833Y0231202D01*
X0439970Y0231271D01*
X0440109Y0231336D01*
X0440249Y0231398D01*
X0440391Y0231456D01*
X0440534Y0231511D01*
X0440679Y0231562D01*
X0440825Y0231609D01*
X0440972Y0231652D01*
X0441120Y0231691D01*
X0441269Y0231727D01*
X0441419Y0231758D01*
X0441570Y0231786D01*
X0441721Y0231810D01*
X0441874Y0231830D01*
X0442026Y0231846D01*
X0442179Y0231858D01*
X0442332Y0231866D01*
X0442485Y0231870D01*
X0442639Y0231870D01*
X0442792Y0231866D01*
X0442945Y0231858D01*
X0443098Y0231846D01*
X0443250Y0231830D01*
X0443403Y0231810D01*
X0443554Y0231786D01*
X0443705Y0231758D01*
X0443855Y0231727D01*
X0444004Y0231691D01*
X0444152Y0231652D01*
X0444299Y0231609D01*
X0444445Y0231562D01*
X0444590Y0231511D01*
X0444733Y0231456D01*
X0444875Y0231398D01*
X0445015Y0231336D01*
X0445154Y0231271D01*
X0445291Y0231202D01*
X0445426Y0231129D01*
X0445559Y0231053D01*
X0445690Y0230973D01*
X0445819Y0230891D01*
X0445946Y0230804D01*
X0446071Y0230715D01*
X0446193Y0230622D01*
X0446312Y0230526D01*
X0446430Y0230427D01*
X0446544Y0230326D01*
X0446656Y0230221D01*
X0446765Y0230113D01*
X0446871Y0230002D01*
X0446975Y0229889D01*
X0447075Y0229773D01*
X0447173Y0229655D01*
X0447267Y0229534D01*
X0447358Y0229411D01*
X0447446Y0229285D01*
X0447530Y0229157D01*
X0447612Y0229027D01*
X0447689Y0228895D01*
X0447764Y0228761D01*
X0447835Y0228625D01*
X0447902Y0228487D01*
X0447966Y0228347D01*
X0448026Y0228206D01*
X0448082Y0228064D01*
X0448135Y0227920D01*
X0448184Y0227774D01*
X0448229Y0227628D01*
X0448270Y0227480D01*
X0448307Y0227332D01*
X0448341Y0227182D01*
X0448371Y0227031D01*
X0448396Y0226880D01*
X0448418Y0226729D01*
X0448436Y0226576D01*
X0448450Y0226424D01*
X0448460Y0226271D01*
X0448466Y0226117D01*
X0448468Y0225964D01*
X0448466Y0225811D01*
X0448460Y0225657D01*
X0448450Y0225504D01*
X0448436Y0225352D01*
X0448418Y0225199D01*
X0448396Y0225048D01*
X0448371Y0224897D01*
X0448341Y0224746D01*
X0448307Y0224596D01*
X0448270Y0224448D01*
X0448229Y0224300D01*
X0448184Y0224154D01*
X0448135Y0224008D01*
X0448082Y0223864D01*
X0448026Y0223722D01*
X0447966Y0223581D01*
X0447902Y0223441D01*
X0447835Y0223303D01*
X0447764Y0223167D01*
X0447689Y0223033D01*
X0447612Y0222901D01*
X0447530Y0222771D01*
X0447446Y0222643D01*
X0447358Y0222517D01*
X0447267Y0222394D01*
X0447173Y0222273D01*
X0447075Y0222155D01*
X0446975Y0222039D01*
X0446871Y0221926D01*
X0446765Y0221815D01*
X0446656Y0221707D01*
X0446544Y0221602D01*
X0446430Y0221501D01*
X0446312Y0221402D01*
X0446193Y0221306D01*
X0446071Y0221213D01*
X0445946Y0221124D01*
X0445819Y0221037D01*
X0445690Y0220955D01*
X0445559Y0220875D01*
X0445426Y0220799D01*
X0445291Y0220726D01*
X0445154Y0220657D01*
X0445015Y0220592D01*
X0444875Y0220530D01*
X0444733Y0220472D01*
X0444590Y0220417D01*
X0444445Y0220366D01*
X0444299Y0220319D01*
X0444152Y0220276D01*
X0444004Y0220237D01*
X0443855Y0220201D01*
X0443705Y0220170D01*
X0443554Y0220142D01*
X0443403Y0220118D01*
X0443250Y0220098D01*
X0443098Y0220082D01*
X0442945Y0220070D01*
X0442792Y0220062D01*
X0442639Y0220058D01*
X0442485Y0220058D01*
X0442332Y0220062D01*
X0442179Y0220070D01*
X0442026Y0220082D01*
X0441874Y0220098D01*
X0441721Y0220118D01*
X0441570Y0220142D01*
X0441419Y0220170D01*
X0441269Y0220201D01*
X0441120Y0220237D01*
X0440972Y0220276D01*
X0440825Y0220319D01*
X0440679Y0220366D01*
X0440534Y0220417D01*
X0440391Y0220472D01*
X0440249Y0220530D01*
X0440109Y0220592D01*
X0439970Y0220657D01*
X0439833Y0220726D01*
X0439698Y0220799D01*
X0439565Y0220875D01*
X0439434Y0220955D01*
X0439305Y0221037D01*
X0439178Y0221124D01*
X0439053Y0221213D01*
X0438931Y0221306D01*
X0438812Y0221402D01*
X0438694Y0221501D01*
X0438580Y0221602D01*
X0438468Y0221707D01*
X0438359Y0221815D01*
X0438253Y0221926D01*
X0438149Y0222039D01*
X0438049Y0222155D01*
X0437951Y0222273D01*
X0437857Y0222394D01*
X0437766Y0222517D01*
X0437678Y0222643D01*
X0437594Y0222771D01*
X0437512Y0222901D01*
X0437435Y0223033D01*
X0437360Y0223167D01*
X0437289Y0223303D01*
X0437222Y0223441D01*
X0437158Y0223581D01*
X0437098Y0223722D01*
X0437042Y0223864D01*
X0436989Y0224008D01*
X0436940Y0224154D01*
X0436895Y0224300D01*
X0436854Y0224448D01*
X0436817Y0224596D01*
X0436783Y0224746D01*
X0436753Y0224897D01*
X0436728Y0225048D01*
X0436706Y0225199D01*
X0436688Y0225352D01*
X0436674Y0225504D01*
X0436664Y0225657D01*
X0436658Y0225811D01*
X0436656Y0225964D01*
X0450142Y0191481D02*
X0450144Y0191665D01*
X0450151Y0191848D01*
X0450162Y0192031D01*
X0450178Y0192214D01*
X0450198Y0192397D01*
X0450223Y0192579D01*
X0450252Y0192760D01*
X0450286Y0192940D01*
X0450324Y0193120D01*
X0450366Y0193298D01*
X0450413Y0193476D01*
X0450464Y0193652D01*
X0450520Y0193827D01*
X0450579Y0194001D01*
X0450643Y0194173D01*
X0450711Y0194343D01*
X0450784Y0194512D01*
X0450860Y0194679D01*
X0450941Y0194844D01*
X0451025Y0195007D01*
X0451114Y0195168D01*
X0451206Y0195326D01*
X0451302Y0195483D01*
X0451403Y0195637D01*
X0451506Y0195788D01*
X0451614Y0195937D01*
X0451725Y0196083D01*
X0451840Y0196226D01*
X0451958Y0196367D01*
X0452080Y0196504D01*
X0452205Y0196639D01*
X0452333Y0196770D01*
X0452464Y0196898D01*
X0452599Y0197023D01*
X0452736Y0197145D01*
X0452877Y0197263D01*
X0453020Y0197378D01*
X0453166Y0197489D01*
X0453315Y0197597D01*
X0453466Y0197700D01*
X0453620Y0197801D01*
X0453777Y0197897D01*
X0453935Y0197989D01*
X0454096Y0198078D01*
X0454259Y0198162D01*
X0454424Y0198243D01*
X0454591Y0198319D01*
X0454760Y0198392D01*
X0454930Y0198460D01*
X0455102Y0198524D01*
X0455276Y0198583D01*
X0455451Y0198639D01*
X0455627Y0198690D01*
X0455805Y0198737D01*
X0455983Y0198779D01*
X0456163Y0198817D01*
X0456343Y0198851D01*
X0456524Y0198880D01*
X0456706Y0198905D01*
X0456889Y0198925D01*
X0457072Y0198941D01*
X0457255Y0198952D01*
X0457438Y0198959D01*
X0457622Y0198961D01*
X0457806Y0198959D01*
X0457989Y0198952D01*
X0458172Y0198941D01*
X0458355Y0198925D01*
X0458538Y0198905D01*
X0458720Y0198880D01*
X0458901Y0198851D01*
X0459081Y0198817D01*
X0459261Y0198779D01*
X0459439Y0198737D01*
X0459617Y0198690D01*
X0459793Y0198639D01*
X0459968Y0198583D01*
X0460142Y0198524D01*
X0460314Y0198460D01*
X0460484Y0198392D01*
X0460653Y0198319D01*
X0460820Y0198243D01*
X0460985Y0198162D01*
X0461148Y0198078D01*
X0461309Y0197989D01*
X0461467Y0197897D01*
X0461624Y0197801D01*
X0461778Y0197700D01*
X0461929Y0197597D01*
X0462078Y0197489D01*
X0462224Y0197378D01*
X0462367Y0197263D01*
X0462508Y0197145D01*
X0462645Y0197023D01*
X0462780Y0196898D01*
X0462911Y0196770D01*
X0463039Y0196639D01*
X0463164Y0196504D01*
X0463286Y0196367D01*
X0463404Y0196226D01*
X0463519Y0196083D01*
X0463630Y0195937D01*
X0463738Y0195788D01*
X0463841Y0195637D01*
X0463942Y0195483D01*
X0464038Y0195326D01*
X0464130Y0195168D01*
X0464219Y0195007D01*
X0464303Y0194844D01*
X0464384Y0194679D01*
X0464460Y0194512D01*
X0464533Y0194343D01*
X0464601Y0194173D01*
X0464665Y0194001D01*
X0464724Y0193827D01*
X0464780Y0193652D01*
X0464831Y0193476D01*
X0464878Y0193298D01*
X0464920Y0193120D01*
X0464958Y0192940D01*
X0464992Y0192760D01*
X0465021Y0192579D01*
X0465046Y0192397D01*
X0465066Y0192214D01*
X0465082Y0192031D01*
X0465093Y0191848D01*
X0465100Y0191665D01*
X0465102Y0191481D01*
X0465100Y0191297D01*
X0465093Y0191114D01*
X0465082Y0190931D01*
X0465066Y0190748D01*
X0465046Y0190565D01*
X0465021Y0190383D01*
X0464992Y0190202D01*
X0464958Y0190022D01*
X0464920Y0189842D01*
X0464878Y0189664D01*
X0464831Y0189486D01*
X0464780Y0189310D01*
X0464724Y0189135D01*
X0464665Y0188961D01*
X0464601Y0188789D01*
X0464533Y0188619D01*
X0464460Y0188450D01*
X0464384Y0188283D01*
X0464303Y0188118D01*
X0464219Y0187955D01*
X0464130Y0187794D01*
X0464038Y0187636D01*
X0463942Y0187479D01*
X0463841Y0187325D01*
X0463738Y0187174D01*
X0463630Y0187025D01*
X0463519Y0186879D01*
X0463404Y0186736D01*
X0463286Y0186595D01*
X0463164Y0186458D01*
X0463039Y0186323D01*
X0462911Y0186192D01*
X0462780Y0186064D01*
X0462645Y0185939D01*
X0462508Y0185817D01*
X0462367Y0185699D01*
X0462224Y0185584D01*
X0462078Y0185473D01*
X0461929Y0185365D01*
X0461778Y0185262D01*
X0461624Y0185161D01*
X0461467Y0185065D01*
X0461309Y0184973D01*
X0461148Y0184884D01*
X0460985Y0184800D01*
X0460820Y0184719D01*
X0460653Y0184643D01*
X0460484Y0184570D01*
X0460314Y0184502D01*
X0460142Y0184438D01*
X0459968Y0184379D01*
X0459793Y0184323D01*
X0459617Y0184272D01*
X0459439Y0184225D01*
X0459261Y0184183D01*
X0459081Y0184145D01*
X0458901Y0184111D01*
X0458720Y0184082D01*
X0458538Y0184057D01*
X0458355Y0184037D01*
X0458172Y0184021D01*
X0457989Y0184010D01*
X0457806Y0184003D01*
X0457622Y0184001D01*
X0457438Y0184003D01*
X0457255Y0184010D01*
X0457072Y0184021D01*
X0456889Y0184037D01*
X0456706Y0184057D01*
X0456524Y0184082D01*
X0456343Y0184111D01*
X0456163Y0184145D01*
X0455983Y0184183D01*
X0455805Y0184225D01*
X0455627Y0184272D01*
X0455451Y0184323D01*
X0455276Y0184379D01*
X0455102Y0184438D01*
X0454930Y0184502D01*
X0454760Y0184570D01*
X0454591Y0184643D01*
X0454424Y0184719D01*
X0454259Y0184800D01*
X0454096Y0184884D01*
X0453935Y0184973D01*
X0453777Y0185065D01*
X0453620Y0185161D01*
X0453466Y0185262D01*
X0453315Y0185365D01*
X0453166Y0185473D01*
X0453020Y0185584D01*
X0452877Y0185699D01*
X0452736Y0185817D01*
X0452599Y0185939D01*
X0452464Y0186064D01*
X0452333Y0186192D01*
X0452205Y0186323D01*
X0452080Y0186458D01*
X0451958Y0186595D01*
X0451840Y0186736D01*
X0451725Y0186879D01*
X0451614Y0187025D01*
X0451506Y0187174D01*
X0451403Y0187325D01*
X0451302Y0187479D01*
X0451206Y0187636D01*
X0451114Y0187794D01*
X0451025Y0187955D01*
X0450941Y0188118D01*
X0450860Y0188283D01*
X0450784Y0188450D01*
X0450711Y0188619D01*
X0450643Y0188789D01*
X0450579Y0188961D01*
X0450520Y0189135D01*
X0450464Y0189310D01*
X0450413Y0189486D01*
X0450366Y0189664D01*
X0450324Y0189842D01*
X0450286Y0190022D01*
X0450252Y0190202D01*
X0450223Y0190383D01*
X0450198Y0190565D01*
X0450178Y0190748D01*
X0450162Y0190931D01*
X0450151Y0191114D01*
X0450144Y0191297D01*
X0450142Y0191481D01*
X0472882Y0149283D02*
X0472884Y0149423D01*
X0472890Y0149563D01*
X0472900Y0149702D01*
X0472914Y0149841D01*
X0472932Y0149980D01*
X0472953Y0150118D01*
X0472979Y0150256D01*
X0473009Y0150393D01*
X0473042Y0150528D01*
X0473080Y0150663D01*
X0473121Y0150797D01*
X0473166Y0150930D01*
X0473214Y0151061D01*
X0473267Y0151190D01*
X0473323Y0151319D01*
X0473382Y0151445D01*
X0473446Y0151570D01*
X0473512Y0151693D01*
X0473583Y0151814D01*
X0473656Y0151933D01*
X0473733Y0152050D01*
X0473814Y0152164D01*
X0473897Y0152276D01*
X0473984Y0152386D01*
X0474074Y0152494D01*
X0474166Y0152598D01*
X0474262Y0152700D01*
X0474361Y0152800D01*
X0474462Y0152896D01*
X0474566Y0152990D01*
X0474673Y0153080D01*
X0474782Y0153167D01*
X0474894Y0153252D01*
X0475008Y0153333D01*
X0475124Y0153411D01*
X0475242Y0153485D01*
X0475363Y0153556D01*
X0475485Y0153624D01*
X0475610Y0153688D01*
X0475736Y0153749D01*
X0475863Y0153806D01*
X0475993Y0153859D01*
X0476124Y0153909D01*
X0476256Y0153954D01*
X0476389Y0153997D01*
X0476524Y0154035D01*
X0476659Y0154069D01*
X0476796Y0154100D01*
X0476933Y0154127D01*
X0477071Y0154149D01*
X0477210Y0154168D01*
X0477349Y0154183D01*
X0477488Y0154194D01*
X0477628Y0154201D01*
X0477768Y0154204D01*
X0477908Y0154203D01*
X0478048Y0154198D01*
X0478187Y0154189D01*
X0478327Y0154176D01*
X0478466Y0154159D01*
X0478604Y0154138D01*
X0478742Y0154114D01*
X0478879Y0154085D01*
X0479015Y0154053D01*
X0479150Y0154016D01*
X0479284Y0153976D01*
X0479417Y0153932D01*
X0479548Y0153884D01*
X0479678Y0153833D01*
X0479807Y0153778D01*
X0479934Y0153719D01*
X0480059Y0153656D01*
X0480182Y0153591D01*
X0480304Y0153521D01*
X0480423Y0153448D01*
X0480541Y0153372D01*
X0480656Y0153293D01*
X0480769Y0153210D01*
X0480879Y0153124D01*
X0480987Y0153035D01*
X0481092Y0152943D01*
X0481195Y0152848D01*
X0481295Y0152750D01*
X0481392Y0152650D01*
X0481486Y0152546D01*
X0481578Y0152440D01*
X0481666Y0152332D01*
X0481751Y0152221D01*
X0481833Y0152107D01*
X0481912Y0151991D01*
X0481987Y0151874D01*
X0482059Y0151754D01*
X0482127Y0151632D01*
X0482192Y0151508D01*
X0482254Y0151382D01*
X0482312Y0151255D01*
X0482366Y0151126D01*
X0482417Y0150995D01*
X0482463Y0150863D01*
X0482506Y0150730D01*
X0482546Y0150596D01*
X0482581Y0150461D01*
X0482613Y0150324D01*
X0482640Y0150187D01*
X0482664Y0150049D01*
X0482684Y0149911D01*
X0482700Y0149772D01*
X0482712Y0149632D01*
X0482720Y0149493D01*
X0482724Y0149353D01*
X0482724Y0149213D01*
X0482720Y0149073D01*
X0482712Y0148934D01*
X0482700Y0148794D01*
X0482684Y0148655D01*
X0482664Y0148517D01*
X0482640Y0148379D01*
X0482613Y0148242D01*
X0482581Y0148105D01*
X0482546Y0147970D01*
X0482506Y0147836D01*
X0482463Y0147703D01*
X0482417Y0147571D01*
X0482366Y0147440D01*
X0482312Y0147311D01*
X0482254Y0147184D01*
X0482192Y0147058D01*
X0482127Y0146934D01*
X0482059Y0146812D01*
X0481987Y0146692D01*
X0481912Y0146575D01*
X0481833Y0146459D01*
X0481751Y0146345D01*
X0481666Y0146234D01*
X0481578Y0146126D01*
X0481486Y0146020D01*
X0481392Y0145916D01*
X0481295Y0145816D01*
X0481195Y0145718D01*
X0481092Y0145623D01*
X0480987Y0145531D01*
X0480879Y0145442D01*
X0480769Y0145356D01*
X0480656Y0145273D01*
X0480541Y0145194D01*
X0480423Y0145118D01*
X0480304Y0145045D01*
X0480182Y0144975D01*
X0480059Y0144910D01*
X0479934Y0144847D01*
X0479807Y0144788D01*
X0479678Y0144733D01*
X0479548Y0144682D01*
X0479417Y0144634D01*
X0479284Y0144590D01*
X0479150Y0144550D01*
X0479015Y0144513D01*
X0478879Y0144481D01*
X0478742Y0144452D01*
X0478604Y0144428D01*
X0478466Y0144407D01*
X0478327Y0144390D01*
X0478187Y0144377D01*
X0478048Y0144368D01*
X0477908Y0144363D01*
X0477768Y0144362D01*
X0477628Y0144365D01*
X0477488Y0144372D01*
X0477349Y0144383D01*
X0477210Y0144398D01*
X0477071Y0144417D01*
X0476933Y0144439D01*
X0476796Y0144466D01*
X0476659Y0144497D01*
X0476524Y0144531D01*
X0476389Y0144569D01*
X0476256Y0144612D01*
X0476124Y0144657D01*
X0475993Y0144707D01*
X0475863Y0144760D01*
X0475736Y0144817D01*
X0475610Y0144878D01*
X0475485Y0144942D01*
X0475363Y0145010D01*
X0475242Y0145081D01*
X0475124Y0145155D01*
X0475008Y0145233D01*
X0474894Y0145314D01*
X0474782Y0145399D01*
X0474673Y0145486D01*
X0474566Y0145576D01*
X0474462Y0145670D01*
X0474361Y0145766D01*
X0474262Y0145866D01*
X0474166Y0145968D01*
X0474074Y0146072D01*
X0473984Y0146180D01*
X0473897Y0146290D01*
X0473814Y0146402D01*
X0473733Y0146516D01*
X0473656Y0146633D01*
X0473583Y0146752D01*
X0473512Y0146873D01*
X0473446Y0146996D01*
X0473382Y0147121D01*
X0473323Y0147247D01*
X0473267Y0147376D01*
X0473214Y0147505D01*
X0473166Y0147636D01*
X0473121Y0147769D01*
X0473080Y0147903D01*
X0473042Y0148038D01*
X0473009Y0148173D01*
X0472979Y0148310D01*
X0472953Y0148448D01*
X0472932Y0148586D01*
X0472914Y0148725D01*
X0472900Y0148864D01*
X0472890Y0149003D01*
X0472884Y0149143D01*
X0472882Y0149283D01*
X0501264Y0130857D02*
X0501266Y0130998D01*
X0501272Y0131139D01*
X0501282Y0131279D01*
X0501296Y0131419D01*
X0501314Y0131559D01*
X0501335Y0131698D01*
X0501361Y0131837D01*
X0501390Y0131975D01*
X0501424Y0132111D01*
X0501461Y0132247D01*
X0501502Y0132382D01*
X0501547Y0132516D01*
X0501596Y0132648D01*
X0501648Y0132779D01*
X0501704Y0132908D01*
X0501764Y0133035D01*
X0501827Y0133161D01*
X0501893Y0133285D01*
X0501964Y0133408D01*
X0502037Y0133528D01*
X0502114Y0133646D01*
X0502194Y0133762D01*
X0502278Y0133875D01*
X0502364Y0133986D01*
X0502454Y0134095D01*
X0502547Y0134201D01*
X0502642Y0134304D01*
X0502741Y0134405D01*
X0502842Y0134503D01*
X0502946Y0134598D01*
X0503053Y0134690D01*
X0503162Y0134779D01*
X0503274Y0134864D01*
X0503388Y0134947D01*
X0503504Y0135027D01*
X0503623Y0135103D01*
X0503744Y0135175D01*
X0503866Y0135245D01*
X0503991Y0135310D01*
X0504117Y0135373D01*
X0504245Y0135431D01*
X0504375Y0135486D01*
X0504506Y0135538D01*
X0504639Y0135585D01*
X0504773Y0135629D01*
X0504908Y0135670D01*
X0505044Y0135706D01*
X0505181Y0135738D01*
X0505319Y0135767D01*
X0505457Y0135792D01*
X0505597Y0135812D01*
X0505737Y0135829D01*
X0505877Y0135842D01*
X0506018Y0135851D01*
X0506158Y0135856D01*
X0506299Y0135857D01*
X0506440Y0135854D01*
X0506581Y0135847D01*
X0506721Y0135836D01*
X0506861Y0135821D01*
X0507001Y0135802D01*
X0507140Y0135780D01*
X0507278Y0135753D01*
X0507416Y0135723D01*
X0507552Y0135688D01*
X0507688Y0135650D01*
X0507822Y0135608D01*
X0507956Y0135562D01*
X0508088Y0135513D01*
X0508218Y0135459D01*
X0508347Y0135402D01*
X0508474Y0135342D01*
X0508600Y0135278D01*
X0508723Y0135210D01*
X0508845Y0135139D01*
X0508965Y0135065D01*
X0509082Y0134987D01*
X0509197Y0134906D01*
X0509310Y0134822D01*
X0509421Y0134735D01*
X0509529Y0134644D01*
X0509634Y0134551D01*
X0509737Y0134454D01*
X0509837Y0134355D01*
X0509934Y0134253D01*
X0510028Y0134148D01*
X0510119Y0134041D01*
X0510207Y0133931D01*
X0510292Y0133819D01*
X0510374Y0133704D01*
X0510453Y0133587D01*
X0510528Y0133468D01*
X0510600Y0133347D01*
X0510668Y0133224D01*
X0510733Y0133099D01*
X0510795Y0132972D01*
X0510852Y0132843D01*
X0510907Y0132713D01*
X0510957Y0132582D01*
X0511004Y0132449D01*
X0511047Y0132315D01*
X0511086Y0132179D01*
X0511121Y0132043D01*
X0511153Y0131906D01*
X0511180Y0131768D01*
X0511204Y0131629D01*
X0511224Y0131489D01*
X0511240Y0131349D01*
X0511252Y0131209D01*
X0511260Y0131068D01*
X0511264Y0130927D01*
X0511264Y0130787D01*
X0511260Y0130646D01*
X0511252Y0130505D01*
X0511240Y0130365D01*
X0511224Y0130225D01*
X0511204Y0130085D01*
X0511180Y0129946D01*
X0511153Y0129808D01*
X0511121Y0129671D01*
X0511086Y0129535D01*
X0511047Y0129399D01*
X0511004Y0129265D01*
X0510957Y0129132D01*
X0510907Y0129001D01*
X0510852Y0128871D01*
X0510795Y0128742D01*
X0510733Y0128615D01*
X0510668Y0128490D01*
X0510600Y0128367D01*
X0510528Y0128246D01*
X0510453Y0128127D01*
X0510374Y0128010D01*
X0510292Y0127895D01*
X0510207Y0127783D01*
X0510119Y0127673D01*
X0510028Y0127566D01*
X0509934Y0127461D01*
X0509837Y0127359D01*
X0509737Y0127260D01*
X0509634Y0127163D01*
X0509529Y0127070D01*
X0509421Y0126979D01*
X0509310Y0126892D01*
X0509197Y0126808D01*
X0509082Y0126727D01*
X0508965Y0126649D01*
X0508845Y0126575D01*
X0508723Y0126504D01*
X0508600Y0126436D01*
X0508474Y0126372D01*
X0508347Y0126312D01*
X0508218Y0126255D01*
X0508088Y0126201D01*
X0507956Y0126152D01*
X0507822Y0126106D01*
X0507688Y0126064D01*
X0507552Y0126026D01*
X0507416Y0125991D01*
X0507278Y0125961D01*
X0507140Y0125934D01*
X0507001Y0125912D01*
X0506861Y0125893D01*
X0506721Y0125878D01*
X0506581Y0125867D01*
X0506440Y0125860D01*
X0506299Y0125857D01*
X0506158Y0125858D01*
X0506018Y0125863D01*
X0505877Y0125872D01*
X0505737Y0125885D01*
X0505597Y0125902D01*
X0505457Y0125922D01*
X0505319Y0125947D01*
X0505181Y0125976D01*
X0505044Y0126008D01*
X0504908Y0126044D01*
X0504773Y0126085D01*
X0504639Y0126129D01*
X0504506Y0126176D01*
X0504375Y0126228D01*
X0504245Y0126283D01*
X0504117Y0126341D01*
X0503991Y0126404D01*
X0503866Y0126469D01*
X0503744Y0126539D01*
X0503623Y0126611D01*
X0503504Y0126687D01*
X0503388Y0126767D01*
X0503274Y0126850D01*
X0503162Y0126935D01*
X0503053Y0127024D01*
X0502946Y0127116D01*
X0502842Y0127211D01*
X0502741Y0127309D01*
X0502642Y0127410D01*
X0502547Y0127513D01*
X0502454Y0127619D01*
X0502364Y0127728D01*
X0502278Y0127839D01*
X0502194Y0127952D01*
X0502114Y0128068D01*
X0502037Y0128186D01*
X0501964Y0128306D01*
X0501893Y0128429D01*
X0501827Y0128553D01*
X0501764Y0128679D01*
X0501704Y0128806D01*
X0501648Y0128935D01*
X0501596Y0129066D01*
X0501547Y0129198D01*
X0501502Y0129332D01*
X0501461Y0129467D01*
X0501424Y0129603D01*
X0501390Y0129739D01*
X0501361Y0129877D01*
X0501335Y0130016D01*
X0501314Y0130155D01*
X0501296Y0130295D01*
X0501282Y0130435D01*
X0501272Y0130575D01*
X0501266Y0130716D01*
X0501264Y0130857D01*
X0507937Y0056983D02*
X0507939Y0057136D01*
X0507945Y0057290D01*
X0507955Y0057443D01*
X0507969Y0057595D01*
X0507987Y0057748D01*
X0508009Y0057899D01*
X0508034Y0058050D01*
X0508064Y0058201D01*
X0508098Y0058351D01*
X0508135Y0058499D01*
X0508176Y0058647D01*
X0508221Y0058793D01*
X0508270Y0058939D01*
X0508323Y0059083D01*
X0508379Y0059225D01*
X0508439Y0059366D01*
X0508503Y0059506D01*
X0508570Y0059644D01*
X0508641Y0059780D01*
X0508716Y0059914D01*
X0508793Y0060046D01*
X0508875Y0060176D01*
X0508959Y0060304D01*
X0509047Y0060430D01*
X0509138Y0060553D01*
X0509232Y0060674D01*
X0509330Y0060792D01*
X0509430Y0060908D01*
X0509534Y0061021D01*
X0509640Y0061132D01*
X0509749Y0061240D01*
X0509861Y0061345D01*
X0509975Y0061446D01*
X0510093Y0061545D01*
X0510212Y0061641D01*
X0510334Y0061734D01*
X0510459Y0061823D01*
X0510586Y0061910D01*
X0510715Y0061992D01*
X0510846Y0062072D01*
X0510979Y0062148D01*
X0511114Y0062221D01*
X0511251Y0062290D01*
X0511390Y0062355D01*
X0511530Y0062417D01*
X0511672Y0062475D01*
X0511815Y0062530D01*
X0511960Y0062581D01*
X0512106Y0062628D01*
X0512253Y0062671D01*
X0512401Y0062710D01*
X0512550Y0062746D01*
X0512700Y0062777D01*
X0512851Y0062805D01*
X0513002Y0062829D01*
X0513155Y0062849D01*
X0513307Y0062865D01*
X0513460Y0062877D01*
X0513613Y0062885D01*
X0513766Y0062889D01*
X0513920Y0062889D01*
X0514073Y0062885D01*
X0514226Y0062877D01*
X0514379Y0062865D01*
X0514531Y0062849D01*
X0514684Y0062829D01*
X0514835Y0062805D01*
X0514986Y0062777D01*
X0515136Y0062746D01*
X0515285Y0062710D01*
X0515433Y0062671D01*
X0515580Y0062628D01*
X0515726Y0062581D01*
X0515871Y0062530D01*
X0516014Y0062475D01*
X0516156Y0062417D01*
X0516296Y0062355D01*
X0516435Y0062290D01*
X0516572Y0062221D01*
X0516707Y0062148D01*
X0516840Y0062072D01*
X0516971Y0061992D01*
X0517100Y0061910D01*
X0517227Y0061823D01*
X0517352Y0061734D01*
X0517474Y0061641D01*
X0517593Y0061545D01*
X0517711Y0061446D01*
X0517825Y0061345D01*
X0517937Y0061240D01*
X0518046Y0061132D01*
X0518152Y0061021D01*
X0518256Y0060908D01*
X0518356Y0060792D01*
X0518454Y0060674D01*
X0518548Y0060553D01*
X0518639Y0060430D01*
X0518727Y0060304D01*
X0518811Y0060176D01*
X0518893Y0060046D01*
X0518970Y0059914D01*
X0519045Y0059780D01*
X0519116Y0059644D01*
X0519183Y0059506D01*
X0519247Y0059366D01*
X0519307Y0059225D01*
X0519363Y0059083D01*
X0519416Y0058939D01*
X0519465Y0058793D01*
X0519510Y0058647D01*
X0519551Y0058499D01*
X0519588Y0058351D01*
X0519622Y0058201D01*
X0519652Y0058050D01*
X0519677Y0057899D01*
X0519699Y0057748D01*
X0519717Y0057595D01*
X0519731Y0057443D01*
X0519741Y0057290D01*
X0519747Y0057136D01*
X0519749Y0056983D01*
X0519747Y0056830D01*
X0519741Y0056676D01*
X0519731Y0056523D01*
X0519717Y0056371D01*
X0519699Y0056218D01*
X0519677Y0056067D01*
X0519652Y0055916D01*
X0519622Y0055765D01*
X0519588Y0055615D01*
X0519551Y0055467D01*
X0519510Y0055319D01*
X0519465Y0055173D01*
X0519416Y0055027D01*
X0519363Y0054883D01*
X0519307Y0054741D01*
X0519247Y0054600D01*
X0519183Y0054460D01*
X0519116Y0054322D01*
X0519045Y0054186D01*
X0518970Y0054052D01*
X0518893Y0053920D01*
X0518811Y0053790D01*
X0518727Y0053662D01*
X0518639Y0053536D01*
X0518548Y0053413D01*
X0518454Y0053292D01*
X0518356Y0053174D01*
X0518256Y0053058D01*
X0518152Y0052945D01*
X0518046Y0052834D01*
X0517937Y0052726D01*
X0517825Y0052621D01*
X0517711Y0052520D01*
X0517593Y0052421D01*
X0517474Y0052325D01*
X0517352Y0052232D01*
X0517227Y0052143D01*
X0517100Y0052056D01*
X0516971Y0051974D01*
X0516840Y0051894D01*
X0516707Y0051818D01*
X0516572Y0051745D01*
X0516435Y0051676D01*
X0516296Y0051611D01*
X0516156Y0051549D01*
X0516014Y0051491D01*
X0515871Y0051436D01*
X0515726Y0051385D01*
X0515580Y0051338D01*
X0515433Y0051295D01*
X0515285Y0051256D01*
X0515136Y0051220D01*
X0514986Y0051189D01*
X0514835Y0051161D01*
X0514684Y0051137D01*
X0514531Y0051117D01*
X0514379Y0051101D01*
X0514226Y0051089D01*
X0514073Y0051081D01*
X0513920Y0051077D01*
X0513766Y0051077D01*
X0513613Y0051081D01*
X0513460Y0051089D01*
X0513307Y0051101D01*
X0513155Y0051117D01*
X0513002Y0051137D01*
X0512851Y0051161D01*
X0512700Y0051189D01*
X0512550Y0051220D01*
X0512401Y0051256D01*
X0512253Y0051295D01*
X0512106Y0051338D01*
X0511960Y0051385D01*
X0511815Y0051436D01*
X0511672Y0051491D01*
X0511530Y0051549D01*
X0511390Y0051611D01*
X0511251Y0051676D01*
X0511114Y0051745D01*
X0510979Y0051818D01*
X0510846Y0051894D01*
X0510715Y0051974D01*
X0510586Y0052056D01*
X0510459Y0052143D01*
X0510334Y0052232D01*
X0510212Y0052325D01*
X0510093Y0052421D01*
X0509975Y0052520D01*
X0509861Y0052621D01*
X0509749Y0052726D01*
X0509640Y0052834D01*
X0509534Y0052945D01*
X0509430Y0053058D01*
X0509330Y0053174D01*
X0509232Y0053292D01*
X0509138Y0053413D01*
X0509047Y0053536D01*
X0508959Y0053662D01*
X0508875Y0053790D01*
X0508793Y0053920D01*
X0508716Y0054052D01*
X0508641Y0054186D01*
X0508570Y0054322D01*
X0508503Y0054460D01*
X0508439Y0054600D01*
X0508379Y0054741D01*
X0508323Y0054883D01*
X0508270Y0055027D01*
X0508221Y0055173D01*
X0508176Y0055319D01*
X0508135Y0055467D01*
X0508098Y0055615D01*
X0508064Y0055765D01*
X0508034Y0055916D01*
X0508009Y0056067D01*
X0507987Y0056218D01*
X0507969Y0056371D01*
X0507955Y0056523D01*
X0507945Y0056676D01*
X0507939Y0056830D01*
X0507937Y0056983D01*
X0419828Y0025964D02*
X0419830Y0026077D01*
X0419836Y0026191D01*
X0419846Y0026304D01*
X0419860Y0026416D01*
X0419877Y0026528D01*
X0419899Y0026640D01*
X0419925Y0026750D01*
X0419954Y0026860D01*
X0419987Y0026968D01*
X0420024Y0027076D01*
X0420065Y0027181D01*
X0420109Y0027286D01*
X0420157Y0027389D01*
X0420208Y0027490D01*
X0420263Y0027589D01*
X0420322Y0027686D01*
X0420384Y0027781D01*
X0420449Y0027874D01*
X0420517Y0027965D01*
X0420588Y0028053D01*
X0420663Y0028139D01*
X0420740Y0028222D01*
X0420820Y0028302D01*
X0420903Y0028379D01*
X0420989Y0028454D01*
X0421077Y0028525D01*
X0421168Y0028593D01*
X0421261Y0028658D01*
X0421356Y0028720D01*
X0421453Y0028779D01*
X0421552Y0028834D01*
X0421653Y0028885D01*
X0421756Y0028933D01*
X0421861Y0028977D01*
X0421966Y0029018D01*
X0422074Y0029055D01*
X0422182Y0029088D01*
X0422292Y0029117D01*
X0422402Y0029143D01*
X0422514Y0029165D01*
X0422626Y0029182D01*
X0422738Y0029196D01*
X0422851Y0029206D01*
X0422965Y0029212D01*
X0423078Y0029214D01*
X0423191Y0029212D01*
X0423305Y0029206D01*
X0423418Y0029196D01*
X0423530Y0029182D01*
X0423642Y0029165D01*
X0423754Y0029143D01*
X0423864Y0029117D01*
X0423974Y0029088D01*
X0424082Y0029055D01*
X0424190Y0029018D01*
X0424295Y0028977D01*
X0424400Y0028933D01*
X0424503Y0028885D01*
X0424604Y0028834D01*
X0424703Y0028779D01*
X0424800Y0028720D01*
X0424895Y0028658D01*
X0424988Y0028593D01*
X0425079Y0028525D01*
X0425167Y0028454D01*
X0425253Y0028379D01*
X0425336Y0028302D01*
X0425416Y0028222D01*
X0425493Y0028139D01*
X0425568Y0028053D01*
X0425639Y0027965D01*
X0425707Y0027874D01*
X0425772Y0027781D01*
X0425834Y0027686D01*
X0425893Y0027589D01*
X0425948Y0027490D01*
X0425999Y0027389D01*
X0426047Y0027286D01*
X0426091Y0027181D01*
X0426132Y0027076D01*
X0426169Y0026968D01*
X0426202Y0026860D01*
X0426231Y0026750D01*
X0426257Y0026640D01*
X0426279Y0026528D01*
X0426296Y0026416D01*
X0426310Y0026304D01*
X0426320Y0026191D01*
X0426326Y0026077D01*
X0426328Y0025964D01*
X0426326Y0025851D01*
X0426320Y0025737D01*
X0426310Y0025624D01*
X0426296Y0025512D01*
X0426279Y0025400D01*
X0426257Y0025288D01*
X0426231Y0025178D01*
X0426202Y0025068D01*
X0426169Y0024960D01*
X0426132Y0024852D01*
X0426091Y0024747D01*
X0426047Y0024642D01*
X0425999Y0024539D01*
X0425948Y0024438D01*
X0425893Y0024339D01*
X0425834Y0024242D01*
X0425772Y0024147D01*
X0425707Y0024054D01*
X0425639Y0023963D01*
X0425568Y0023875D01*
X0425493Y0023789D01*
X0425416Y0023706D01*
X0425336Y0023626D01*
X0425253Y0023549D01*
X0425167Y0023474D01*
X0425079Y0023403D01*
X0424988Y0023335D01*
X0424895Y0023270D01*
X0424800Y0023208D01*
X0424703Y0023149D01*
X0424604Y0023094D01*
X0424503Y0023043D01*
X0424400Y0022995D01*
X0424295Y0022951D01*
X0424190Y0022910D01*
X0424082Y0022873D01*
X0423974Y0022840D01*
X0423864Y0022811D01*
X0423754Y0022785D01*
X0423642Y0022763D01*
X0423530Y0022746D01*
X0423418Y0022732D01*
X0423305Y0022722D01*
X0423191Y0022716D01*
X0423078Y0022714D01*
X0422965Y0022716D01*
X0422851Y0022722D01*
X0422738Y0022732D01*
X0422626Y0022746D01*
X0422514Y0022763D01*
X0422402Y0022785D01*
X0422292Y0022811D01*
X0422182Y0022840D01*
X0422074Y0022873D01*
X0421966Y0022910D01*
X0421861Y0022951D01*
X0421756Y0022995D01*
X0421653Y0023043D01*
X0421552Y0023094D01*
X0421453Y0023149D01*
X0421356Y0023208D01*
X0421261Y0023270D01*
X0421168Y0023335D01*
X0421077Y0023403D01*
X0420989Y0023474D01*
X0420903Y0023549D01*
X0420820Y0023626D01*
X0420740Y0023706D01*
X0420663Y0023789D01*
X0420588Y0023875D01*
X0420517Y0023963D01*
X0420449Y0024054D01*
X0420384Y0024147D01*
X0420322Y0024242D01*
X0420263Y0024339D01*
X0420208Y0024438D01*
X0420157Y0024539D01*
X0420109Y0024642D01*
X0420065Y0024747D01*
X0420024Y0024852D01*
X0419987Y0024960D01*
X0419954Y0025068D01*
X0419925Y0025178D01*
X0419899Y0025288D01*
X0419877Y0025400D01*
X0419860Y0025512D01*
X0419846Y0025624D01*
X0419836Y0025737D01*
X0419830Y0025851D01*
X0419828Y0025964D01*
X0410221Y0002343D02*
X0410147Y0002297D01*
X0410070Y0002255D01*
X0409992Y0002215D01*
X0409912Y0002179D01*
X0409830Y0002147D01*
X0409748Y0002118D01*
X0409664Y0002093D01*
X0409579Y0002072D01*
X0409493Y0002055D01*
X0409407Y0002041D01*
X0409320Y0002031D01*
X0409232Y0002024D01*
X0409145Y0002022D01*
X0409057Y0002023D01*
X0408970Y0002029D01*
X0408883Y0002038D01*
X0408796Y0002051D01*
X0408710Y0002067D01*
X0408625Y0002088D01*
X0403975Y0003312D02*
X0403893Y0003332D01*
X0403810Y0003348D01*
X0403726Y0003361D01*
X0403642Y0003370D01*
X0403558Y0003376D01*
X0403473Y0003378D01*
X0410389Y0051899D02*
X0410391Y0052012D01*
X0410397Y0052126D01*
X0410407Y0052239D01*
X0410421Y0052351D01*
X0410438Y0052463D01*
X0410460Y0052575D01*
X0410486Y0052685D01*
X0410515Y0052795D01*
X0410548Y0052903D01*
X0410585Y0053011D01*
X0410626Y0053116D01*
X0410670Y0053221D01*
X0410718Y0053324D01*
X0410769Y0053425D01*
X0410824Y0053524D01*
X0410883Y0053621D01*
X0410945Y0053716D01*
X0411010Y0053809D01*
X0411078Y0053900D01*
X0411149Y0053988D01*
X0411224Y0054074D01*
X0411301Y0054157D01*
X0411381Y0054237D01*
X0411464Y0054314D01*
X0411550Y0054389D01*
X0411638Y0054460D01*
X0411729Y0054528D01*
X0411822Y0054593D01*
X0411917Y0054655D01*
X0412014Y0054714D01*
X0412113Y0054769D01*
X0412214Y0054820D01*
X0412317Y0054868D01*
X0412422Y0054912D01*
X0412527Y0054953D01*
X0412635Y0054990D01*
X0412743Y0055023D01*
X0412853Y0055052D01*
X0412963Y0055078D01*
X0413075Y0055100D01*
X0413187Y0055117D01*
X0413299Y0055131D01*
X0413412Y0055141D01*
X0413526Y0055147D01*
X0413639Y0055149D01*
X0413752Y0055147D01*
X0413866Y0055141D01*
X0413979Y0055131D01*
X0414091Y0055117D01*
X0414203Y0055100D01*
X0414315Y0055078D01*
X0414425Y0055052D01*
X0414535Y0055023D01*
X0414643Y0054990D01*
X0414751Y0054953D01*
X0414856Y0054912D01*
X0414961Y0054868D01*
X0415064Y0054820D01*
X0415165Y0054769D01*
X0415264Y0054714D01*
X0415361Y0054655D01*
X0415456Y0054593D01*
X0415549Y0054528D01*
X0415640Y0054460D01*
X0415728Y0054389D01*
X0415814Y0054314D01*
X0415897Y0054237D01*
X0415977Y0054157D01*
X0416054Y0054074D01*
X0416129Y0053988D01*
X0416200Y0053900D01*
X0416268Y0053809D01*
X0416333Y0053716D01*
X0416395Y0053621D01*
X0416454Y0053524D01*
X0416509Y0053425D01*
X0416560Y0053324D01*
X0416608Y0053221D01*
X0416652Y0053116D01*
X0416693Y0053011D01*
X0416730Y0052903D01*
X0416763Y0052795D01*
X0416792Y0052685D01*
X0416818Y0052575D01*
X0416840Y0052463D01*
X0416857Y0052351D01*
X0416871Y0052239D01*
X0416881Y0052126D01*
X0416887Y0052012D01*
X0416889Y0051899D01*
X0416887Y0051786D01*
X0416881Y0051672D01*
X0416871Y0051559D01*
X0416857Y0051447D01*
X0416840Y0051335D01*
X0416818Y0051223D01*
X0416792Y0051113D01*
X0416763Y0051003D01*
X0416730Y0050895D01*
X0416693Y0050787D01*
X0416652Y0050682D01*
X0416608Y0050577D01*
X0416560Y0050474D01*
X0416509Y0050373D01*
X0416454Y0050274D01*
X0416395Y0050177D01*
X0416333Y0050082D01*
X0416268Y0049989D01*
X0416200Y0049898D01*
X0416129Y0049810D01*
X0416054Y0049724D01*
X0415977Y0049641D01*
X0415897Y0049561D01*
X0415814Y0049484D01*
X0415728Y0049409D01*
X0415640Y0049338D01*
X0415549Y0049270D01*
X0415456Y0049205D01*
X0415361Y0049143D01*
X0415264Y0049084D01*
X0415165Y0049029D01*
X0415064Y0048978D01*
X0414961Y0048930D01*
X0414856Y0048886D01*
X0414751Y0048845D01*
X0414643Y0048808D01*
X0414535Y0048775D01*
X0414425Y0048746D01*
X0414315Y0048720D01*
X0414203Y0048698D01*
X0414091Y0048681D01*
X0413979Y0048667D01*
X0413866Y0048657D01*
X0413752Y0048651D01*
X0413639Y0048649D01*
X0413526Y0048651D01*
X0413412Y0048657D01*
X0413299Y0048667D01*
X0413187Y0048681D01*
X0413075Y0048698D01*
X0412963Y0048720D01*
X0412853Y0048746D01*
X0412743Y0048775D01*
X0412635Y0048808D01*
X0412527Y0048845D01*
X0412422Y0048886D01*
X0412317Y0048930D01*
X0412214Y0048978D01*
X0412113Y0049029D01*
X0412014Y0049084D01*
X0411917Y0049143D01*
X0411822Y0049205D01*
X0411729Y0049270D01*
X0411638Y0049338D01*
X0411550Y0049409D01*
X0411464Y0049484D01*
X0411381Y0049561D01*
X0411301Y0049641D01*
X0411224Y0049724D01*
X0411149Y0049810D01*
X0411078Y0049898D01*
X0411010Y0049989D01*
X0410945Y0050082D01*
X0410883Y0050177D01*
X0410824Y0050274D01*
X0410769Y0050373D01*
X0410718Y0050474D01*
X0410670Y0050577D01*
X0410626Y0050682D01*
X0410585Y0050787D01*
X0410548Y0050895D01*
X0410515Y0051003D01*
X0410486Y0051113D01*
X0410460Y0051223D01*
X0410438Y0051335D01*
X0410421Y0051447D01*
X0410407Y0051559D01*
X0410397Y0051672D01*
X0410391Y0051786D01*
X0410389Y0051899D01*
M02*
